<?xml version="1.0" encoding="utf-8"?>
<!-- Generator: Adobe Illustrator 23.0.2, SVG Export Plug-In . SVG Version: 6.00 Build 0)  -->
<svg version="1.1" id="Calque_1" xmlns="http://www.w3.org/2000/svg" xmlns:xlink="http://www.w3.org/1999/xlink" x="0px" y="0px"
	 viewBox="0 0 32 32" style="enable-background:new 0 0 32 32;" xml:space="preserve">
<style type="text/css">
	.st0{fill:none;}
</style>
<g>
	<path class="st0" d="M29.3,14.2l-12.6,4.4c0,0,0,0.1-0.1,0.1L16.5,19l-0.4,0l-0.4,0L2.8,14.5v10.9c0,0.7,0.7,1.4,1.4,1.4h23.7
		c0.7,0,1.4-0.7,1.4-1.4V14.2z"/>
	<path class="st0" d="M2.8,12l13.3,4.7L29.3,12v-1.6c0-0.7-0.7-1.4-1.4-1.4H4.2c-0.7,0-1.4,0.7-1.4,1.4V12z"/>
	<path class="st0" d="M12.9,6.8h6.4V5.4c0-0.1,0-0.1,0-0.1c0,0,0,0-0.1,0H13c-0.1,0-0.1,0-0.1,0c0,0,0,0,0,0.1V6.8z"/>
	<path d="M27.9,6.8h-6.2l0-1.4c0-1.3-1.1-2.4-2.4-2.4h-6.2c-1.3,0-2.4,1.1-2.4,2.4v1.4H4.2c-2,0-3.6,1.6-3.6,3.6v2.3
		c0,0.1,0,0.2,0,0.3v12.4c0,2,1.6,3.6,3.6,3.6h23.7c1,0,2-0.4,2.7-1.1c0.6-0.7,1-1.6,0.9-2.5v-15C31.5,8.4,29.9,6.8,27.9,6.8z
		 M29.3,25.4c0,0.7-0.7,1.4-1.4,1.4H4.2c-0.7,0-1.4-0.7-1.4-1.4V14.5L15.7,19l0.4,0l0.4,0l0.1-0.2c0,0,0-0.1,0.1-0.1l12.6-4.4V25.4z
		 M2.8,10.4C2.8,9.7,3.5,9,4.2,9h23.7c0.7,0,1.4,0.7,1.4,1.4V12l-13.2,4.7L2.8,12V10.4z M12.9,5.3C12.9,5.3,12.9,5.3,12.9,5.3l6.3,0
		c0,0,0.1,0,0.1,0c0,0,0,0,0,0.1v1.4h-6.4L12.9,5.3C12.9,5.3,12.9,5.3,12.9,5.3z"/>
</g>
</svg>
