<?xml version="1.0" encoding="utf-8"?>
<!-- Generator: Adobe Illustrator 23.0.2, SVG Export Plug-In . SVG Version: 6.00 Build 0)  -->
<svg version="1.1" id="Calque_1" xmlns="http://www.w3.org/2000/svg" xmlns:xlink="http://www.w3.org/1999/xlink" x="0px" y="0px"
	 viewBox="0 0 40 40" style="enable-background:new 0 0 40 40;" xml:space="preserve">
<style type="text/css">
	.st0{fill:#888888;}
</style>
<g>
	<g transform="translate(-25.000000, -25.000000)">
		<g id="Creer-un-projet">
			<g id="layers" transform="translate(25.000000, 25.000000)">
				<path id="Shape" class="st0" d="M38.3,23.8l-0.8-0.5l0.8-0.5c2.2-1.4,2.2-3.7,0-5.1l-0.8-0.5l0.8-0.5c2.2-1.4,2.2-4.6,0-6
					L21.8,0.5c-1.1-0.7-2.5-0.7-3.7,0c0,0,0,0,0,0L1.7,10.7c-2.2,1.4-2.2,4.6,0,6l0.8,0.5l-0.8,0.5c-2.2,1.4-2.2,3.7,0,5.1l0.8,0.5
					l-0.8,0.5c-2.2,1.4-2.2,4.2,0,5.5l16.5,10.1c1.1,0.7,2.5,0.7,3.7,0l16.5-10.1C40.6,28,40.6,25.2,38.3,23.8z M2.9,12.7L19.4,2.5
					l0,0c0.4-0.2,0.8-0.2,1.2,0l16.5,10.1c0.7,0.5,0.8,1.5,0,2c-1.2,0.7-16,9.8-16.5,10.1c-0.4,0.2-0.8,0.2-1.2,0
					c-0.7-0.5-15.8-9.7-16.5-10.1C2.2,14.2,2.2,13.1,2.9,12.7z M2.3,20.2c0,0,0.1-0.3,0.6-0.5l1.9-1.1l13.4,8.2
					c1.1,0.7,2.5,0.7,3.7,0l13.4-8.2l1.9,1.1c0.5,0.3,0.6,0.5,0.6,0.5c0,0-0.1,0.3-0.6,0.5c-1.2,0.7-16,9.8-16.5,10.1
					c-0.4,0.2-0.8,0.2-1.2,0c-0.5-0.3-15.3-9.4-16.5-10.1C2.4,20.5,2.3,20.3,2.3,20.2z M37.1,27.3L20.6,37.5c-0.4,0.2-0.8,0.2-1.2,0
					L2.9,27.3c-0.7-0.5-0.7-1.1,0-1.5l1.9-1.1l13.4,8.2c1.1,0.7,2.5,0.7,3.7,0l13.4-8.2l1.9,1.1c0.4,0.2,0.6,0.5,0.6,0.8
					C37.7,26.8,37.5,27.1,37.1,27.3z"/>
			</g>
		</g>
	</g>
</g>
</svg>
