<?xml version="1.0" encoding="utf-8"?>
<!-- Generator: Adobe Illustrator 23.0.2, SVG Export Plug-In . SVG Version: 6.00 Build 0)  -->
<svg version="1.1" id="Calque_1" xmlns="http://www.w3.org/2000/svg" xmlns:xlink="http://www.w3.org/1999/xlink" x="0px" y="0px"
	 viewBox="0 0 47 47" style="enable-background:new 0 0 47 47;" xml:space="preserve">
<style type="text/css">
	.st0{stroke:#000000;stroke-width:0.5;}
</style>
<g>
	<g transform="translate(-2945.000000, -35.000000)">
		<g id="Talents">
			<g>
				<g id="Talent">
					<g transform="translate(2946.000000, 36.000000)">
						<path id="Path" class="st0" d="M26,19c-0.6,0-1,0.3-1,0.8v14.5c0,0.4,0.4,0.8,1,0.8s1-0.3,1-0.8V19.8C27,19.3,26.6,19,26,19z"
							/>
						<path id="Shape" class="st0" d="M7,13.4v26c0,1.5,0.6,3,1.6,4c1,1,2.4,1.6,3.8,1.6h20.2c1.4,0,2.8-0.6,3.8-1.6
							c1-1,1.6-2.5,1.6-4v-26c2-0.5,3.3-2.4,3-4.4c-0.3-2-2-3.5-4-3.5h-5.5V4.2c0-1.1-0.4-2.2-1.2-3c-0.8-0.8-1.9-1.2-3-1.2h-9.5
							c-1.1,0-2.2,0.4-3,1.2c-0.8,0.8-1.2,1.8-1.2,3v1.3H8.1C6,5.5,4.3,7,4,9C3.8,11,5.1,12.9,7,13.4z M32.6,42.9H12.4
							c-1.8,0-3.2-1.5-3.2-3.5V13.5h26.7v25.9C35.8,41.3,34.4,42.9,32.6,42.9z M15.7,4.2c0-0.5,0.2-1.1,0.6-1.5
							c0.4-0.4,0.9-0.6,1.5-0.6h9.5c0.6,0,1.1,0.2,1.5,0.6c0.4,0.4,0.6,0.9,0.6,1.5v1.3H15.7V4.2z M8.1,7.6h28.8
							c1.1,0,1.9,0.8,1.9,1.9s-0.9,1.9-1.9,1.9H8.1c-1.1,0-1.9-0.8-1.9-1.9S7,7.6,8.1,7.6z"/>
						<path class="st0" d="M19,19c-0.6,0-1,0.3-1,0.8v14.5c0,0.4,0.4,0.8,1,0.8s1-0.3,1-0.8V19.8C20,19.3,19.6,19,19,19z"/>
					</g>
				</g>
			</g>
		</g>
	</g>
</g>
</svg>
