<?xml version="1.0" encoding="utf-8"?>
<!-- Generator: Adobe Illustrator 23.0.2, SVG Export Plug-In . SVG Version: 6.00 Build 0)  -->
<svg version="1.1" id="Calque_1" xmlns="http://www.w3.org/2000/svg" xmlns:xlink="http://www.w3.org/1999/xlink" x="0px" y="0px"
	 viewBox="0 0 30 30" style="enable-background:new 0 0 30 30;" xml:space="preserve">
<style type="text/css">
	.st0{fill-rule:evenodd;clip-rule:evenodd;fill:#888888;}
</style>
<g>
	<g transform="translate(-2160.000000, -45.000000)">
		<g>
			<g id="SEARCH-BAR-PROJET">
				<g id="FILTRES" transform="translate(1190.000000, 25.000000)">
					<g id="Group-7" transform="translate(970.000000, 20.000000)">
						<path id="Triangle" class="st0" d="M15.8,1.3l6.7,10.2c0.3,0.5,0.2,1.1-0.3,1.4c-0.2,0-0.4,0.1-0.5,0.1H8.3c-0.6,0-1-0.4-1-1
							c0-0.2,0.1-0.4,0.2-0.5l6.7-10.2c0.3-0.5,0.9-0.6,1.4-0.3C15.7,1.1,15.8,1.2,15.8,1.3z"/>
						<path class="st0" d="M15.8,28.7l6.7-10.2c0.3-0.5,0.2-1.1-0.3-1.4c-0.2,0-0.4-0.1-0.5-0.1H8.3c-0.6,0-1,0.4-1,1
							c0,0.2,0.1,0.4,0.2,0.5l6.7,10.2c0.3,0.5,0.9,0.6,1.4,0.3C15.7,28.9,15.8,28.8,15.8,28.7z"/>
					</g>
				</g>
			</g>
		</g>
	</g>
</g>
</svg>
