<svg width="15" height="15" viewBox="0 0 15 15" fill="none" xmlns="http://www.w3.org/2000/svg">
<path fill-rule="evenodd" clip-rule="evenodd" d="M13.0664 1.17188H11.7188V0.46875C11.7188 0.209883 11.5089 0 11.25 0C10.9911 0 10.7812 0.209883 10.7812 0.46875V1.17188H4.21875V0.46875C4.21875 0.209883 4.0089 0 3.75 0C3.4911 0 3.28125 0.209883 3.28125 0.46875V1.17188H1.93359C0.867393 1.17188 0 2.03927 0 3.10547V13.0664C0 14.1326 0.867393 15 1.93359 15H13.0664C14.1326 15 15 14.1326 15 13.0664V3.10547C15 2.03927 14.1326 1.17188 13.0664 1.17188ZM1.93359 2.10936H3.28125V2.57811C3.28125 2.83697 3.4911 3.04686 3.75 3.04686C4.0089 3.04686 4.21875 2.83697 4.21875 2.57811V2.10936H10.7812V2.57811C10.7812 2.83697 10.9911 3.04686 11.25 3.04686C11.5089 3.04686 11.7188 2.83697 11.7188 2.57811V2.10936H13.0664C13.6157 2.10936 14.0625 2.55619 14.0625 3.10545V4.21873H0.9375V3.10545C0.9375 2.55619 1.38434 2.10936 1.93359 2.10936ZM1.93359 14.0625H13.0664C13.6157 14.0625 14.0625 13.6157 14.0625 13.0664V5.15626H0.9375V13.0664C0.9375 13.6157 1.38434 14.0625 1.93359 14.0625Z" fill="#7665A7"/>
</svg>
