<?xml version="1.0" encoding="utf-8"?>
<!-- Generator: Adobe Illustrator 23.0.2, SVG Export Plug-In . SVG Version: 6.00 Build 0)  -->
<svg version="1.1" id="Calque_1" xmlns="http://www.w3.org/2000/svg" xmlns:xlink="http://www.w3.org/1999/xlink" x="0px" y="0px"
	 viewBox="0 0 72 73" style="enable-background:new 0 0 72 73;" xml:space="preserve">
<style type="text/css">
	.st0{fill:#888888;}
</style>
<g>
	<g id="menu-closed" transform="translate(-1845.000000, -2012.000000)">
		<g id="Group-8" transform="translate(1500.000000, 2012.000000)">
			
				<g id="chat" transform="translate(381.000000, 36.500000) scale(-1, 1) translate(-381.000000, -36.500000) translate(345.000000, 0.000000)">
				<path id="Shape" class="st0" d="M36.2,0c0,0-0.1,0-0.1,0C16.2,0,0,16.1,0,35.9C0,44,2.8,51.8,7.8,58.1L2.6,70.3
					c-0.4,1,0,2.2,1,2.6C4,73,4.4,73,4.7,73L24,69.6c3.9,1.4,7.9,2.1,12,2.1c19.9,0,36-16.1,36-35.9C72,16.1,56,0,36.2,0z M36,67.8
					c-3.8,0-7.5-0.7-11.1-2c-0.3-0.1-0.7-0.2-1-0.1L7.6,68.5l4.3-9.9c0.3-0.7,0.2-1.5-0.3-2.1c-2.3-2.7-4.2-5.7-5.5-9
					c-1.5-3.7-2.2-7.6-2.2-11.6c0-17.6,14.4-32,32.1-32c17.7,0,32,14.2,32,31.8c0,0,0,0.1,0,0.1C68.1,53.5,53.7,67.8,36,67.8z"/>
				<path id="Path" class="st0" d="M35,29H24c-1.1,0-2,0.9-2,2c0,1.1,0.9,2,2,2H35c1.1,0,2-0.9,2-2C37,29.9,36.1,29,35,29z"/>
				<path class="st0" d="M48.1,38H23.9c-1.1,0-1.9,0.9-1.9,2s0.9,2,1.9,2h24.1c1.1,0,1.9-0.9,1.9-2S49.1,38,48.1,38z"/>
			</g>
		</g>
	</g>
</g>
</svg>
