<?xml version="1.0" encoding="UTF-8"?>
<svg width="40px" height="29px" viewBox="0 0 40 29" version="1.1" xmlns="http://www.w3.org/2000/svg" xmlns:xlink="http://www.w3.org/1999/xlink">
    <!-- Generator: Sketch 52 (66869) - http://www.bohemiancoding.com/sketch -->
    <title>Player</title>
    <desc>Created with Sketch.</desc>
    <defs>
        <linearGradient x1="100%" y1="-35.3618862%" x2="21.1707826%" y2="100%" id="linearGradient-1">
            <stop stop-color="#4F00B5" offset="0%"></stop>
            <stop stop-color="#7D2A86" offset="100%"></stop>
        </linearGradient>
    </defs>
    <g id="↪️-Login-/-Dashboard" stroke="none" stroke-width="1" fill="none" fill-rule="evenodd">
        <g id="Dashboard_create_project_final_step" transform="translate(-2050.000000, -2113.000000)" fill="url(#linearGradient-1)" fill-rule="nonzero">
            <g id="Exports" transform="translate(2025.000000, 2088.000000)">
                <g id="Player" transform="translate(25.000000, 25.000000)">
                    <path d="M26.4031159,13.5541538 L17.0555015,7.97723077 C16.6952288,7.76233333 16.2412463,7.75095641 15.8697566,7.94748718 C15.4981889,8.14401795 15.2676923,8.51759744 15.2676923,8.92307692 L15.2676923,20.0769231 C15.2676923,20.4824026 15.4981889,20.8559077 15.8697566,21.0525128 C16.0462707,21.1459077 16.2413242,21.1923077 16.4361441,21.1923077 C16.6513729,21.1923077 16.8662902,21.1355718 17.0554236,21.0227692 L26.403038,15.4458462 C26.7446933,15.2420282 26.9522103,14.8845846 26.9522103,14.5 C26.9522103,14.1154154 26.7447712,13.7579718 26.4031159,13.5541538 Z M17.6046738,18.0644718 L17.6046738,10.9354538 L23.5792016,14.5 L17.6046738,18.0644718 Z" id="Shape"></path>
                    <path d="M34.0408958,0 L5.84225901,0 C2.62083739,0 0,2.50180769 0,5.57692308 L0,23.4230769 C0,26.4981923 2.62083739,29 5.84225901,29 L34.0408958,29 C37.2623174,29 39.8831548,26.4981923 39.8831548,23.4230769 L39.8831548,5.57692308 C39.8831548,2.50180769 37.2623174,0 34.0408958,0 Z M37.5462512,23.4230769 C37.5462512,25.2681462 35.9737488,26.7692308 34.0408958,26.7692308 L5.84225901,26.7692308 C3.90940604,26.7692308 2.3369036,25.2681462 2.3369036,23.4230769 L2.3369036,5.57692308 C2.3369036,3.73185385 3.90940604,2.23076923 5.84225901,2.23076923 L34.0408958,2.23076923 C35.9737488,2.23076923 37.5462512,3.73185385 37.5462512,5.57692308 L37.5462512,23.4230769 Z" id="Shape"></path>
                </g>
            </g>
        </g>
    </g>
</svg>