<?xml version="1.0" encoding="UTF-8"?>
<svg width="34px" height="30px" viewBox="0 0 34 30" version="1.1" xmlns="http://www.w3.org/2000/svg" xmlns:xlink="http://www.w3.org/1999/xlink">
    <!-- Generator: Sketch 52 (66869) - http://www.bohemiancoding.com/sketch -->
    <title>person</title>
    <desc>Created with Sketch.</desc>
    <defs>
        <linearGradient x1="100%" y1="-35.3618862%" x2="21.1707826%" y2="100%" id="linearGradient-1">
            <stop stop-color="#4F00B5" offset="0%"></stop>
            <stop stop-color="#7D2A86" offset="100%"></stop>
        </linearGradient>
    </defs>
    <g id="***********Symbols***********" stroke="none" stroke-width="1" fill="none" fill-rule="evenodd">
        <g id="search/bar/planning/search" transform="translate(-2155.000000, -45.000000)" fill="url(#linearGradient-1)" fill-rule="nonzero">
            <g id="SEARCH-BAR-PLANNING">
                <g id="FILTRES" transform="translate(1910.000000, 25.000000)">
                    <g id="DROP-DOWN-TALENTS" transform="translate(220.000000, 0.000000)">
                        <g id="person" transform="translate(25.000000, 20.000000)">
                            <path d="M27.155257,14.6142056 C30.5881542,11.5280607 30.8692991,6.24336449 27.7831542,2.81046729 C24.9526402,-0.338060748 20.2149533,-0.872943925 16.7537383,1.5653271 C12.9806075,-1.09752336 7.76327103,-0.197453271 5.10042056,3.57560748 C2.65703271,7.03773364 3.18974299,11.7803271 6.34030374,14.6141355 C2.42565421,16.6776869 -0.0175934579,20.7459813 0.000140186916,25.1711215 L0.000140186916,28.7599065 C0.000140186916,29.4206075 0.535724299,29.9561916 1.19642523,29.9561916 L32.2992056,29.9561916 C32.9599065,29.9561916 33.4954907,29.4206075 33.4954907,28.7599065 L33.4954907,25.1711215 C33.5131542,20.7459813 31.0699065,16.6776869 27.155257,14.6142056 Z M21.5327804,2.44219626 C24.8315187,2.4385514 27.5086682,5.10974299 27.5123832,8.40848131 C27.5149766,10.7610981 26.1363785,12.8960748 23.9910981,13.8616822 C23.8989953,13.903528 23.8068925,13.9417991 23.7135981,13.9813318 C23.4183645,14.1004206 23.1138785,14.1951869 22.8032243,14.2648598 C22.7434346,14.2780374 22.6835748,14.2851869 22.6225935,14.2971729 C22.2754907,14.3636916 21.923271,14.3992991 21.5698598,14.4036449 C21.4107477,14.4036449 21.2504439,14.3916589 21.0913318,14.3773598 C21.0315421,14.3773598 20.9716822,14.3773598 20.9118925,14.3653738 C20.231986,14.2853271 19.5705841,14.0903972 18.9560047,13.788785 C18.9332944,13.7779907 18.9069393,13.7791822 18.884229,13.7696495 C18.7645794,13.712243 18.645,13.661986 18.538528,13.5973598 C18.5481308,13.5853738 18.5540888,13.5722664 18.5636215,13.5602804 C19.1121729,12.8554206 19.5446495,12.0675701 19.8447897,11.2263785 L19.8818692,11.1258645 C20.0183411,10.7240888 20.1243224,10.3126402 20.1989019,9.89488318 C20.2096963,9.83390187 20.2180374,9.77523364 20.2276402,9.70948598 C20.2968224,9.28422897 20.3332009,8.85434579 20.3364953,8.42348131 C20.3330607,7.99345794 20.2966822,7.56434579 20.2276402,7.13985981 C20.2180374,7.07768692 20.2096963,7.02021028 20.1989019,6.95446262 C20.1243224,6.5367757 20.0183411,6.12525701 19.8818692,5.72348131 L19.8447897,5.62296729 C19.5446495,4.7817757 19.1121028,3.99392523 18.5636215,3.28906542 C18.5540187,3.27707944 18.5480607,3.26397196 18.538528,3.25198598 C19.4473598,2.72179907 20.4806075,2.44226636 21.5327804,2.44219626 Z M5.98142523,8.4235514 C5.97294393,5.12873832 8.63698598,2.45088785 11.9317991,2.44240654 C13.4762383,2.43841121 14.9620794,3.03357477 16.0767056,4.10264019 C16.1460981,4.16964953 16.2142991,4.23658879 16.2812383,4.30598131 C16.4866822,4.52123832 16.6761449,4.75114486 16.8482944,4.99380841 C16.9009346,5.06796729 16.9488084,5.14696262 16.9978037,5.22350467 C17.1649766,5.48081776 17.3117523,5.75081776 17.4367991,6.03098131 C17.466729,6.09918224 17.4894393,6.16857477 17.5157243,6.23670561 C17.6418224,6.54658879 17.7410748,6.8667757 17.8124299,7.19369159 C17.8208411,7.22957944 17.8232243,7.26546729 17.8303738,7.30254673 C17.9819159,8.0453271 17.9819159,8.81109813 17.8303738,9.5538785 C17.8232243,9.59095794 17.820771,9.62684579 17.8124299,9.66273364 C17.7411449,9.98964953 17.6418925,10.3098364 17.5157243,10.6197196 C17.4894393,10.6879206 17.4666589,10.7573131 17.4367991,10.8254439 C17.3116121,11.1051869 17.1648364,11.3747664 16.9978037,11.631729 C16.9487383,11.708271 16.9009346,11.7872664 16.8482944,11.8614252 C16.676215,12.1041589 16.4866822,12.3339953 16.2812383,12.5492523 C16.214229,12.6186449 16.146028,12.6856542 16.0767056,12.7525935 C15.5923598,13.2141589 15.0339252,13.5910514 14.4246729,13.8675 C14.3278037,13.911729 14.2296729,13.9524533 14.1304206,13.9871495 C13.8420561,14.1016121 13.5453505,14.1935748 13.2428271,14.2622664 C13.1674766,14.2790187 13.0896729,14.2885514 13.0131308,14.301729 C12.6883178,14.3622196 12.3589486,14.3953738 12.0285981,14.4010514 L11.8970327,14.4010514 C11.5666822,14.3954439 11.2373131,14.3622196 10.9125,14.301729 C10.8359579,14.2885514 10.7581542,14.2790187 10.6828037,14.2622664 C10.3802804,14.1935748 10.0835047,14.1016121 9.79521028,13.9871495 C9.69588785,13.9476869 9.5978271,13.9070327 9.50095794,13.8675 C7.3607243,12.9011916 5.98415888,10.7717523 5.98142523,8.4235514 Z M21.5327804,27.5636916 L2.39255058,27.5636916 L2.39264019,25.1711916 C2.37511682,21.1174766 4.92918224,17.4982009 8.75432243,16.1561916 C10.8077804,17.0111215 13.1175701,17.0111215 15.1710981,16.1561916 C15.5704907,16.3021262 15.9597196,16.4743458 16.3362617,16.6717991 C16.5850935,16.7997897 16.8147897,16.9457243 17.0540187,17.0928505 C17.2095561,17.1897196 17.3674065,17.2842757 17.516986,17.3907477 C17.7478738,17.5546262 17.9655841,17.7328738 18.1797196,17.9158879 C18.3173131,18.0355374 18.4536449,18.1551168 18.5828271,18.2747664 C18.7802103,18.4613551 18.9656075,18.6587383 19.1438551,18.8609579 C19.2718458,19.0068925 19.3962617,19.1552103 19.5147196,19.3083645 C19.6714486,19.5093224 19.8209579,19.7151168 19.959743,19.9267991 C20.0793925,20.1062383 20.1858645,20.2928271 20.2910748,20.479486 C20.4107243,20.6852103 20.520771,20.8910047 20.621215,21.1051402 C20.721729,21.3192757 20.810257,21.5537383 20.8963318,21.782243 C20.9716822,21.9808178 21.0518692,22.1782009 21.1140421,22.3803505 C21.1978037,22.6578505 21.2564019,22.9449533 21.315,23.2320561 C21.3508879,23.4018925 21.3975701,23.5682243 21.4238551,23.7404439 C21.4947196,24.2140654 21.5310981,24.692243 21.5327103,25.1711916 L21.5327804,27.5636916 Z M31.1029206,27.5636916 L23.9253505,27.5636916 L23.9253505,25.1711916 C23.9253505,24.7967523 23.9038318,24.4258879 23.8703271,24.0586682 C23.8607243,23.9510047 23.8440421,23.8445327 23.8320561,23.7368692 C23.799743,23.4724766 23.7626636,23.2105374 23.7124065,22.9509112 C23.6908879,22.8400935 23.6681776,22.728785 23.6442056,22.6171262 C23.5867991,22.350771 23.5202103,22.0867991 23.4444393,21.8252103 C23.4193458,21.7390654 23.3965654,21.651729 23.3702804,21.5668458 C23.0353037,20.496028 22.5499065,19.478271 21.9288084,18.5439252 L21.8821262,18.4757243 C21.6764019,18.170257 21.4566589,17.8748131 21.2229673,17.5893224 L21.2146262,17.578528 C20.9753972,17.2818925 20.715771,16.993528 20.4430374,16.7207944 C20.4585981,16.7207944 20.4753505,16.7207944 20.4921028,16.7207944 C20.8296729,16.7651636 21.1696262,16.7891355 21.5101402,16.7925701 L21.5759579,16.7925701 C21.8910981,16.7898364 22.2057477,16.7694393 22.5186449,16.7315888 C22.6167056,16.7196028 22.7136449,16.7016589 22.8117056,16.6860981 C23.0661449,16.6470561 23.3173598,16.5963785 23.5653505,16.5342056 C23.6359346,16.5162617 23.7077103,16.4995093 23.779486,16.4791822 C24.1049299,16.3906542 24.4245561,16.2819393 24.736472,16.1538084 C28.5644159,17.494486 31.1207944,21.1153738 31.1029907,25.1712617 L31.1030831,27.5636916 L31.1029206,27.5636916 Z" id="Shape"></path>
                        </g>
                    </g>
                </g>
            </g>
        </g>
    </g>
</svg>