<svg width="41" height="40" viewBox="0 0 41 40" fill="none" xmlns="http://www.w3.org/2000/svg">
<path fill-rule="evenodd" clip-rule="evenodd" d="M35.1824 3.125H31.5537V1.25C31.5537 0.559687 30.9887 0 30.2916 0C29.5945 0 29.0294 0.559687 29.0294 1.25V3.125H11.3593V1.25C11.3593 0.559687 10.7943 0 10.0972 0C9.4001 0 8.83505 0.559687 8.83505 1.25V3.125H5.20637C2.33553 3.125 0 5.43805 0 8.28125V34.8438C0 37.687 2.33553 40 5.20637 40H35.1824C38.0533 40 40.3888 37.687 40.3888 34.8438V8.28125C40.3888 5.43805 38.0533 3.125 35.1824 3.125ZM5.20641 5.625H8.83509V6.875C8.83509 7.56531 9.40014 8.125 10.0972 8.125C10.7943 8.125 11.3594 7.56531 11.3594 6.875V5.625H29.0295V6.875C29.0295 7.56531 29.5945 8.125 30.2916 8.125C30.9887 8.125 31.5538 7.56531 31.5538 6.875V5.625H35.1825C36.6614 5.625 37.8645 6.81656 37.8645 8.28125V11.25H2.52434V8.28125C2.52434 6.81656 3.72748 5.625 5.20641 5.625ZM5.20641 37.5H35.1825C36.6614 37.5 37.8645 36.3084 37.8645 34.8438V13.75H2.52434V34.8438C2.52434 36.3084 3.72748 37.5 5.20641 37.5Z" fill="#888888"/>
</svg>
