<?xml version="1.0" encoding="utf-8"?>
<!-- Generator: Adobe Illustrator 23.0.2, SVG Export Plug-In . SVG Version: 6.00 Build 0)  -->
<svg version="1.1" id="Calque_1" xmlns="http://www.w3.org/2000/svg" xmlns:xlink="http://www.w3.org/1999/xlink" x="0px" y="0px"
	 viewBox="0 0 24 25" style="enable-background:new 0 0 24 25;" xml:space="preserve">
<title>change</title>
<desc>Created with Sketch.</desc>
<g transform="translate(-29.000000, -170.000000)">
	<g id="télécharger-le-fichier-copy" transform="translate(30.000000, 164.000000)">
		<g id="change" transform="translate(0.000000, 7.000000)">
			<path d="M21.7,12.5h-1.4c-0.3,0-0.5,0.2-0.5,0.5v2c0,1.5-0.8,1.5-0.9,1.5H3.5l2.7-2.7c0.2-0.2,0.2-0.5,0-0.7l-1-1
				C5.2,12.1,5.1,12,4.9,12c-0.1,0-0.3,0.1-0.4,0.1l-4.7,4.7c-0.5,0.5-0.5,1.2,0,1.7l4.7,4.7c0.1,0.1,0.2,0.1,0.4,0.1s0.3,0,0.4-0.1
				l1-1c0.1-0.1,0.1-0.2,0.1-0.4s-0.1-0.3-0.1-0.4l-2.7-2.7H19c1.1,0,3.2-0.8,3.2-3.9v-2C22.2,12.7,22,12.5,21.7,12.5z"/>
			<path d="M21.9,4.4l-4.7-4.7c-0.2-0.2-0.5-0.2-0.7,0l-1,1c-0.1,0.1-0.1,0.2-0.1,0.4c0,0.1,0.1,0.3,0.1,0.4l2.7,2.7H2.7
				C1.6,4.1-0.5,4.9-0.5,8v2c0,0.3,0.2,0.5,0.5,0.5h1.4c0.3,0,0.5-0.2,0.5-0.5V8c0-1.5,0.8-1.5,0.9-1.5h15.5l-2.7,2.7
				c-0.1,0.1-0.1,0.2-0.1,0.4s0.1,0.3,0.1,0.4l1,1c0.1,0.1,0.2,0.1,0.4,0.1s0.3,0,0.4-0.1l4.7-4.7C22.3,5.6,22.3,4.9,21.9,4.4z"/>
		</g>
	</g>
</g>
</svg>
