<?xml version="1.0" encoding="UTF-8"?>
<svg width="32px" height="27px" viewBox="0 0 32 27" version="1.1" xmlns="http://www.w3.org/2000/svg" xmlns:xlink="http://www.w3.org/1999/xlink">
    <!-- Generator: Sketch 52 (66869) - http://www.bohemiancoding.com/sketch -->
    <title>work</title>
    <desc>Created with Sketch.</desc>
    <defs>
        <linearGradient x1="100%" y1="-35.3618862%" x2="21.1707826%" y2="100%" id="linearGradient-1">
            <stop stop-color="#4F00B5" offset="0%"></stop>
            <stop stop-color="#7D2A86" offset="100%"></stop>
        </linearGradient>
    </defs>
    <g id="***********Symbols***********" stroke="none" stroke-width="1" fill="none" fill-rule="evenodd">
        <g id="search/bar/talent" transform="translate(-2154.000000, -47.000000)" fill="url(#linearGradient-1)" fill-rule="nonzero" stroke="url(#linearGradient-1)">
            <g id="FILTRES">
                <g transform="translate(1190.000000, 25.000000)">
                    <g id="DROP-DOWN-METIERS" transform="translate(940.000000, 0.000000)">
                        <g id="work" transform="translate(25.000000, 23.000000)">
                            <path d="M26.9320843,24.980484 L3.20062451,24.980484 C1.45199063,24.980484 0.0780640125,23.6065574 0.0780640125,21.8579235 L0.0780640125,6.8696331 C0.0780640125,5.12099922 1.45199063,3.7470726 3.20062451,3.7470726 L26.9320843,3.7470726 C28.6807182,3.7470726 30.0546448,5.12099922 30.0546448,6.8696331 L30.0546448,21.8579235 C30.0546448,23.6065574 28.6807182,24.980484 26.9320843,24.980484 Z M3.20062451,4.9960968 C2.20140515,4.9960968 1.32708821,5.87041374 1.32708821,6.8696331 L1.32708821,21.8579235 C1.32708821,22.8571429 2.20140515,23.7314598 3.20062451,23.7314598 L26.9320843,23.7314598 C27.9313037,23.7314598 28.8056206,22.8571429 28.8056206,21.8579235 L28.8056206,6.8696331 C28.8056206,5.87041374 27.9313037,4.9960968 26.9320843,4.9960968 L3.20062451,4.9960968 Z" id="Shape"></path>
                            <path d="M19.4379391,4.9960968 C19.0632319,4.9960968 18.813427,4.74629196 18.813427,4.3715847 L18.813427,1.8735363 C18.813427,1.49882904 18.5636222,1.2490242 18.1889149,1.2490242 L11.9437939,1.2490242 C11.5690867,1.2490242 11.3192818,1.49882904 11.3192818,1.8735363 L11.3192818,4.3715847 C11.3192818,4.74629196 11.069477,4.9960968 10.6947697,4.9960968 C10.3200625,4.9960968 10.0702576,4.74629196 10.0702576,4.3715847 L10.0702576,1.8735363 C10.0702576,0.87431694 10.9445746,0 11.9437939,0 L18.1889149,0 C19.1881343,0 20.0624512,0.87431694 20.0624512,1.8735363 L20.0624512,4.3715847 C20.0624512,4.74629196 19.8126464,4.9960968 19.4379391,4.9960968 Z" id="Path"></path>
                            <path d="M15.0663544,14.9882904 C14.941452,14.9882904 14.941452,14.9882904 14.8165496,14.9882904 L0.452771272,9.9921936 C0.202966432,9.86729118 -0.0468384075,9.49258392 0.0780640125,9.11787666 C0.202966432,8.86807182 0.577673692,8.61826698 0.952380952,8.7431694 L15.0663544,13.7392662 L29.1803279,8.7431694 C29.5550351,8.61826698 29.80484,8.7431694 29.9297424,9.11787666 C30.0546448,9.49258392 29.9297424,9.74238876 29.5550351,9.86729118 L15.1912568,14.863388 C15.1912568,14.9882904 15.1912568,14.9882904 15.0663544,14.9882904 Z" id="Path"></path>
                        </g>
                    </g>
                </g>
            </g>
        </g>
    </g>
</svg>