<?xml version="1.0" encoding="UTF-8"?>
<svg width="72px" height="73px" viewBox="0 0 72 73" version="1.1" xmlns="http://www.w3.org/2000/svg" xmlns:xlink="http://www.w3.org/1999/xlink">
    <!-- Generator: Sketch 52 (66869) - http://www.bohemiancoding.com/sketch -->
    <title>chat</title>
    <desc>Created with Sketch.</desc>
    <defs>
        <linearGradient x1="100%" y1="-35.3618862%" x2="21.1707826%" y2="100%" id="linearGradient-1">
            <stop stop-color="#4F00B5" offset="0%"></stop>
            <stop stop-color="#7D2A86" offset="100%"></stop>
        </linearGradient>
    </defs>
    <g id="↪️-Login-/-Dashboard" stroke="none" stroke-width="1" fill="none" fill-rule="evenodd">
        <g id="menu-closed" transform="translate(-1845.000000, -2012.000000)" fill="url(#linearGradient-1)" fill-rule="nonzero">
            <g id="Group-8" transform="translate(1500.000000, 2012.000000)">
                <g id="chat" transform="translate(381.000000, 36.500000) scale(-1, 1) translate(-381.000000, -36.500000) translate(345.000000, 0.000000)">
                    <path d="M36.1669128,0 C36.1472676,0.0195588585 36.107977,0.0195588585 36.0490413,0.0195588585 C16.1680441,0.0195588585 0,16.1164994 0,35.9100643 C0,43.9878728 2.76998083,51.8309751 7.83845639,58.1484864 L2.59317354,70.2749787 C2.16097795,71.2724805 2.63246405,72.4264532 3.61472676,72.8371892 C3.96834133,72.9936601 4.36124641,73.0327778 4.73450624,72.9741012 L23.96721,69.6099775 C27.8176798,70.9986565 31.8646022,71.7027754 35.950815,71.6832165 C55.8318122,71.6832165 71.9998563,55.586276 71.9998563,35.7927111 C72.0391468,16.0578229 55.9889742,0.0195588585 36.1669128,0 Z M35.9704603,67.7910037 C32.1789262,67.7910037 28.4266827,67.1064436 24.8708917,65.7764413 C24.5369224,65.6395292 24.1833078,65.6199704 23.8296932,65.678647 L7.64200385,68.4951226 L11.9246692,58.5787813 C12.2193481,57.8942213 12.1014765,57.0923081 11.6103452,56.5251012 C9.29220519,53.8455376 7.44555131,50.7943556 6.14896454,47.4889085 C4.69521573,43.7922843 3.94869608,39.8609537 3.94869608,35.8905054 C3.94869608,18.248415 18.3683126,3.91177171 36.0686865,3.91177171 C53.72977,3.87265399 68.0708055,18.0919441 68.0904507,35.675358 C68.0904507,35.7144757 68.0904507,35.7535934 68.0904507,35.7927111 C68.0904507,53.4543604 53.6708342,67.7910037 35.9704603,67.7910037 Z" id="Shape"></path>
                    <path d="M34.972973,29 L24.027027,29 C22.9121622,29 22,29.9 22,31 C22,32.1 22.9121622,33 24.027027,33 L34.972973,33 C36.0878378,33 37,32.1 37,31 C37,29.9 36.0878378,29 34.972973,29 Z" id="Path"></path>
                    <path d="M48.0555556,38 L23.9444444,38 C22.875,38 22,38.9 22,40 C22,41.1 22.875,42 23.9444444,42 L48.0555556,42 C49.125,42 50,41.1 50,40 C50,38.9 49.125,38 48.0555556,38 Z" id="Path"></path>
                </g>
            </g>
        </g>
    </g>
</svg>