<?xml version="1.0" encoding="utf-8"?>
<!-- Generator: Adobe Illustrator 23.0.2, SVG Export Plug-In . SVG Version: 6.00 Build 0)  -->
<svg version="1.1" id="Calque_1" xmlns="http://www.w3.org/2000/svg" xmlns:xlink="http://www.w3.org/1999/xlink" x="0px" y="0px"
	 viewBox="0 0 34 25" style="enable-background:new 0 0 34 25;" xml:space="preserve">
<style type="text/css">
	.st0{fill:none;}
</style>
<g>
	<path class="st0" d="M29,2.1H9c-1.2,0-2.1,0.9-2.1,2v0.7H23c2.9,0,5.2,2.4,5.2,5.2v8.1h0.7c1.2,0,2.1-1,2.1-2.1V4.1
		C31,3,30.1,2.1,29,2.1z"/>
	<path class="st0" d="M23.1,6.9H6.9H5.2c-1.7,0-3.1,1.4-3.1,3.1v9.8c0,1.7,1.4,3.1,3.1,3.1h17.9c1.7,0,3.1-1.4,3.1-3.1v-1.7V10
		C26.2,8.3,24.8,6.9,23.1,6.9z M18.3,13.1L13.5,18c-0.2,0.2-0.4,0.3-0.7,0.3s-0.5-0.1-0.7-0.3l-2.2-2.2c-0.4-0.4-0.4-1,0-1.4
		c0.3-0.4,1-0.4,1.4,0l1.5,1.5l4.1-4.1c0.2-0.2,0.4-0.3,0.7-0.3c0,0,0.3,0,0.6,0.3c0.3,0.2,0.4,0.7,0.4,0.6
		C18.6,12.6,18.5,12.9,18.3,13.1z"/>
	<path d="M17.6,11.5c-0.3,0-0.5,0.1-0.7,0.3l-4.1,4.1l-1.5-1.5c-0.4-0.4-1.1-0.4-1.4,0c-0.4,0.4-0.4,1,0,1.4l2.2,2.2
		c0.2,0.2,0.4,0.3,0.7,0.3s0.5-0.1,0.7-0.3l4.8-4.9c0.2-0.2,0.3-0.5,0.3-0.7c0,0.1-0.1-0.4-0.4-0.6C17.9,11.5,17.6,11.5,17.6,11.5z"
		/>
	<path d="M28.9,0H9C6.7,0,4.8,1.9,4.8,4.1v0.7H4.1C1.9,4.8,0,6.7,0,9v1v9.8v1C0,23.1,1.9,25,4.1,25h1H23h1c2.3,0,4.1-1.9,4.1-4.1
		v-0.7h0.7c2.3,0,4.1-1.9,4.1-4.1v-12C33.1,1.9,31.2,0,28.9,0z M26.2,18.1v1.7c0,1.7-1.4,3.1-3.1,3.1H5.2c-1.7,0-3.1-1.4-3.1-3.1V10
		c0-1.7,1.4-3.1,3.1-3.1h1.7h16.2c1.7,0,3.1,1.4,3.1,3.1V18.1z M31,16c0,1.1-0.9,2.1-2.1,2.1h-0.7V10c0-2.8-2.3-5.2-5.2-5.2H6.9V4.1
		c0-1.1,0.9-2,2.1-2h20c1.1,0,2,0.9,2,2V16z"/>
</g>
</svg>
