<?xml version="1.0" encoding="utf-8"?>
<!-- Generator: Adobe Illustrator 23.0.2, SVG Export Plug-In . SVG Version: 6.00 Build 0)  -->
<svg version="1.1" id="Calque_1" xmlns="http://www.w3.org/2000/svg" xmlns:xlink="http://www.w3.org/1999/xlink" x="0px" y="0px"
	 viewBox="0 0 34 30" style="enable-background:new 0 0 34 30;" xml:space="preserve">
<style type="text/css">
	.st0{fill:#888888;}
</style>
<g>
	<g transform="translate(-2155.000000, -45.000000)">
		<g id="SEARCH-BAR-PLANNING">
			<g id="FILTRES" transform="translate(1910.000000, 25.000000)">
				<g id="DROP-DOWN-TALENTS" transform="translate(220.000000, 0.000000)">
					<g id="person" transform="translate(25.000000, 20.000000)">
						<path id="Shape" class="st0" d="M27.2,14.6c3.4-3.1,3.7-8.4,0.6-11.8c-2.8-3.1-7.6-3.7-11-1.2c-3.8-2.7-9-1.8-11.7,2
							c-2.4,3.5-1.9,8.2,1.2,11C2.4,16.7,0,20.7,0,25.2v3.6C0,29.4,0.5,30,1.2,30h31.1c0.7,0,1.2-0.5,1.2-1.2v-3.6
							C33.5,20.7,31.1,16.7,27.2,14.6z M21.5,2.4c3.3,0,6,2.7,6,6c0,2.4-1.4,4.5-3.5,5.5c-0.1,0-0.2,0.1-0.3,0.1
							c-0.3,0.1-0.6,0.2-0.9,0.3c-0.1,0-0.1,0-0.2,0c-0.3,0.1-0.7,0.1-1.1,0.1c-0.2,0-0.3,0-0.5,0c-0.1,0-0.1,0-0.2,0
							c-0.7-0.1-1.3-0.3-2-0.6c0,0,0,0-0.1,0c-0.1-0.1-0.2-0.1-0.3-0.2c0,0,0,0,0,0c0.5-0.7,1-1.5,1.3-2.3l0-0.1
							c0.1-0.4,0.2-0.8,0.3-1.2c0-0.1,0-0.1,0-0.2c0.1-0.4,0.1-0.9,0.1-1.3c0-0.4,0-0.9-0.1-1.3c0-0.1,0-0.1,0-0.2
							c-0.1-0.4-0.2-0.8-0.3-1.2l0-0.1c-0.3-0.8-0.7-1.6-1.3-2.3c0,0,0,0,0,0C19.4,2.7,20.5,2.4,21.5,2.4z M6,8.4c0-3.3,2.7-6,6-6
							c1.5,0,3,0.6,4.1,1.7c0.1,0.1,0.1,0.1,0.2,0.2c0.2,0.2,0.4,0.4,0.6,0.7c0.1,0.1,0.1,0.2,0.1,0.2c0.2,0.3,0.3,0.5,0.4,0.8
							c0,0.1,0.1,0.1,0.1,0.2c0.1,0.3,0.2,0.6,0.3,1c0,0,0,0.1,0,0.1C18,8,18,8.8,17.8,9.6c0,0,0,0.1,0,0.1c-0.1,0.3-0.2,0.6-0.3,1
							c0,0.1,0,0.1-0.1,0.2c-0.1,0.3-0.3,0.5-0.4,0.8c0,0.1-0.1,0.2-0.1,0.2c-0.2,0.2-0.4,0.5-0.6,0.7c-0.1,0.1-0.1,0.1-0.2,0.2
							c-0.5,0.5-1,0.8-1.7,1.1c-0.1,0-0.2,0.1-0.3,0.1c-0.3,0.1-0.6,0.2-0.9,0.3c-0.1,0-0.2,0-0.2,0c-0.3,0.1-0.7,0.1-1,0.1h-0.1
							c-0.3,0-0.7,0-1-0.1c-0.1,0-0.2,0-0.2,0c-0.3-0.1-0.6-0.2-0.9-0.3c-0.1,0-0.2-0.1-0.3-0.1C7.4,12.9,6,10.8,6,8.4z M21.5,27.6
							H2.4l0-2.4c0-4.1,2.5-7.7,6.4-9c2.1,0.9,4.4,0.9,6.4,0c0.4,0.1,0.8,0.3,1.2,0.5c0.2,0.1,0.5,0.3,0.7,0.4
							c0.2,0.1,0.3,0.2,0.5,0.3c0.2,0.2,0.4,0.3,0.7,0.5c0.1,0.1,0.3,0.2,0.4,0.4c0.2,0.2,0.4,0.4,0.6,0.6c0.1,0.1,0.3,0.3,0.4,0.4
							c0.2,0.2,0.3,0.4,0.4,0.6c0.1,0.2,0.2,0.4,0.3,0.6c0.1,0.2,0.2,0.4,0.3,0.6c0.1,0.2,0.2,0.4,0.3,0.7c0.1,0.2,0.2,0.4,0.2,0.6
							c0.1,0.3,0.1,0.6,0.2,0.9c0,0.2,0.1,0.3,0.1,0.5c0.1,0.5,0.1,1,0.1,1.4L21.5,27.6z M31.1,27.6h-7.2v-2.4c0-0.4,0-0.7-0.1-1.1
							c0-0.1,0-0.2,0-0.3c0-0.3-0.1-0.5-0.1-0.8c0-0.1,0-0.2-0.1-0.3c-0.1-0.3-0.1-0.5-0.2-0.8c0-0.1,0-0.2-0.1-0.3
							c-0.3-1.1-0.8-2.1-1.4-3l0-0.1c-0.2-0.3-0.4-0.6-0.7-0.9l0,0c-0.2-0.3-0.5-0.6-0.8-0.9c0,0,0,0,0,0c0.3,0,0.7,0.1,1,0.1h0.1
							c0.3,0,0.6,0,0.9-0.1c0.1,0,0.2,0,0.3,0c0.3,0,0.5-0.1,0.8-0.2c0.1,0,0.1,0,0.2-0.1c0.3-0.1,0.6-0.2,1-0.3
							c3.8,1.3,6.4,5,6.4,9L31.1,27.6L31.1,27.6z"/>
					</g>
				</g>
			</g>
		</g>
	</g>
</g>
</svg>
