<?xml version="1.0" encoding="UTF-8"?>
<svg width="30px" height="30px" viewBox="0 0 30 30" version="1.1" xmlns="http://www.w3.org/2000/svg" xmlns:xlink="http://www.w3.org/1999/xlink">
    <!-- Generator: Sketch 52 (66869) - http://www.bohemiancoding.com/sketch -->
    <title>layers</title>
    <desc>Created with Sketch.</desc>
    <g id="ðŸ“-Projets" stroke="none" stroke-width="1" fill="none" fill-rule="evenodd">
        <g id="Projet" transform="translate(-1031.000000, -290.000000)" fill="#000000" fill-rule="nonzero">
            <g id="Buttons-add-more" transform="translate(991.000000, 269.000000)">
                <g id="Nouveau-projet" transform="translate(0.000000, 1.000000)">
                    <g id="layers" transform="translate(40.000000, 20.000000)">
                        <path d="M28.7372461,17.8470703 L28.1064258,17.461582 L28.7372461,17.0735742 C30.4173633,16.0467187 30.4210547,14.2978125 28.7372461,13.2687305 L28.1064258,12.8832422 L28.7372461,12.4952344 C30.4217578,11.4657422 30.4158984,9.02273437 28.7393555,7.99816406 L16.3715039,0.391171875 C15.5235938,-0.126972656 14.4702539,-0.126972656 13.6224023,0.391171875 C13.6216406,0.391640625 13.6209375,0.392109375 13.6201172,0.392578125 L1.26275391,7.996875 C-0.421289062,9.02607422 -0.416308594,11.4691406 1.26046875,12.4938281 L1.89345703,12.8833008 L1.26275391,13.2687305 C-0.415253906,14.2942383 -0.422402344,16.0436133 1.26046875,17.0720508 L1.89345703,17.461582 L1.26275391,17.8470117 C-0.421757812,18.8765039 -0.419296875,20.9752148 1.26046875,22.0017773 L13.6224023,29.6088867 C14.4611719,30.1214062 15.5145117,30.1325977 16.3736133,29.6075977 L28.7372461,22.0032422 C30.4209961,20.9742773 30.4208203,18.8760352 28.7372461,17.8470703 Z M2.18144531,9.49494141 L14.5410938,1.88929687 L14.5407422,1.88953125 C14.8230469,1.71802734 15.1732031,1.7184375 15.4529297,1.88941406 L27.8208984,9.49640625 C28.3803516,9.83824219 28.3836914,10.6519336 27.8187891,10.997168 C26.9109961,11.5555078 15.8544727,18.3558984 15.4552148,18.6015234 C15.1725,18.7742578 14.8214648,18.7741992 14.5412109,18.6029297 C13.9891406,18.2632031 2.67316406,11.2998047 2.17927734,10.9958203 C1.61970703,10.6539258 1.61625,9.84035156 2.18144531,9.49494141 Z M1.75863281,15.1710938 C1.75951172,15.1416211 1.83697266,14.9772656 2.17916016,14.7681445 L3.57257813,13.916543 L13.6224609,20.1008789 C14.4630469,20.6145117 15.5164453,20.6233594 16.3736133,20.0995312 L26.4268945,13.9161914 L27.8208984,14.7680859 C28.1630859,14.977207 28.2405469,15.1415625 28.2414258,15.1709766 C28.2405469,15.200625 28.1630273,15.3649805 27.8187305,15.5753906 C26.9108203,16.1337891 15.8544727,22.9341211 15.4551563,23.1797461 C15.1724414,23.3524805 14.8214063,23.3524219 14.5411523,23.1811523 C14.1416016,22.935293 3.09609375,16.1383008 2.17921875,15.574043 C1.83697266,15.3648633 1.75951172,15.2005664 1.75863281,15.1710938 Z M27.8187891,20.5050586 L15.4550977,28.1094727 C15.1725,28.282207 14.8214063,28.2821484 14.5410938,28.1108789 L2.17910156,20.5037695 C1.62076172,20.1626367 1.62011719,19.6880273 2.17910156,19.3464844 L3.57257813,18.4949414 L13.6224609,24.6792188 C14.4642188,25.1935547 15.5175586,25.2010547 16.3736133,24.6778711 L26.4268945,18.4945313 L27.8208984,19.3464844 C28.0882031,19.5097852 28.2414258,19.7206641 28.2414258,19.9250977 C28.2414258,20.1295312 28.0881445,20.3404688 27.8187891,20.5050586 Z" id="Shape"></path>
                    </g>
                </g>
            </g>
        </g>
    </g>
</svg>