<?xml version="1.0" encoding="UTF-8"?>
<svg width="30px" height="20px" viewBox="0 0 30 20" version="1.1" xmlns="http://www.w3.org/2000/svg" xmlns:xlink="http://www.w3.org/1999/xlink">
    <!-- Generator: Sketch 52 (66869) - http://www.bohemiancoding.com/sketch -->
    <title>eye (1)</title>
    <desc>Created with Sketch.</desc>
    <g id="***********Symbols***********" stroke="none" stroke-width="1" fill="none" fill-rule="evenodd">
        <g id="click/droit/supprimer-notification" transform="translate(-26.000000, -39.000000)" fill="#000000" fill-rule="nonzero">
            <g id="Voir-projet">
                <g transform="translate(26.000000, 30.000000)">
                    <g id="eye-(1)" transform="translate(0.000000, 9.000000)">
                        <path d="M29.8093647,9.25552696 C29.5413561,8.87752719 23.1556147,0 14.9998682,0 C6.84412161,0 0.45808728,8.87752719 0.190371651,9.25516449 C-0.0634572172,9.6137719 -0.0634572172,10.1001513 0.190371651,10.4587588 C0.45808728,10.8367585 6.84412161,19.7142857 14.9998682,19.7142857 C23.1556147,19.7142857 29.5413561,10.8366981 29.8093647,10.4590608 C30.0635451,10.1005138 30.0635451,9.6137719 29.8093647,9.25552696 Z M14.9998682,17.6748873 C8.99229197,17.6748873 3.78909313,11.7826943 2.24883471,9.85644812 C3.78710094,7.92851036 8.97940131,2.03939845 14.9998682,2.03939845 C21.0071514,2.03939845 26.2099987,7.93056438 27.7509016,9.8578376 C26.2126354,11.7857149 21.020335,17.6748873 14.9998682,17.6748873 Z" id="Shape"></path>
                        <path d="M15,5.14285714 C12.400591,5.14285714 10.2857143,7.25773389 10.2857143,9.85714286 C10.2857143,12.4565518 12.400591,14.5714286 15,14.5714286 C17.599409,14.5714286 19.7142857,12.4565518 19.7142857,9.85714286 C19.7142857,7.25773389 17.599409,5.14285714 15,5.14285714 Z" id="Shape"></path>
                    </g>
                </g>
            </g>
        </g>
    </g>
</svg>