<svg width="25" height="25" viewBox="0 0 25 25" fill="none" xmlns="http://www.w3.org/2000/svg">
<path d="M16.504 15.3076L16.5044 15.3079C16.6012 15.3804 16.6196 15.5165 16.5484 15.6111L16.5454 15.6152C16.5047 15.67 16.443 15.7005 16.372 15.7005C16.3264 15.7005 16.2821 15.687 16.242 15.6569L16.242 15.6569L12.369 12.7521L12.3675 12.751C12.3147 12.7116 12.2817 12.6476 12.2817 12.5775V6.76807C12.2817 6.64683 12.3788 6.5498 12.5 6.5498C12.6212 6.5498 12.7183 6.64683 12.7183 6.76807V12.0934V12.4684L13.0183 12.6934L16.504 15.3076Z" fill="#888888" stroke="#888888" stroke-width="1.5"/>
<path d="M0.75 12.5C0.75 6.02129 6.02129 0.75 12.5 0.75C18.9787 0.75 24.25 6.02129 24.25 12.5C24.25 18.9787 18.9787 24.25 12.5 24.25C6.02129 24.25 0.75 18.9787 0.75 12.5ZM1.18647 12.5C1.18647 18.7382 6.26181 23.8135 12.5 23.8135C18.7382 23.8135 23.8135 18.7382 23.8135 12.5C23.8135 6.26186 18.7392 1.18647 12.5 1.18647C6.26181 1.18647 1.18647 6.26181 1.18647 12.5Z" fill="#888888" stroke="#888888" stroke-width="1.5"/>
</svg>
