<?xml version="1.0" encoding="utf-8"?>
<!-- Generator: Adobe Illustrator 23.0.2, SVG Export Plug-In . SVG Version: 6.00 Build 0)  -->
<svg version="1.1" id="Calque_1" xmlns="http://www.w3.org/2000/svg" xmlns:xlink="http://www.w3.org/1999/xlink" x="0px" y="0px"
	 viewBox="0 0 32 32" style="enable-background:new 0 0 32 32;" xml:space="preserve">
<style type="text/css">
	.st0{fill:none;}
</style>
<title>search</title>
<desc>Created with Sketch.</desc>
<g>
	<path class="st0" d="M21.3,12.9c0-4.6-3.8-8.4-8.4-8.4c-4.6,0-8.4,3.8-8.4,8.4c0,4.6,3.8,8.4,8.4,8.4
		C17.5,21.3,21.3,17.5,21.3,12.9z"/>
	<path d="M31.3,28.2l-7.9-7.9c1.5-2.2,2.3-4.7,2.3-7.4C25.8,5.8,20,0,12.9,0C5.8,0,0,5.8,0,12.9C0,20,5.8,25.8,12.9,25.8
		c2.6,0,5.2-0.8,7.4-2.3l7.9,7.9c0.4,0.4,1,0.7,1.6,0.7c0.6,0,1.2-0.2,1.6-0.7C32.2,30.5,32.2,29,31.3,28.2z M12.9,21.3
		c-4.6,0-8.4-3.8-8.4-8.4c0-4.6,3.8-8.4,8.4-8.4c4.6,0,8.4,3.8,8.4,8.4C21.3,17.5,17.5,21.3,12.9,21.3z"/>
</g>
</svg>
