<?xml version="1.0" encoding="UTF-8"?>
<svg width="34px" height="25px" viewBox="0 0 34 25" version="1.1" xmlns="http://www.w3.org/2000/svg" xmlns:xlink="http://www.w3.org/1999/xlink">
    <!-- Generator: Sketch 52 (66869) - http://www.bohemiancoding.com/sketch -->
    <title>Group 3</title>
    <desc>Created with Sketch.</desc>
    <defs>
        <linearGradient x1="100%" y1="-35.3618862%" x2="21.1707826%" y2="100%" id="linearGradient-1">
            <stop stop-color="#4F00B5" offset="0%"></stop>
            <stop stop-color="#7D2A86" offset="100%"></stop>
        </linearGradient>
    </defs>
    <g id="***********Symbols***********" stroke="none" stroke-width="1" fill="none" fill-rule="evenodd">
        <g id="search/bar/planning/search" transform="translate(-2875.000000, -48.000000)" stroke="url(#linearGradient-1)">
            <g id="SEARCH-BAR-PLANNING">
                <g id="FILTRES" transform="translate(1910.000000, 25.000000)">
                    <g id="DROP-DOWN-TÂCHES" transform="translate(940.000000, 0.000000)">
                        <g id="Group-3" transform="translate(25.000000, 23.000000)">
                            <g id="tick-(1)" transform="translate(10.483871, 12.096774)" fill="url(#linearGradient-1)" fill-rule="nonzero" stroke-width="1.37686861">
                                <path d="M7.56806087,0.0955932018 C7.44235835,-0.0318644006 7.23818457,-0.0318644006 7.11248204,0.0955932018 L2.55406839,4.72205489 L0.549855714,2.70332589 C0.424153192,2.57586829 0.219979413,2.57586829 0.0942768912,2.70332589 C-0.0314256304,2.83078349 -0.0314256304,3.03711633 0.0942768912,3.16424878 L2.32722042,5.41310053 C2.45165,5.5389324 2.65868789,5.5389324 2.78311748,5.41310053 L7.56803435,0.556516092 C7.69408162,0.429383636 7.69408162,0.222725657 7.56806087,0.0955932018 C7.44235835,-0.0318644006 7.69408162,0.222725657 7.56806087,0.0955932018 Z" id="Check"></path>
                            </g>
                            <rect id="Rectangle" stroke-width="2.06530291" x="1.03265146" y="5.87136113" width="26.1605035" height="18.0959874" rx="4.13060582"></rect>
                            <path d="M5.87136113,4.13060582 L5.87136113,5.87136113 L4.13060582,5.87136113 C2.41965287,5.87136113 1.03265146,7.25836255 1.03265146,8.9693155 L1.03265146,20.8693942 C1.03265146,22.5803471 2.41965287,23.9673485 4.13060582,23.9673485 L24.0952006,23.9673485 C25.8061536,23.9673485 27.193155,22.5803471 27.193155,20.8693942 L27.193155,19.1286389 L28.9339103,19.1286389 C30.6448633,19.1286389 32.0318647,17.7416375 32.0318647,16.0306845 L32.0318647,4.13060582 C32.0318647,2.41965287 30.6448633,1.03265146 28.9339103,1.03265146 L8.9693155,1.03265146 C7.25836255,1.03265146 5.87136113,2.41965287 5.87136113,4.13060582 Z" id="Combined-Shape" stroke-width="2.06530291"></path>
                        </g>
                    </g>
                </g>
            </g>
        </g>
    </g>
</svg>