<?xml version="1.0" encoding="utf-8"?>
<!-- Generator: Adobe Illustrator 23.0.2, SVG Export Plug-In . SVG Version: 6.00 Build 0)  -->
<svg version="1.1" id="Calque_1" xmlns="http://www.w3.org/2000/svg" xmlns:xlink="http://www.w3.org/1999/xlink" x="0px" y="0px"
	 viewBox="0 0 32 32" style="enable-background:new 0 0 32 32;" xml:space="preserve">
<style type="text/css">
	.st0{fill:none;}
	.st1{fill:#888888;}
</style>
<g>
	<path class="st0" d="M9.5,17c0.3,0,0.6-0.1,0.8-0.2c0.4-0.2,0.7-0.7,0.7-1.2c0-0.2-0.1-0.4-0.1-0.7l-0.1-0.2
		C10.5,14.3,10,14,9.5,14c-0.6,0-1.1,0.4-1.4,0.9c0,0.3-0.1,0.5-0.1,0.6C8,16.3,8.7,17,9.5,17z"/>
	<path class="st0" d="M13,15.4c0,0.1,0,0.1,0,0.2c0,0.7-0.2,1.3-0.5,1.9l3.4,1.8c0.6-0.7,1.4-1.1,2.3-1.2l0.6-2.3
		c-0.4-0.2-0.7-0.5-1-0.9L13,15.4z"/>
	<path class="st0" d="M28.7,13.9l-4.9-0.4c-0.4,1.3-1.5,2.3-3,2.4l-0.7,2.4c1.1,0.6,1.9,1.8,1.9,3.1c0,0.8-0.2,1.5-0.7,2.1l3.1,4.2
		L28.7,13.9z"/>
	<path class="st0" d="M21.6,28.9h1.1l-3-4.1c-0.4,0.1-0.8,0.2-1.2,0.2c-0.9,0-1.8-0.3-2.4-0.9l-6.5,4.8h1.6h2.1h2.1h2.1h2.1
		C19.6,28.9,21.6,28.9,21.6,28.9z"/>
	<path class="st0" d="M17.1,22l0.1,0.2l0.3,0.4c0.4,0.5,1.3,0.6,2,0.1c0.2-0.2,0.6-0.6,0.6-1.2c0-0.8-0.5-1.3-1.2-1.5h-0.3
		c-0.7,0-1.2,0.5-1.4,0.9l0,0c-0.1,0.2-0.1,0.4-0.1,0.6C17,21.7,17,21.9,17.1,22z"/>
	<path class="st0" d="M15.1,22.4C15,22.1,15,21.8,15,21.5c0-0.1,0-0.3,0-0.4l-4.3-2.3C10.4,18.9,9.9,19,9.5,19c-2,0-3.5-1.5-3.5-3.5
		c0-0.1,0-0.1,0-0.2l-3.4-1l4.6,13.9L15.1,22.4z"/>
	<path class="st0" d="M3.1,12.4l3.6,1C7.4,12.5,8.4,12,9.5,12s2.2,0.5,2.8,1.4l4.8-0.7c0-0.1,0-0.1,0-0.2c0-2,1.5-3.5,3.5-3.5
		c1.6,0,2.9,1,3.3,2.5l3.4,0.3L15.6,3.3L3.1,12.4z"/>
	<path class="st0" d="M19.3,13.5c0.1,0.2,0.3,0.4,0.6,0.5h0.6c0.8,0,1.5-0.7,1.5-1.5c0-0.9-0.5-1.4-1.4-1.4c-0.8,0-1.5,0.7-1.5,1.5
		c0,0.1,0,0.4,0.1,0.7L19.3,13.5z"/>
	<path class="st1" d="M25.7,30.2L31.3,13c0.2-0.4,0-0.9-0.3-1.1L16.3,1.2c-0.4-0.3-0.8-0.3-1.2,0L0.4,11.9C0,12.2-0.1,12.6,0,13
		l5.6,17.2c0.1,0.4,0.5,0.7,1,0.7h2h2.1h2.1h2.1H17h2h2.1h2.1h1.5C25.1,30.9,25.5,30.6,25.7,30.2z M24.4,27.7l-3.1-4.2
		c0.5-0.6,0.7-1.3,0.7-2.1c0-1.4-0.7-2.5-1.9-3.1l0.7-2.4c1.4-0.1,2.6-1.1,3-2.4l4.9,0.4L24.4,27.7z M8,15.5c0-0.1,0.1-0.3,0.1-0.6
		C8.4,14.4,8.9,14,9.5,14c0.5,0,1,0.3,1.3,0.7l0.1,0.2c0.1,0.3,0.1,0.4,0.1,0.7c0,0.5-0.3,1-0.7,1.2C10.1,16.9,9.8,17,9.5,17
		C8.7,17,8,16.3,8,15.5z M18.8,15.7L18.1,18c-0.9,0.1-1.8,0.5-2.3,1.2l-3.4-1.8c0.3-0.5,0.5-1.2,0.5-1.9c0-0.1,0-0.1,0-0.2l4.8-0.7
		C18.1,15.1,18.4,15.5,18.8,15.7z M17,21.5c0-0.1,0.1-0.4,0.1-0.6l0,0c0.1-0.4,0.6-0.9,1.4-0.9h0.3c0.7,0.2,1.2,0.7,1.2,1.5
		c0,0.6-0.4,1-0.6,1.2c-0.6,0.5-1.5,0.3-2-0.1l-0.3-0.4V22C17,21.9,17,21.7,17,21.5z M20.6,11.1c0.9,0,1.4,0.5,1.4,1.4
		c0,0.8-0.7,1.5-1.5,1.5h-0.6c-0.2-0.1-0.4-0.3-0.6-0.5l-0.1-0.2c-0.1-0.3-0.1-0.6-0.1-0.7C19.1,11.8,19.8,11.1,20.6,11.1z
		 M15.6,3.3l11.6,8.5l-3.4-0.3C23.4,10,22.1,9,20.5,9c-2,0-3.5,1.5-3.5,3.5c0,0.1,0,0.1,0,0.2l-4.8,0.7c-0.7-0.9-1.7-1.4-2.8-1.4
		s-2.1,0.5-2.8,1.4l-3.6-1L15.6,3.3z M2.6,14.4l3.4,1c0,0.1,0,0.1,0,0.2c0,2,1.5,3.5,3.5,3.5c0.4,0,0.9-0.1,1.2-0.2l4.3,2.3
		c0,0.1,0,0.3,0,0.4c0,0.3,0,0.6,0.1,0.9l-7.9,5.9L2.6,14.4z M19.6,28.9h-2.1h-2.1h-2.1h-2.1H9.6l6.5-4.8c0.6,0.6,1.5,0.9,2.4,0.9
		c0.4,0,0.8-0.1,1.2-0.2l3,4.1h-1.1C21.6,28.9,19.6,28.9,19.6,28.9z"/>
</g>
</svg>
