<?xml version="1.0" encoding="utf-8"?>
<!-- Generator: Adobe Illustrator 23.0.2, SVG Export Plug-In . SVG Version: 6.00 Build 0)  -->
<svg version="1.1" id="Calque_1" xmlns="http://www.w3.org/2000/svg" xmlns:xlink="http://www.w3.org/1999/xlink" x="0px" y="0px"
	 viewBox="0 0 32 32" style="enable-background:new 0 0 32 32;" xml:space="preserve">
<style type="text/css">
	.st0{fill:url(#Shape_1_);stroke:url(#Shape_2_);}
	.st1{fill:url(#Path_1_);stroke:url(#Path_2_);}
	.st2{fill:url(#SVGID_1_);stroke:url(#SVGID_2_);}
</style>
<g>
	<g transform="translate(-2154.000000, -47.000000)">
		<g id="FILTRES">
			<g transform="translate(1190.000000, 25.000000)">
				<g id="DROP-DOWN-METIERS" transform="translate(940.000000, 0.000000)">
					<g id="work" transform="translate(25.000000, 23.000000)">
						
							<linearGradient id="Shape_1_" gradientUnits="userSpaceOnUse" x1="-271.6282" y1="417.577" x2="-272.4165" y2="416.2234" gradientTransform="matrix(29.9766 0 0 -21.2334 8172.4741 8865.2959)">
							<stop  offset="0" style="stop-color:#4F00B5"/>
							<stop  offset="1" style="stop-color:#7D2A86"/>
						</linearGradient>
						
							<linearGradient id="Shape_2_" gradientUnits="userSpaceOnUse" x1="-271.6282" y1="417.577" x2="-272.4165" y2="416.2234" gradientTransform="matrix(29.9766 0 0 -21.2334 8172.4741 8865.2959)">
							<stop  offset="0" style="stop-color:#4F00B5"/>
							<stop  offset="1" style="stop-color:#7D2A86"/>
						</linearGradient>
						<path id="Shape" class="st0" d="M26.9,27.5H3.2c-1.7,0-3.1-1.4-3.1-3.1v-15c0-1.7,1.4-3.1,3.1-3.1h23.7c1.7,0,3.1,1.4,3.1,3.1
							v15C30.1,26.1,28.7,27.5,26.9,27.5z M3.2,7.5c-1,0-1.9,0.9-1.9,1.9v15c0,1,0.9,1.9,1.9,1.9h23.7c1,0,1.9-0.9,1.9-1.9v-15
							c0-1-0.9-1.9-1.9-1.9H3.2z"/>
						
							<linearGradient id="Path_1_" gradientUnits="userSpaceOnUse" x1="-252.8489" y1="355.263" x2="-253.6372" y2="353.9094" gradientTransform="matrix(9.9922 0 0 -4.9961 2546.8687 1775.7466)">
							<stop  offset="0" style="stop-color:#4F00B5"/>
							<stop  offset="1" style="stop-color:#7D2A86"/>
						</linearGradient>
						
							<linearGradient id="Path_2_" gradientUnits="userSpaceOnUse" x1="-252.8489" y1="355.263" x2="-253.6372" y2="353.9094" gradientTransform="matrix(9.9922 0 0 -4.9961 2546.8687 1775.7466)">
							<stop  offset="0" style="stop-color:#4F00B5"/>
							<stop  offset="1" style="stop-color:#7D2A86"/>
						</linearGradient>
						<path id="Path" class="st1" d="M19.4,7.5c-0.4,0-0.6-0.2-0.6-0.6V4.4c0-0.4-0.2-0.6-0.6-0.6h-6.2c-0.4,0-0.6,0.2-0.6,0.6v2.5
							c0,0.4-0.2,0.6-0.6,0.6s-0.6-0.2-0.6-0.6V4.4c0-1,0.9-1.9,1.9-1.9h6.2c1,0,1.9,0.9,1.9,1.9v2.5C20.1,7.2,19.8,7.5,19.4,7.5z"
							/>
						
							<linearGradient id="SVGID_1_" gradientUnits="userSpaceOnUse" x1="-271.7886" y1="372.1608" x2="-272.5769" y2="370.8071" gradientTransform="matrix(29.9317 0 0 -6.292 8159.7949 2349.9446)">
							<stop  offset="0" style="stop-color:#4F00B5"/>
							<stop  offset="1" style="stop-color:#7D2A86"/>
						</linearGradient>
						
							<linearGradient id="SVGID_2_" gradientUnits="userSpaceOnUse" x1="-271.7886" y1="372.1608" x2="-272.5769" y2="370.8071" gradientTransform="matrix(29.9317 0 0 -6.292 8159.7949 2349.9446)">
							<stop  offset="0" style="stop-color:#4F00B5"/>
							<stop  offset="1" style="stop-color:#7D2A86"/>
						</linearGradient>
						<path class="st2" d="M15.1,17.5c-0.1,0-0.1,0-0.2,0l-14.4-5C0.2,12.4,0,12,0.1,11.6c0.1-0.2,0.5-0.5,0.9-0.4l14.1,5l14.1-5
							c0.4-0.1,0.6,0,0.7,0.4s0,0.6-0.4,0.7l-14.4,5C15.2,17.5,15.2,17.5,15.1,17.5z"/>
					</g>
				</g>
			</g>
		</g>
	</g>
</g>
</svg>
