<?xml version="1.0" encoding="utf-8"?>
<!-- Generator: Adobe Illustrator 23.0.2, SVG Export Plug-In . SVG Version: 6.00 Build 0)  -->
<svg version="1.1" id="Calque_1" xmlns="http://www.w3.org/2000/svg" xmlns:xlink="http://www.w3.org/1999/xlink" x="0px" y="0px"
	 viewBox="0 0 27 27" style="enable-background:new 0 0 27 27;" xml:space="preserve">
<style type="text/css">
	.st0{fill:#020202;}
</style>
<title>pencil</title>
<desc>Created with Sketch.</desc>
<g>
	<g transform="translate(-39.000000, -24.000000)">
		<g id="button-add-task">
			<g id="pencil" transform="translate(40.000000, 25.000000)">
				<path id="Shape" class="st0" d="M24.2,3L22,0.8c-1-1-2.7-1-3.8,0c-1,1-15.9,15.9-16.9,16.9c-0.1,0.1-0.2,0.2-0.2,0.4L0,24.1
					c0,0.2,0,0.5,0.2,0.7C0.4,25,0.6,25,0.9,25L7,23.9c0.1,0,0.3-0.1,0.4-0.2L24.2,6.8C25.3,5.8,25.3,4.1,24.2,3z M1.6,23.4l0.7-3.7
					l3,3L1.6,23.4z M6.8,22.1l-3.9-3.9L17.3,3.7l3.9,3.9L6.8,22.1z M23.2,5.8l-0.9,0.9l-3.9-3.9l0.9-0.9c0.5-0.5,1.2-0.5,1.7,0
					l2.3,2.3C23.7,4.5,23.7,5.3,23.2,5.8z"/>
			</g>
		</g>
	</g>
</g>
</svg>
