<?xml version="1.0" encoding="UTF-8"?>
<svg width="222px" height="71px" viewBox="0 0 222 71" version="1.1" xmlns="http://www.w3.org/2000/svg" xmlns:xlink="http://www.w3.org/1999/xlink">
    <title>KOLAB LOGO</title>
    <defs>
        <linearGradient x1="94.5028662%" y1="-85.6974267%" x2="34.3979061%" y2="132.541019%" id="linearGradient-1">
            <stop stop-color="#FF00CC" offset="0%"></stop>
            <stop stop-color="#333399" offset="100%"></stop>
        </linearGradient>
        <rect id="path-2" x="9" y="12.752" width="14.592" height="30.72" rx="7.296"></rect>
        <filter x="-37.7%" y="-11.4%" width="175.4%" height="135.8%" filterUnits="objectBoundingBox" id="filter-3">
            <feOffset dx="0" dy="2" in="SourceAlpha" result="shadowOffsetOuter1"></feOffset>
            <feGaussianBlur stdDeviation="1.5" in="shadowOffsetOuter1" result="shadowBlurOuter1"></feGaussianBlur>
            <feColorMatrix values="0 0 0 0 0   0 0 0 0 0   0 0 0 0 0  0 0 0 0.0172093531 0" type="matrix" in="shadowBlurOuter1"></feColorMatrix>
        </filter>
        <rect id="path-4" x="9.768" y="22.736" width="14.592" height="30.72" rx="7.296"></rect>
        <filter x="-37.7%" y="-11.4%" width="175.4%" height="135.8%" filterUnits="objectBoundingBox" id="filter-5">
            <feMorphology radius="1" operator="dilate" in="SourceAlpha" result="shadowSpreadOuter1"></feMorphology>
            <feOffset dx="0" dy="2" in="shadowSpreadOuter1" result="shadowOffsetOuter1"></feOffset>
            <feGaussianBlur stdDeviation="0.5" in="shadowOffsetOuter1" result="shadowBlurOuter1"></feGaussianBlur>
            <feColorMatrix values="0 0 0 0 0   0 0 0 0 0   0 0 0 0 0  0 0 0 0.0401551573 0" type="matrix" in="shadowBlurOuter1"></feColorMatrix>
        </filter>
    </defs>
    <g id="Login-/-Dashboard" stroke="none" stroke-width="1" fill="none" fill-rule="evenodd">
        <g id="Login-Copy" transform="translate(-2446.000000, -212.000000)">
            <g id="KOLAB-LOGO" transform="translate(2451.000000, 212.000000)">
                <g id="Logo" transform="translate(0.448000, 9.080221)">
                    <rect id="Rectangle-Copy" fill="url(#linearGradient-1)" transform="translate(16.296000, 17.360000) rotate(40.000000) translate(-16.296000, -17.360000) " x="9" y="2" width="14.592" height="30.72" rx="7.296"></rect>
                    <g id="Rectangle-Copy-2" transform="translate(16.296000, 28.112000) rotate(40.000000) translate(-16.296000, -28.112000) ">
                        <use fill="black" fill-opacity="1" filter="url(#filter-3)" xlink:href="#path-2"></use>
                        <use fill="url(#linearGradient-1)" fill-rule="evenodd" xlink:href="#path-2"></use>
                    </g>
                    <g id="Rectangle-Copy-3" transform="translate(17.064000, 38.096000) rotate(40.000000) translate(-17.064000, -38.096000) ">
                        <use fill="black" fill-opacity="1" filter="url(#filter-5)" xlink:href="#path-4"></use>
                        <use fill="url(#linearGradient-1)" fill-rule="evenodd" xlink:href="#path-4"></use>
                    </g>
                </g>
                <path d="M126.849722,0.4768 C128.923322,0.4768 130.612922,2.1664 130.612922,4.24 L130.612922,4.24 L130.612922,54.2368 C130.612922,56.3872 128.923322,58.0768 126.849722,58.0768 C124.699322,58.0768 123.009722,56.3872 123.009722,54.2368 L123.009722,54.2368 L123.009722,4.24 C123.009722,2.1664 124.699322,0.4768 126.849722,0.4768 Z M99.3553221,19.4464 C110.030522,19.4464 118.632122,28.048 118.632122,38.7232 C118.632122,49.3216 110.030522,58 99.3553221,58 C88.7569221,58 80.0785221,49.3216 80.0785221,38.7232 C80.0785221,28.048 88.7569221,19.4464 99.3553221,19.4464 Z M154.344122,19.6 C165.172922,19.6 173.236922,28.2016 173.236922,39.0304 L173.236922,39.0304 L173.236922,54.0832 C173.236922,56.3104 171.624122,57.9232 169.396922,57.9232 C167.860922,57.9232 165.710522,56.3104 165.710522,54.0832 C162.408122,56.848 158.721722,57.9232 154.344122,57.9232 C143.515322,57.9232 134.913722,49.8592 134.913722,39.0304 C134.913722,28.2016 143.515322,19.6 154.344122,19.6 Z M181.531322,0.3232 C183.604922,0.3232 185.294522,2.0128 185.294522,4.0864 L185.294522,4.0864 L185.294522,23.2096 C188.520122,20.752 192.590522,19.2928 196.968122,19.2928 C207.643322,19.2928 216.244922,27.8944 216.244922,38.5696 C216.244922,49.168 207.643322,57.8464 196.968122,57.8464 C186.369722,57.8464 177.691322,49.168 177.691322,38.5696 L177.691322,38.5696 L177.691322,4.0864 C177.691322,2.0128 179.380922,0.3232 181.531322,0.3232 Z M71.6305221,0.4768 C73.7041221,0.4768 75.3937221,2.1664 75.3937221,4.24 L75.3937221,54.0064 C75.3937221,56.1568 73.7041221,57.8464 71.6305221,57.8464 C69.5569221,57.8464 67.7905221,56.1568 67.7905221,54.0064 L67.7905221,40.5664 L65.4097221,38.9536 L50.8177221,56.464 C50.1265221,57.3856 49.0513221,57.8464 47.8993221,57.8464 C47.0545221,57.8464 46.2097221,57.5392 45.5185221,56.9248 C43.9057221,55.6192 43.6753221,53.2384 44.9809221,51.6256 L58.9585221,34.8064 L45.5185221,25.9744 C43.9057221,24.6688 43.6753221,22.2112 44.9809221,20.5984 C46.3633221,18.9856 48.7441221,18.832 50.3569221,20.1376 L67.7905221,31.5808 L67.7905221,4.24 C67.7905221,2.1664 69.5569221,0.4768 71.6305221,0.4768 Z M99.3553221,27.0496 C92.9041221,27.0496 87.6817221,32.272 87.6817221,38.7232 C87.6817221,45.0976 92.9041221,50.3968 99.3553221,50.3968 C105.806522,50.3968 111.028922,45.0976 111.028922,38.7232 C111.028922,32.272 105.806522,27.0496 99.3553221,27.0496 Z M154.344122,27.1264 C147.892922,27.1264 142.440122,32.5792 142.440122,39.0304 C142.440122,45.4816 147.892922,50.3968 154.344122,50.3968 C160.795322,50.3968 165.710522,45.4816 165.710522,39.0304 C165.710522,32.5792 160.795322,27.1264 154.344122,27.1264 Z M196.968122,26.896 C190.516922,26.896 185.294522,32.1184 185.294522,38.4928 L185.294522,38.4928 L185.294522,38.5696 C185.294522,45.0208 190.516922,50.2432 196.968122,50.2432 C203.419322,50.2432 208.641722,44.944 208.641722,38.5696 C208.641722,32.1184 203.419322,26.896 196.968122,26.896 Z" id="Kolab" fill="#000000"></path>
            </g>
        </g>
    </g>
</svg>