<svg width="18" height="19" viewBox="0 0 18 19" fill="none" xmlns="http://www.w3.org/2000/svg">
<path fill-rule="evenodd" clip-rule="evenodd" d="M16.5 18.3125H1.5C1.10218 18.3125 0.720666 18.1545 0.439362 17.8732C0.158057 17.5919 0 17.2103 0 16.8125V4.8125C0 4.41468 0.158057 4.03314 0.439362 3.75184C0.720666 3.47053 1.10218 3.3125 1.5 3.3125H5.25V1.8125C5.25 1.41468 5.40806 1.03314 5.68936 0.751839C5.97067 0.470534 6.35218 0.3125 6.75 0.3125H11.25C11.6478 0.3125 12.0293 0.470534 12.3106 0.751839C12.5919 1.03314 12.75 1.41468 12.75 1.8125V3.3125H16.5C16.8978 3.3125 17.2793 3.47053 17.5606 3.75184C17.8419 4.03314 18 4.41468 18 4.8125V16.8125C18 17.2103 17.8419 17.5919 17.5606 17.8732C17.2793 18.1545 16.8978 18.3125 16.5 18.3125ZM11.25 1.8125H6.75V3.3125H11.25V1.8125ZM16.5 11.5625H12.75C12.75 11.9603 12.5919 12.3419 12.3106 12.6232C12.0293 12.9045 11.6478 13.0625 11.25 13.0625H6.75C6.35218 13.0625 5.97067 12.9045 5.68936 12.6232C5.40806 12.3419 5.25 11.9603 5.25 11.5625H1.5V10.0625H5.25C5.25 9.66468 5.40806 9.28314 5.68936 9.00184C5.97067 8.72053 6.35218 8.5625 6.75 8.5625H11.25C11.6478 8.5625 12.0293 8.72053 12.3106 9.00184C12.5919 9.28314 12.75 9.66468 12.75 10.0625H16.5V4.8125H1.5V16.8125H16.5V11.5625ZM11.25 10.8125C11.25 10.6136 11.171 10.4228 11.0304 10.2822C10.8897 10.1415 10.6989 10.0625 10.5 10.0625H7.5C7.30109 10.0625 7.11029 10.1415 6.96964 10.2822C6.82898 10.4228 6.75 10.6136 6.75 10.8125C6.75 11.0114 6.82898 11.2022 6.96964 11.3428C7.11029 11.4835 7.30109 11.5625 7.5 11.5625H10.5C10.6989 11.5625 10.8897 11.4835 11.0304 11.3428C11.171 11.2022 11.25 11.0114 11.25 10.8125Z" fill="white"/>
</svg>
