<svg width="16" height="17" viewBox="0 0 16 17" fill="none" xmlns="http://www.w3.org/2000/svg">
<path fill-rule="evenodd" clip-rule="evenodd" d="M8.3083 0.104969L15.7837 5.79652C15.9676 5.93648 16.0445 6.1846 15.9743 6.41105L13.1189 15.6202C13.0487 15.8467 12.8473 16 12.6201 16H3.37991C3.15265 16 2.95128 15.8466 2.88105 15.6202L0.0256973 6.41105C-0.0445002 6.1846 0.0324085 5.93648 0.216252 5.79652L7.69167 0.104969C7.87557 -0.0349895 8.12443 -0.0349895 8.3083 0.104969ZM3.7605 14.9021H12.2385L14.8584 6.45258L7.99951 1.23047L1.14064 6.45258L3.7605 14.9021Z" fill="#AF9DE2"/>
<path d="M11.721 6.30226L11.7578 5.80362L11.2818 5.76848L11.2246 6.24234L11.721 6.30226ZM10.6257 7.45723L10.5568 6.96201L10.2291 7.00763L10.143 7.32714L10.6257 7.45723ZM15.083 6.5504L15.0462 7.04905L15.5449 7.08585L15.5817 6.58721L15.083 6.5504ZM15.1051 6.25122L15.6038 6.28802L15.6406 5.78938L15.1419 5.75257L15.1051 6.25122ZM11.7251 6.00174L11.2273 6.04803L11.2664 6.46925L11.6883 6.50039L11.7251 6.00174ZM9.24252 6.54301L9.31654 7.0375L9.8912 6.95147L9.72044 6.39607L9.24252 6.54301ZM5.93457 7.03822L5.50277 7.29031L5.67357 7.58287L6.0086 7.53271L5.93457 7.03822ZM3.72598 7.09613L3.58747 7.57656L3.98076 7.68994L4.16959 7.3268L3.72598 7.09613ZM0.806005 6.25431L0.944512 5.77387L0.464079 5.63537L0.325572 6.1158L0.806005 6.25431ZM0.7229 6.54257L0.242467 6.40406L0.10396 6.88449L0.584393 7.023L0.7229 6.54257ZM3.61745 7.37706L4.10086 7.50481L4.22579 7.03208L3.75596 6.89662L3.61745 7.37706ZM5.33603 8.96835L5.58265 8.5334L5.36517 8.41009L5.13604 8.51009L5.33603 8.96835ZM8.20347 10.5942L8.68783 10.7183L8.78273 10.3479L8.45009 10.1593L8.20347 10.5942ZM8.24423 11.4201L8.55119 11.8148L8.83923 11.5908L8.71373 11.2482L8.24423 11.4201ZM3.47923 15.1261L3.17227 14.7314L2.77759 15.0383L3.08455 15.433L3.47923 15.1261ZM3.66341 15.3629L3.26873 15.6698L3.57569 16.0645L3.97037 15.7576L3.66341 15.3629ZM8.38111 11.6937L8.80009 11.4209L8.50335 10.9653L8.07415 11.2991L8.38111 11.6937ZM10.0813 12.0933L10.4887 11.8035L10.2172 11.4217L9.81858 11.6679L10.0813 12.0933ZM12.3846 15.3309L11.9772 15.6207L12.267 16.0281L12.6745 15.7383L12.3846 15.3309ZM12.6291 15.157L12.9189 15.5644L13.3263 15.2745L13.0365 14.8671L12.6291 15.157ZM10.3166 11.9065L9.96242 11.5536L9.66458 11.8525L9.9092 12.1964L10.3166 11.9065ZM10.0085 9.74799L9.52569 9.6179L9.42181 10.0034L9.77474 10.19L10.0085 9.74799ZM9.17641 9.63294L9.28188 10.1217L9.57987 10.0574L9.65919 9.76304L9.17641 9.63294ZM8.31096 10.3103L8.06434 10.7452L8.51805 11.0025L8.75593 10.5383L8.31096 10.3103ZM9.80927 7.28437L10.292 7.41446L10.3889 7.05493L10.0722 6.8591L9.80927 7.28437ZM9.36708 6.8277L9.79919 6.57615L9.62853 6.28299L9.29305 6.33322L9.36708 6.8277ZM6.05951 7.32286L5.98548 6.82837L5.41017 6.9145L5.58176 7.47035L6.05951 7.32286ZM5.62865 8.7894L5.31262 8.40194L4.74628 8.86387L5.38204 9.22435L5.62865 8.7894ZM10.4563 7.66893C11.2776 7.66893 11.9312 6.97433 11.9312 6.1329H10.9312C10.9312 6.46262 10.6856 6.66893 10.4563 6.66893V7.66893ZM8.98133 6.1329C8.98133 6.97433 9.63489 7.66893 10.4563 7.66893V6.66893C10.2269 6.66893 9.98133 6.46263 9.98133 6.1329H8.98133ZM10.4563 4.59688C9.63489 4.59688 8.98133 5.29148 8.98133 6.1329H9.98133C9.98133 5.80318 10.2269 5.59688 10.4563 5.59688V4.59688ZM11.9312 6.1329C11.9312 5.29148 11.2776 4.59688 10.4563 4.59688V5.59688C10.6856 5.59688 10.9312 5.80318 10.9312 6.1329H11.9312ZM11.2246 6.24234C11.1777 6.63131 10.889 6.91576 10.5568 6.96201L10.6947 7.95246C11.5048 7.83968 12.1196 7.17259 12.2174 6.36218L11.2246 6.24234ZM15.1198 6.05176L11.7578 5.80362L11.6842 6.8009L15.0462 7.04905L15.1198 6.05176ZM14.6065 6.21441L14.5844 6.5136L15.5817 6.58721L15.6038 6.28802L14.6065 6.21441ZM11.6883 6.50039L15.0683 6.74986L15.1419 5.75257L11.7619 5.5031L11.6883 6.50039ZM10.4563 5.29688C10.8386 5.29688 11.1862 5.60704 11.2273 6.04803L12.223 5.95545C12.1382 5.04383 11.3977 4.29688 10.4563 4.29688V5.29688ZM9.68133 6.1329C9.68133 5.64886 10.0501 5.29688 10.4563 5.29688V4.29688C9.45419 4.29688 8.68133 5.14121 8.68133 6.1329H9.68133ZM9.72044 6.39607C9.69523 6.31409 9.68133 6.22578 9.68133 6.1329H8.68133C8.68133 6.32616 8.71034 6.51349 8.7646 6.68995L9.72044 6.39607ZM6.0086 7.53271L9.31654 7.0375L9.16849 6.04852L5.86054 6.54373L6.0086 7.53271ZM4.84624 6.89844C5.11438 6.89844 5.36067 7.0469 5.50277 7.29031L6.36637 6.78614C6.06044 6.2621 5.49949 5.89844 4.84624 5.89844V6.89844ZM4.16959 7.3268C4.30724 7.06208 4.56514 6.89844 4.84624 6.89844V5.89844C4.16035 5.89844 3.57698 6.29888 3.28237 6.86546L4.16959 7.3268ZM0.667498 6.73474L3.58747 7.57656L3.86449 6.61569L0.944512 5.77387L0.667498 6.73474ZM1.20333 6.68107L1.28644 6.39281L0.325572 6.1158L0.242467 6.40406L1.20333 6.68107ZM3.75596 6.89662L0.861408 6.06213L0.584393 7.023L3.47895 7.85749L3.75596 6.89662ZM4.07132 7.73447C4.07132 7.65407 4.08174 7.57714 4.10086 7.50481L3.13405 7.2493C3.09303 7.40449 3.07132 7.56729 3.07132 7.73447H4.07132ZM4.84624 8.5705C4.44007 8.5705 4.07132 8.21851 4.07132 7.73447H3.07132C3.07132 8.72616 3.84418 9.5705 4.84624 9.5705V8.5705ZM5.13604 8.51009C5.04673 8.54906 4.94924 8.5705 4.84624 8.5705V9.5705C5.09033 9.5705 5.32374 9.51926 5.53602 9.42661L5.13604 8.51009ZM8.45009 10.1593L5.58265 8.5334L5.08941 9.4033L7.95686 11.0291L8.45009 10.1593ZM8.65997 10.9415C8.65997 10.8635 8.66979 10.7887 8.68783 10.7183L7.71912 10.4701C7.68042 10.6212 7.65997 10.7793 7.65997 10.9415H8.65997ZM8.71373 11.2482C8.67928 11.1541 8.65997 11.0509 8.65997 10.9415H7.65997C7.65997 11.1694 7.70032 11.389 7.77474 11.5921L8.71373 11.2482ZM3.78619 15.5207L8.55119 11.8148L7.93727 11.0255L3.17227 14.7314L3.78619 15.5207ZM4.05809 15.0559L3.87392 14.8191L3.08455 15.433L3.26873 15.6698L4.05809 15.0559ZM8.07415 11.2991L3.35645 14.9682L3.97037 15.7576L8.68807 12.0884L8.07415 11.2991ZM9.43489 11.7775C9.17972 11.7775 8.94506 11.6434 8.80009 11.4209L7.96214 11.9666C8.27625 12.4489 8.81426 12.7775 9.43489 12.7775V11.7775ZM9.81858 11.6679C9.70477 11.7382 9.57428 11.7775 9.43489 11.7775V12.7775C9.76737 12.7775 10.0788 12.6825 10.3441 12.5187L9.81858 11.6679ZM12.792 15.041L10.4887 11.8035L9.67391 12.3831L11.9772 15.6207L12.792 15.041ZM12.3392 14.7495L12.0948 14.9235L12.6745 15.7383L12.9189 15.5644L12.3392 14.7495ZM9.9092 12.1964L12.2217 15.4468L13.0365 14.8671L10.724 11.6167L9.9092 12.1964ZM10.2098 10.9415C10.2098 11.1867 10.1127 11.4028 9.96242 11.5536L10.6708 12.2594C11.0052 11.9238 11.2098 11.455 11.2098 10.9415H10.2098ZM9.77474 10.19C10.0256 10.3226 10.2098 10.6035 10.2098 10.9415H11.2098C11.2098 10.2361 10.8234 9.61332 10.2422 9.30598L9.77474 10.19ZM10.143 7.32714L9.52569 9.6179L10.4912 9.87808L11.1085 7.58732L10.143 7.32714ZM9.07094 9.14419C8.54044 9.25867 8.10583 9.61425 7.86599 10.0822L8.75593 10.5383C8.86779 10.32 9.0627 10.169 9.28188 10.1217L9.07094 9.14419ZM9.32649 7.15427L8.69363 9.50285L9.65919 9.76304L10.292 7.41446L9.32649 7.15427ZM8.93496 7.07926C9.08449 7.33612 9.29408 7.55366 9.5463 7.70963L10.0722 6.8591C9.96288 6.79148 9.86815 6.6946 9.79919 6.57615L8.93496 7.07926ZM6.13354 7.81735L9.4411 7.32219L9.29305 6.33322L5.98548 6.82837L6.13354 7.81735ZM6.62116 7.73447C6.62116 7.54046 6.59192 7.35243 6.53727 7.17538L5.58176 7.47035C5.60715 7.5526 5.62116 7.64123 5.62116 7.73447H6.62116ZM5.94468 9.17686C6.35977 8.83829 6.62116 8.31487 6.62116 7.73447H5.62116C5.62116 8.01172 5.49696 8.25159 5.31262 8.40194L5.94468 9.17686ZM8.55758 9.87533L5.87527 8.35445L5.38204 9.22435L8.06434 10.7452L8.55758 9.87533ZM4.84624 9.2705C5.6676 9.2705 6.32116 8.5759 6.32116 7.73447H5.32116C5.32116 8.06419 5.07559 8.2705 4.84624 8.2705V9.2705ZM3.37132 7.73447C3.37132 8.5759 4.02489 9.2705 4.84624 9.2705V8.2705C4.61689 8.2705 4.37132 8.06419 4.37132 7.73447H3.37132ZM4.84624 6.19844C4.02489 6.19844 3.37132 6.89304 3.37132 7.73447H4.37132C4.37132 7.40475 4.61689 7.19844 4.84624 7.19844V6.19844ZM6.32116 7.73447C6.32116 6.89304 5.6676 6.19844 4.84624 6.19844V7.19844C5.07559 7.19844 5.32116 7.40475 5.32116 7.73447H6.32116ZM9.90981 10.9415C9.90981 11.2712 9.66424 11.4775 9.43489 11.4775V12.4775C10.2562 12.4775 10.9098 11.7829 10.9098 10.9415H9.90981ZM9.43489 10.4055C9.66424 10.4055 9.90981 10.6118 9.90981 10.9415H10.9098C10.9098 10.1001 10.2562 9.40547 9.43489 9.40547V10.4055ZM8.95997 10.9415C8.95997 10.6118 9.20554 10.4055 9.43489 10.4055V9.40547C8.61354 9.40547 7.95997 10.1001 7.95997 10.9415H8.95997ZM9.43489 11.4775C9.20554 11.4775 8.95997 11.2712 8.95997 10.9415H7.95997C7.95997 11.7829 8.61354 12.4775 9.43489 12.4775V11.4775Z" fill="#AF9DE2"/>
</svg>
