<svg width="14" height="14" viewBox="0 0 14 14" fill="none" xmlns="http://www.w3.org/2000/svg">
<path fill-rule="evenodd" clip-rule="evenodd" d="M9.84772 9.023L13.8289 13.0042C14.057 13.2323 14.057 13.601 13.8289 13.8291C13.7152 13.9428 13.5659 14 13.4165 14C13.2672 14 13.1179 13.9428 13.0041 13.8291L9.0229 9.84782C8.07034 10.619 6.85992 11.0833 5.54162 11.0833C2.48615 11.0833 0 8.59715 0 5.54165C0 2.48615 2.48612 0 5.54159 0C8.59705 0 11.0832 2.48618 11.0832 5.54168C11.0832 6.86 10.6189 8.07043 9.84772 9.023ZM1.14062 5.53649C1.14062 7.96039 3.11208 9.93184 5.53597 9.93184C7.95984 9.93184 9.93132 7.96039 9.93132 5.53649C9.93132 3.1126 7.95987 1.14115 5.53597 1.14115C3.11208 1.14115 1.14062 3.1126 1.14062 5.53649Z" fill="#AF9DE2"/>
</svg>
