<svg width="22" height="15" viewBox="0 0 22 15" fill="none" xmlns="http://www.w3.org/2000/svg">
<path d="M18.834 6.80933L6.66051 1.48525L8.18909 6.80933H18.8342H18.834ZM8.18887 7.90701L6.66029 13.1761L18.8337 7.90701H8.18865H8.18887ZM6.05986 0.0581847L21.6725 6.86393C22.1092 7.02859 22.1092 7.63229 21.6725 7.8519L6.05986 14.603C5.67769 14.8226 5.18637 14.4383 5.29565 13.9993L7.20627 7.35817L5.29565 0.717051C5.1865 0.277986 5.62319 -0.161174 6.05986 0.0584059V0.0581847Z" fill="#AE9DE2"/>
<path d="M3.60297 11.0469C3.87588 11.0469 4.14891 11.3213 4.14891 11.5958C4.14891 11.9251 3.876 12.1447 3.60297 12.1447H0.545941C0.218395 12.1447 0 11.9251 0 11.5958C0 11.3214 0.218402 11.0469 0.545941 11.0469H3.60297Z" fill="#AE9DE2"/>
<path d="M4.42161 6.79688C4.74916 6.79688 4.96755 7.01646 4.96755 7.34578C4.96755 7.62017 4.74915 7.89468 4.42161 7.89468H1.41911C1.09156 7.89468 0.873169 7.62029 0.873169 7.34578C0.873169 7.01646 1.09157 6.79688 1.41911 6.79688H4.42161Z" fill="#AE9DE2"/>
<path d="M3.60297 2.51953C3.87588 2.51953 4.14891 2.73912 4.14891 3.06843C4.14891 3.39776 3.876 3.61734 3.60297 3.61734H0.545941C0.218395 3.61734 0 3.39775 0 3.06843C0 2.73911 0.218402 2.51953 0.545941 2.51953H3.60297Z" fill="#AE9DE2"/>
</svg>
