<svg width="28" height="24" viewBox="0 0 28 24" fill="none" xmlns="http://www.w3.org/2000/svg">
<path d="M1.46437 23.2692H6.79257C7.59983 23.2692 8.2567 22.6361 8.2567 21.8574V21.8497L13.356 23.4774C14.1172 23.7207 14.9021 23.8412 15.6845 23.8412C16.7743 23.8412 17.8593 23.6069 18.8702 23.1424L26.8444 19.3822C27.3387 19.1492 27.7089 18.7444 27.8878 18.2425C28.0659 17.7403 28.0312 17.2016 27.7892 16.725C27.2905 15.7436 26.056 15.3358 25.0367 15.8139L20.4813 17.9567C20.2567 17.0596 19.4192 16.3905 18.4208 16.3905L15.2331 16.3903L14.1073 15.8112C13.0383 15.2618 11.8336 14.9714 10.6232 14.9714H8.25668V14.9369C8.25668 14.1587 7.60003 13.5254 6.79255 13.5254H1.46435C0.65665 13.5258 0 14.1589 0 14.9371V21.8574C0 22.6361 0.65665 23.2694 1.46435 23.2694L1.46437 23.2692ZM10.623 16.1711C11.6302 16.1711 12.6325 16.4127 13.5212 16.8696L14.7859 17.5201C14.7937 17.5241 14.8018 17.5251 14.8096 17.5289C14.8363 17.5412 14.8643 17.5511 14.8929 17.5598C14.9101 17.5649 14.9268 17.5716 14.9439 17.5751C14.9725 17.5812 15.0025 17.5833 15.0327 17.5854C15.0479 17.5866 15.0628 17.5908 15.078 17.5908C15.0802 17.5908 15.0824 17.59 15.085 17.59L18.4202 17.5898C18.9039 17.5898 19.2975 17.9695 19.2975 18.4379C19.2975 18.9042 18.9037 19.2838 18.4202 19.2838H13.7534C13.4099 19.2838 13.1312 19.5526 13.1312 19.8836C13.1312 20.2147 13.4101 20.4834 13.7534 20.4834L18.4202 20.4836C19.2396 20.4836 19.9507 20.0325 20.3038 19.3745L25.5819 16.8922C25.9851 16.7027 26.4738 16.864 26.6712 17.2527C26.7671 17.441 26.7808 17.6544 26.7101 17.8531C26.6395 18.0517 26.4928 18.2115 26.2973 18.304L18.3286 22.0616C16.8886 22.7236 15.2608 22.8211 13.7467 22.3384L8.25639 20.5858V16.171L10.623 16.1711ZM1.24438 14.9369C1.24438 14.82 1.3429 14.7252 1.46442 14.7252H6.79262C6.91393 14.7252 7.01223 14.82 7.01223 14.9369V21.8572C7.01223 21.9741 6.91393 22.0693 6.79262 22.0693H1.46442C1.34312 22.0693 1.24438 21.9744 1.24438 21.8574V14.9369Z" fill="#AE9DE2"/>
<path fill-rule="evenodd" clip-rule="evenodd" d="M22.1463 7.43339L22.3787 7.57544C22.9991 7.9546 22.9992 8.72777 22.3787 9.10693L17.8229 11.909C17.5064 12.1025 17.1182 12.0984 16.8091 11.9095L12.254 9.10639C11.635 8.72812 11.6341 7.95477 12.2548 7.57542L12.4872 7.43339L12.254 7.28986C11.6338 6.91089 11.6365 6.26627 12.2548 5.88839L12.4872 5.74636L12.254 5.60285C11.6361 5.22527 11.6342 4.32503 12.2548 3.94579L16.8083 1.14371L16.8091 1.1432C17.1216 0.952268 17.5097 0.952268 17.8221 1.1432L22.3795 3.94626C22.9973 4.3238 22.9995 5.22401 22.3787 5.60337L22.1463 5.74634L22.3787 5.88839C22.9992 6.26759 22.9978 6.91204 22.3787 7.29042L22.1463 7.43339ZM17.1474 1.69465L12.5932 4.49714C12.3849 4.62441 12.3862 4.9242 12.5924 5.05019L17.1476 7.8533C17.2509 7.91641 17.3802 7.91643 17.4844 7.85278L22.0402 5.05068C22.2484 4.92347 22.2471 4.62364 22.041 4.49768L17.4836 1.69461C17.3805 1.63161 17.2515 1.63146 17.1474 1.69465ZM12.4374 6.58978C12.4377 6.57892 12.4663 6.51835 12.5923 6.4413L13.1058 6.12749L16.809 8.40633C17.1188 8.5956 17.5069 8.59886 17.8228 8.40584L21.5273 6.12736L22.041 6.44128C22.167 6.51833 22.1956 6.5789 22.1959 6.58973C22.1956 6.60066 22.167 6.66122 22.0402 6.73875L17.4844 9.54085C17.3802 9.6045 17.2508 9.60448 17.1476 9.54137L12.5924 6.73826C12.4663 6.66118 12.4377 6.60064 12.4374 6.58978ZM17.4845 11.357L22.0404 8.55489C22.1396 8.49424 22.1961 8.41652 22.1961 8.34119C22.1961 8.26585 22.1396 8.18815 22.0411 8.12797L21.5275 7.81404L17.823 10.0925C17.5075 10.2853 17.1194 10.2825 16.8092 10.093L13.106 7.81419L12.5925 8.12797C12.3865 8.25383 12.3868 8.42871 12.5925 8.55442L17.1477 11.3575C17.251 11.4206 17.3804 11.4207 17.4845 11.357Z" fill="#AE9DE2"/>
<path d="M22.3787 7.57544L22.457 7.44745L22.457 7.44745L22.3787 7.57544ZM22.1463 7.43339L22.0677 7.30563L21.8593 7.43381L22.0681 7.56139L22.1463 7.43339ZM22.3787 9.10693L22.3005 8.97894L22.3002 8.97916L22.3787 9.10693ZM17.8229 11.909L17.9011 12.037L17.9015 12.0368L17.8229 11.909ZM16.8091 11.9095L16.7305 12.0372L16.7309 12.0375L16.8091 11.9095ZM12.254 9.10639L12.3326 8.97864L12.3322 8.9784L12.254 9.10639ZM12.2548 7.57542L12.1766 7.44743L12.1766 7.44743L12.2548 7.57542ZM12.4872 7.43339L12.5654 7.56139L12.7741 7.43384L12.5658 7.30564L12.4872 7.43339ZM12.254 7.28986L12.3326 7.16211L12.3322 7.16187L12.254 7.28986ZM12.2548 5.88839L12.1766 5.7604L12.1766 5.7604L12.2548 5.88839ZM12.4872 5.74636L12.5654 5.87436L12.7741 5.7468L12.5658 5.61861L12.4872 5.74636ZM12.254 5.60285L12.3326 5.47509L12.3322 5.47486L12.254 5.60285ZM12.2548 3.94579L12.333 4.07378L12.3334 4.07354L12.2548 3.94579ZM16.8083 1.14371L16.8869 1.27146L16.8869 1.27145L16.8083 1.14371ZM16.8091 1.1432L16.7309 1.0152L16.7305 1.01547L16.8091 1.1432ZM17.8221 1.1432L17.9007 1.01543L17.9004 1.0152L17.8221 1.1432ZM22.3795 3.94626L22.3009 4.07403L22.3013 4.07425L22.3795 3.94626ZM22.3787 5.60337L22.3005 5.47538L22.3002 5.4756L22.3787 5.60337ZM22.1463 5.74634L22.0677 5.61858L21.8593 5.74676L22.0681 5.87434L22.1463 5.74634ZM22.3787 5.88839L22.457 5.7604L22.457 5.7604L22.3787 5.88839ZM22.3787 7.29042L22.3005 7.16243L22.3002 7.16265L22.3787 7.29042ZM12.5932 4.49714L12.6714 4.62513L12.6718 4.62489L12.5932 4.49714ZM17.1474 1.69465L17.0695 1.56645L17.0688 1.5669L17.1474 1.69465ZM12.5924 5.05019L12.671 4.92244L12.6706 4.92219L12.5924 5.05019ZM17.1476 7.8533L17.069 7.98105L17.0694 7.98129L17.1476 7.8533ZM17.4844 7.85278L17.5626 7.98078L17.563 7.98055L17.4844 7.85278ZM22.0402 5.05068L21.962 4.92269L21.9616 4.92292L22.0402 5.05068ZM22.041 4.49768L21.9624 4.62544L21.9628 4.62567L22.041 4.49768ZM17.4836 1.69461L17.5621 1.56684L17.5618 1.56662L17.4836 1.69461ZM12.5923 6.4413L12.6706 6.56929L12.6706 6.56929L12.5923 6.4413ZM12.4374 6.58978L12.2872 6.5853L12.2875 6.59425L12.4374 6.58978ZM13.1058 6.12749L13.1844 5.99974L13.1061 5.95153L13.0276 5.9995L13.1058 6.12749ZM16.809 8.40633L16.7304 8.53408L16.7308 8.53433L16.809 8.40633ZM17.8228 8.40584L17.901 8.53383L17.9014 8.5336L17.8228 8.40584ZM21.5273 6.12736L21.6055 5.99937L21.527 5.95142L21.4487 5.9996L21.5273 6.12736ZM22.041 6.44128L22.1192 6.31328L22.1192 6.31328L22.041 6.44128ZM22.1959 6.58973L22.3461 6.59418L22.3458 6.58526L22.1959 6.58973ZM22.0402 6.73875L21.9619 6.61076L21.9616 6.61099L22.0402 6.73875ZM17.4844 9.54085L17.5626 9.66885L17.5629 9.66862L17.4844 9.54085ZM17.1476 9.54137L17.0689 9.66912L17.0693 9.66936L17.1476 9.54137ZM12.5924 6.73826L12.671 6.61051L12.6706 6.61027L12.5924 6.73826ZM22.0404 8.55489L21.9621 8.4269L21.9618 8.42712L22.0404 8.55489ZM17.4845 11.357L17.5627 11.485L17.5631 11.4848L17.4845 11.357ZM22.0411 8.12797L21.9629 8.25596L21.9629 8.25598L22.0411 8.12797ZM21.5275 7.81404L21.6057 7.68605L21.5272 7.63809L21.4489 7.68627L21.5275 7.81404ZM17.823 10.0925L17.9012 10.2205L17.9016 10.2203L17.823 10.0925ZM16.8092 10.093L16.7306 10.2208L16.731 10.221L16.8092 10.093ZM13.106 7.81419L13.1846 7.68644L13.1062 7.63824L13.0278 7.6862L13.106 7.81419ZM12.5925 8.12797L12.6707 8.25597L12.6707 8.25597L12.5925 8.12797ZM12.5925 8.55442L12.6711 8.42667L12.6707 8.42642L12.5925 8.55442ZM17.1477 11.3575L17.0691 11.4853L17.0695 11.4855L17.1477 11.3575ZM22.457 7.44745L22.2245 7.3054L22.0681 7.56139L22.3005 7.70343L22.457 7.44745ZM22.457 9.23492C22.8076 9.02065 22.9941 8.68624 22.994 8.34118C22.994 7.99613 22.8076 7.66173 22.457 7.44745L22.3005 7.70343C22.5703 7.86832 22.694 8.11008 22.694 8.34119C22.6941 8.5723 22.5703 8.81405 22.3005 8.97894L22.457 9.23492ZM17.9015 12.0368L22.4573 9.2347L22.3002 8.97916L17.7443 11.7813L17.9015 12.0368ZM16.7309 12.0375C17.0875 12.2554 17.536 12.2601 17.9011 12.037L17.7447 11.781C17.4767 11.9448 17.1489 11.9413 16.8874 11.7815L16.7309 12.0375ZM12.1753 9.23414L16.7305 12.0372L16.8878 11.7817L12.3326 8.97864L12.1753 9.23414ZM12.1766 7.44743C11.8258 7.66182 11.6395 7.99634 11.6395 8.34131C11.6395 8.68624 11.8258 9.02051 12.1757 9.23438L12.3322 8.9784C12.0632 8.814 11.9395 8.57245 11.9395 8.3413C11.9395 8.1102 12.0631 7.86837 12.333 7.70341L12.1766 7.44743ZM12.409 7.3054L12.1766 7.44743L12.333 7.70341L12.5654 7.56139L12.409 7.3054ZM12.1753 7.41761L12.4086 7.56114L12.5658 7.30564L12.3326 7.16211L12.1753 7.41761ZM12.1766 5.7604C11.836 5.96853 11.6405 6.26683 11.64 6.58846C11.6394 6.91028 11.8341 7.20907 12.1757 7.41785L12.3322 7.16187C12.0537 6.99168 11.9396 6.77868 11.94 6.58897C11.9403 6.39909 12.0553 6.18613 12.333 6.01638L12.1766 5.7604ZM12.409 5.61837L12.1766 5.7604L12.333 6.01638L12.5654 5.87436L12.409 5.61837ZM12.1753 5.7306L12.4086 5.87412L12.5658 5.61861L12.3326 5.47509L12.1753 5.7306ZM12.1766 3.8178C11.4602 4.25561 11.4623 5.29485 12.1757 5.73084L12.3322 5.47486C11.8099 5.15569 11.8083 4.39446 12.333 4.07378L12.1766 3.8178ZM16.7297 1.01596L12.1762 3.81804L12.3334 4.07354L16.8869 1.27146L16.7297 1.01596ZM16.7305 1.01547L16.7297 1.01598L16.8869 1.27145L16.8878 1.27093L16.7305 1.01547ZM17.9004 1.0152C17.5399 0.794933 17.0914 0.794931 16.7309 1.01521L16.8874 1.27119C17.1518 1.10961 17.4795 1.1096 17.7439 1.27119L17.9004 1.0152ZM22.4581 3.8185L17.9007 1.01543L17.7436 1.27096L22.3009 4.07403L22.4581 3.8185ZM22.457 5.73136C23.1736 5.29341 23.1711 4.25419 22.4577 3.81827L22.3013 4.07425C22.8235 4.39341 22.8254 5.15462 22.3005 5.47538L22.457 5.73136ZM22.2249 5.87411L22.4573 5.73113L22.3002 5.4756L22.0677 5.61858L22.2249 5.87411ZM22.457 5.7604L22.2245 5.61835L22.0681 5.87434L22.3005 6.01638L22.457 5.7604ZM22.457 7.41841C22.7979 7.21003 22.9934 6.9116 22.9936 6.58981C22.9938 6.26794 22.7986 5.96922 22.457 5.7604L22.3005 6.01638C22.5793 6.18676 22.6937 6.39986 22.6936 6.58961C22.6935 6.77944 22.5787 6.99243 22.3005 7.16243L22.457 7.41841ZM22.2249 7.56116L22.4573 7.41818L22.3002 7.16265L22.0677 7.30563L22.2249 7.56116ZM12.6718 4.62489L17.226 1.8224L17.0688 1.5669L12.5146 4.36939L12.6718 4.62489ZM12.6706 4.92219C12.56 4.85459 12.559 4.69381 12.6714 4.62513L12.515 4.36914C12.2108 4.55502 12.2125 4.99382 12.5142 5.17819L12.6706 4.92219ZM17.2262 7.72555L12.671 4.92244L12.5138 5.17794L17.069 7.98105L17.2262 7.72555ZM17.4062 7.72478C17.3498 7.75923 17.2809 7.75894 17.2258 7.72531L17.0694 7.98129C17.2209 8.07388 17.4106 8.07363 17.5626 7.98078L17.4062 7.72478ZM21.9616 4.92292L17.4058 7.72501L17.563 7.98055L22.1188 5.17845L21.9616 4.92292ZM21.9628 4.62567C22.0734 4.69325 22.0743 4.85407 21.962 4.92269L22.1184 5.17868C22.4224 4.99287 22.4209 4.55403 22.1192 4.36968L21.9628 4.62567ZM17.405 1.82238L21.9624 4.62544L22.1196 4.36991L17.5621 1.56684L17.405 1.82238ZM17.2253 1.82285C17.2816 1.78866 17.3504 1.78901 17.4053 1.8226L17.5618 1.56662C17.4106 1.47421 17.2213 1.47425 17.0695 1.56646L17.2253 1.82285ZM12.5141 6.31331C12.4408 6.35814 12.3897 6.40185 12.355 6.44141C12.3377 6.4611 12.3237 6.48067 12.313 6.49975C12.3077 6.50921 12.3026 6.51977 12.2984 6.53118C12.2953 6.53943 12.2882 6.55963 12.2875 6.58531L12.5873 6.59425C12.5869 6.60753 12.5848 6.61763 12.5835 6.62263C12.5821 6.62838 12.5806 6.63282 12.5796 6.6357C12.5774 6.64142 12.5756 6.64487 12.575 6.64592C12.5737 6.64818 12.5748 6.64576 12.5804 6.63932C12.5916 6.62661 12.6178 6.60151 12.6706 6.56929L12.5141 6.31331ZM13.0276 5.9995L12.5141 6.31331L12.6706 6.56929L13.184 6.25548L13.0276 5.9995ZM16.8876 8.27858L13.1844 5.99974L13.0272 6.25524L16.7304 8.53408L16.8876 8.27858ZM17.7446 8.27784C17.4771 8.44128 17.1494 8.43851 16.8872 8.27834L16.7308 8.53433C17.0882 8.75269 17.5367 8.75644 17.901 8.53383L17.7446 8.27784ZM21.4487 5.9996L17.7442 8.27807L17.9014 8.5336L21.6059 6.25513L21.4487 5.9996ZM22.1192 6.31328L21.6055 5.99937L21.4491 6.25536L21.9627 6.56927L22.1192 6.31328ZM22.3458 6.58526C22.3451 6.55956 22.338 6.53934 22.3349 6.53111C22.3307 6.51971 22.3256 6.50915 22.3203 6.4997C22.3096 6.48063 22.2956 6.46106 22.2783 6.44138C22.2436 6.40182 22.1925 6.35812 22.1192 6.31328L21.9627 6.56927C22.0155 6.60148 22.0417 6.62659 22.0529 6.6393C22.0585 6.64574 22.0596 6.64816 22.0583 6.64591C22.0577 6.64486 22.0559 6.64141 22.0537 6.63569C22.0527 6.63282 22.0512 6.62838 22.0498 6.62262C22.0485 6.61763 22.0464 6.60751 22.046 6.59421L22.3458 6.58526ZM22.1184 6.86675C22.1921 6.82172 22.2433 6.77794 22.2781 6.73833C22.2955 6.71861 22.3096 6.699 22.3202 6.67987C22.3255 6.67038 22.3307 6.65978 22.3349 6.64833C22.338 6.64 22.3451 6.61981 22.3458 6.59417L22.046 6.5853C22.0464 6.57207 22.0485 6.56199 22.0497 6.55697C22.0511 6.5512 22.0526 6.54675 22.0537 6.54386C22.0559 6.53811 22.0577 6.53464 22.0583 6.53358C22.0596 6.5313 22.0585 6.53373 22.0529 6.54021C22.0416 6.55299 22.0151 6.57826 21.9619 6.61076L22.1184 6.86675ZM17.5629 9.66862L22.1187 6.86652L21.9616 6.61099L17.4058 9.41308L17.5629 9.66862ZM17.0693 9.66936C17.2208 9.76195 17.4106 9.7617 17.5626 9.66885L17.4062 9.41285C17.3498 9.4473 17.2808 9.44701 17.2258 9.41338L17.0693 9.66936ZM12.5138 6.86601L17.0689 9.66912L17.2262 9.41362L12.671 6.61051L12.5138 6.86601ZM12.2875 6.59425C12.2882 6.61993 12.2953 6.64013 12.2984 6.64838C12.3026 6.6598 12.3077 6.67036 12.313 6.67982C12.3237 6.6989 12.3377 6.71847 12.355 6.73815C12.3897 6.7777 12.4408 6.8214 12.5141 6.86625L12.6706 6.61027C12.6179 6.57804 12.5916 6.55292 12.5804 6.54022C12.5748 6.53378 12.5737 6.53136 12.575 6.53362C12.5756 6.53467 12.5774 6.53812 12.5796 6.54384C12.5806 6.54672 12.5821 6.55116 12.5835 6.55692C12.5848 6.56192 12.5869 6.57203 12.5873 6.58531L12.2875 6.59425ZM21.9618 8.42712L17.4059 11.2292L17.5631 11.4848L22.1189 8.68266L21.9618 8.42712ZM22.0461 8.34119C22.0461 8.34119 22.0461 8.34157 22.0459 8.34238C22.0458 8.34321 22.0455 8.3446 22.0447 8.34657C22.0433 8.35057 22.0403 8.35691 22.0342 8.36525C22.0217 8.38234 21.999 8.4044 21.9621 8.4269L22.1186 8.68289C22.2369 8.61058 22.3461 8.49297 22.3461 8.34119H22.0461ZM21.9629 8.25598C21.9993 8.27817 22.0218 8.30005 22.0342 8.31708C22.0402 8.32538 22.0433 8.33172 22.0447 8.33574C22.0455 8.33773 22.0458 8.33913 22.0459 8.33996C22.0461 8.34079 22.0461 8.34117 22.0461 8.34119H22.3461C22.3461 8.18957 22.2371 8.07194 22.1193 7.99997L21.9629 8.25598ZM21.4492 7.94203L21.9629 8.25596L22.1194 7.99998L21.6057 7.68605L21.4492 7.94203ZM17.9016 10.2203L21.606 7.94181L21.4489 7.68627L17.7444 9.96475L17.9016 10.2203ZM16.731 10.221C17.0889 10.4397 17.5374 10.4428 17.9012 10.2205L17.7448 9.96452C17.4777 10.1278 17.1499 10.1254 16.8874 9.96501L16.731 10.221ZM13.0274 7.94194L16.7306 10.2208L16.8878 9.96526L13.1846 7.68644L13.0274 7.94194ZM12.6707 8.25597L13.1842 7.94219L13.0278 7.6862L12.5143 7.99998L12.6707 8.25597ZM12.6707 8.42642C12.5891 8.37656 12.5881 8.34165 12.5881 8.34119C12.5881 8.34079 12.589 8.30588 12.6707 8.25597L12.5143 7.99998C12.39 8.07592 12.288 8.19138 12.2881 8.34131C12.2882 8.49119 12.3902 8.60657 12.5143 8.68242L12.6707 8.42642ZM17.2263 11.2298L12.6711 8.42667L12.5139 8.68217L17.0691 11.4853L17.2263 11.2298ZM17.4063 11.229C17.35 11.2634 17.281 11.2632 17.2259 11.2295L17.0695 11.4855C17.221 11.5781 17.4108 11.5779 17.5627 11.485L17.4063 11.229Z" fill="#AE9DE2"/>
</svg>
