<svg width="16" height="16" viewBox="0 0 16 16" fill="none" xmlns="http://www.w3.org/2000/svg">
<path fill-rule="evenodd" clip-rule="evenodd" d="M14.5455 16H1.45455C0.654545 16 0 15.3455 0 14.5455V1.45455C0 0.654545 0.654545 0 1.45455 0H14.5455C15.3455 0 16 0.654545 16 1.45455V14.5455C16 15.3455 15.3455 16 14.5455 16ZM14.5455 2.18182C14.5455 1.78182 14.2182 1.45455 13.8182 1.45455H2.18182C1.78182 1.45455 1.45455 1.78182 1.45455 2.18182V13.8182C1.45455 14.2182 1.78182 14.5455 2.18182 14.5455H13.8182C14.2182 14.5455 14.5455 14.2182 14.5455 13.8182V2.18182ZM8 11.6364C7.6 11.6364 7.27273 11.3091 7.27273 10.9091V7.27273C7.27273 6.87273 7.6 6.54545 8 6.54545C8.4 6.54545 8.72727 6.87273 8.72727 7.27273V10.9091C8.72727 11.3091 8.4 11.6364 8 11.6364ZM8 5.81818C7.6 5.81818 7.27273 5.49091 7.27273 5.09091C7.27273 4.69091 7.6 4.36364 8 4.36364C8.4 4.36364 8.72727 4.69091 8.72727 5.09091C8.72727 5.49091 8.4 5.81818 8 5.81818Z" fill="white"/>
</svg>
