<svg width="15" height="17" viewBox="0 0 15 17" fill="none" xmlns="http://www.w3.org/2000/svg">
<path d="M14.1365 1.50063C13.1316 1.20186 12.1111 0.971237 11.0749 0.819234C10.9964 0.808751 10.9179 0.798268 10.8394 0.787785C10.7609 0.777302 10.6824 0.766819 10.5986 0.756336C10.4678 0.740612 10.3369 0.724887 10.2061 0.709163C9.9706 0.682955 9.74032 0.661989 9.50481 0.646264C9.39491 0.635781 9.29024 0.63054 9.18034 0.620057C8.90296 0.604332 8.62035 0.588608 8.34298 0.583366C8.23831 0.578125 8.13364 0.578125 8.02373 0.578125C7.99756 0.578125 7.97663 0.578125 7.95046 0.578125C7.81439 0.578125 7.67309 0.578125 7.53701 0.578125C7.43758 0.578125 7.33814 0.578125 7.23871 0.583366C7.15497 0.583366 7.07123 0.583366 6.9875 0.588608C6.86189 0.593849 6.74152 0.599091 6.61592 0.604333H6.57928C6.47985 0.609574 6.37518 0.614816 6.27574 0.625299C6.1763 0.63054 6.0821 0.635781 5.9879 0.646264C5.88323 0.651506 5.77332 0.661989 5.66865 0.672472C4.2399 0.808751 2.82686 1.08131 1.43998 1.49539C0.927092 1.64739 0.586914 2.10864 0.586914 2.64852V7.24531C0.586914 7.97912 0.702051 8.70245 0.921859 9.38385C1.11027 9.96565 1.36671 10.5108 1.70165 11.0244C2.14127 11.6953 2.64368 12.3348 3.1932 12.9166C4.41784 14.2113 5.86753 15.2386 7.50038 15.9724C7.53178 15.9881 7.56318 16.0039 7.59458 16.0143L7.79346 16.1034L7.99233 16.0143C8.02373 16.0039 8.05513 15.9881 8.08653 15.9724C9.71939 15.2386 11.1691 14.2113 12.3937 12.9166C12.9432 12.3348 13.4456 11.6953 13.8853 11.0244C14.2202 10.5108 14.4766 9.96041 14.6651 9.38385C14.8849 8.70245 15 7.97912 15 7.24531V2.64852C14.9895 2.11388 14.6494 1.65263 14.1365 1.50063ZM13.9952 7.25055C13.9952 7.80091 13.9219 8.34079 13.7806 8.8597C13.6184 9.43626 13.3724 9.98138 13.0479 10.4846C12.6397 11.1083 12.1739 11.6953 11.6663 12.2405C10.5882 13.3831 9.32164 14.3004 7.89813 14.9713C7.86149 14.987 7.83009 15.0027 7.79346 15.0185C7.75682 15.0027 7.72019 14.987 7.68355 14.9713C6.26004 14.3004 4.99353 13.3831 3.91543 12.2405C3.40778 11.7006 2.94199 11.1083 2.53378 10.4846C2.20407 9.98138 1.95809 9.43626 1.80109 8.8597C1.65978 8.34079 1.58651 7.80091 1.58651 7.25055V2.65376C1.58651 2.55941 1.64408 2.48079 1.73305 2.45458C2.45528 2.23968 3.18274 2.06147 3.92066 1.92519C3.98346 1.91471 4.0515 1.89898 4.1143 1.8885C4.1928 1.87278 4.27654 1.85705 4.35504 1.84657C4.58008 1.80988 4.79989 1.77843 5.02493 1.74698C5.15053 1.73125 5.27091 1.71553 5.39651 1.69981C5.50118 1.68932 5.61108 1.6736 5.72099 1.66312C5.86229 1.64739 6.0036 1.63691 6.1449 1.62643C6.27051 1.61594 6.39088 1.6107 6.51648 1.60022C6.76769 1.58449 7.01366 1.57401 7.26487 1.56877C7.39048 1.56877 7.51608 1.56353 7.64168 1.56353C7.69402 1.56353 7.74636 1.56353 7.79869 1.56353C7.85103 1.56353 7.90336 1.56353 7.9557 1.56353C8.03943 1.56353 8.12317 1.56353 8.20167 1.56353C8.30634 1.56353 8.41101 1.56877 8.51045 1.57401C8.67269 1.57925 8.83493 1.58449 8.99716 1.59498C9.10707 1.60022 9.21697 1.60546 9.33211 1.61594C9.58855 1.63167 9.84499 1.65787 10.0962 1.68408C10.227 1.69456 10.3526 1.71029 10.4782 1.73125C10.8603 1.77843 11.2423 1.83609 11.6192 1.90947C11.8704 1.95664 12.1216 2.00381 12.3728 2.06147C12.624 2.11388 12.8752 2.17678 13.1212 2.23968C13.3671 2.30258 13.6184 2.37072 13.8643 2.4441C13.9533 2.47031 14.0109 2.54893 14.0109 2.64328V7.25055H13.9952Z" fill="white"/>
<path d="M7.07646 10.4484L4.17186 7.88526C3.96775 7.70181 3.94682 7.38732 4.12476 7.1829C4.30793 6.97848 4.62194 6.95752 4.82605 7.13573L7.03459 9.08033L10.7294 5.37983C10.9231 5.18589 11.2371 5.18589 11.4307 5.37983C11.6244 5.57376 11.6244 5.88825 11.4307 6.08219L7.07646 10.4484Z" fill="white"/>
</svg>
