<svg width="15" height="15" viewBox="0 0 15 15" fill="none" xmlns="http://www.w3.org/2000/svg">
<path d="M2.34366 14.9994H4.68731V13.1244H2.34366C2.0847 13.1244 1.87497 12.9147 1.87497 12.6557V2.34366C1.87497 2.0847 2.08471 1.87497 2.34366 1.87497H4.68731V0H2.34366C1.72208 0 1.12588 0.246854 0.68644 0.68644C0.246837 1.12588 0 1.72208 0 2.34366V12.6557C0 13.2773 0.246854 13.8735 0.68644 14.313C1.12588 14.7526 1.72208 14.9994 2.34366 14.9994Z" fill="#7665A7"/>
<path d="M11.2496 3.36108L9.92298 4.68755L11.7979 6.56252H3.75V8.43749L11.7979 8.43732L9.92298 10.3123L11.2496 11.6388L14.7252 8.16315C14.9013 7.98725 15.0002 7.74873 15.0002 7.4999C15.0002 7.25107 14.9013 7.01255 14.7252 6.83665L11.2496 3.36108Z" fill="#7665A7"/>
</svg>
