<svg width="11" height="11" viewBox="0 0 11 11" fill="none" xmlns="http://www.w3.org/2000/svg">
<path fill-rule="evenodd" clip-rule="evenodd" d="M9.58203 0.859375H8.59375V0.34375C8.59375 0.153914 8.43986 0 8.25 0C8.06014 0 7.90625 0.153914 7.90625 0.34375V0.859375H3.09375V0.34375C3.09375 0.153914 2.93986 0 2.75 0C2.56014 0 2.40625 0.153914 2.40625 0.34375V0.859375H1.41797C0.636088 0.859375 0 1.49546 0 2.27734V9.58203C0 10.3639 0.636088 11 1.41797 11H9.58203C10.3639 11 11 10.3639 11 9.58203V2.27734C11 1.49546 10.3639 0.859375 9.58203 0.859375ZM1.41797 1.54688H2.40625V1.89062C2.40625 2.08046 2.56014 2.23438 2.75 2.23438C2.93986 2.23438 3.09375 2.08046 3.09375 1.89062V1.54688H7.90625V1.89062C7.90625 2.08046 8.06014 2.23438 8.25 2.23438C8.43986 2.23438 8.59375 2.08046 8.59375 1.89062V1.54688H9.58203C9.98482 1.54688 10.3125 1.87455 10.3125 2.27734V3.09375H0.6875V2.27734C0.6875 1.87455 1.01518 1.54688 1.41797 1.54688ZM1.41797 10.3125H9.58203C9.98482 10.3125 10.3125 9.98482 10.3125 9.58203V3.78125H0.6875V9.58203C0.6875 9.98482 1.01518 10.3125 1.41797 10.3125Z" fill="#7665A7"/>
</svg>
