<svg width="16" height="16" viewBox="0 0 16 16" fill="none" xmlns="http://www.w3.org/2000/svg">
<path d="M9.76418 8.14235L9.71826 7.9779C9.60886 7.58615 9.39987 7.21639 9.09164 6.90878L9.09157 6.90871C8.13656 5.95373 6.58793 5.95316 5.63298 6.90869L5.63296 6.90871L2.45232 10.0892C2.45232 10.0892 2.45231 10.0892 2.4523 10.0893C1.49727 11.0449 1.49674 12.5928 2.45228 13.5477L2.45232 13.5478C3.40727 14.5033 4.95652 14.5021 5.91026 13.5478L5.91029 13.5477L8.35528 11.1035L8.38569 11.0731L8.42868 11.0742L8.63921 11.0799C8.88926 11.0798 9.13556 11.055 9.37505 11.0074L9.69847 10.943L9.46526 11.1762L6.50166 14.139L9.76418 8.14235ZM9.76418 8.14235L9.88515 8.02185M9.76418 8.14235L9.88515 8.02185M9.88515 8.02185L10.386 7.52294L10.4328 7.47627M9.88515 8.02185L10.4328 7.47627M10.4328 7.47627L10.4082 7.4149M10.4328 7.47627L10.4082 7.4149M10.4082 7.4149C10.248 7.01506 10.0064 6.64088 9.68295 6.31741M10.4082 7.4149L9.68295 6.31741M6.23597 7.85289L6.28164 8.01787C6.39039 8.4107 6.59997 8.78173 6.90893 9.09131L6.23597 7.85289ZM6.23597 7.85289L6.11469 7.9737M6.23597 7.85289L6.11469 7.9737M6.11469 7.9737L5.61322 8.47324L5.56644 8.51985L5.59093 8.58118C5.75114 8.98236 5.99341 9.35782 6.31749 9.68255L6.31753 9.68258C6.95755 10.3232 7.79792 10.6435 8.6379 10.6435C9.47787 10.6435 10.3182 10.3232 10.9583 9.68258L14.1395 6.50208L14.1395 6.50206C15.4201 5.22085 15.4202 3.14157 14.1396 1.86096C13.4995 1.2203 12.6585 0.9 11.8192 0.9C10.9792 0.9 10.1383 1.22028 9.49822 1.86092C9.49821 1.86094 9.4982 1.86095 9.49818 1.86096L6.53521 4.82383L6.30208 5.05696L6.62543 4.99262C6.86491 4.94498 7.11121 4.92018 7.36124 4.92009L7.5718 4.92578L7.61479 4.92694L7.64521 4.89653L10.0896 2.45226L10.0896 2.45223C11.0445 1.49671 12.5932 1.49728 13.5482 2.45226L13.5482 2.45228C14.5038 3.40722 14.5038 4.95578 13.5482 5.91072L13.5482 5.91074L10.3669 9.09128L10.3669 9.09131M6.11469 7.9737L10.3669 9.09131M10.3669 9.09131C9.41314 10.0456 7.86393 10.0468 6.90898 9.09136L10.3669 9.09131ZM1.86098 9.49791L1.86096 9.49792C0.579692 10.7785 0.57968 12.8584 1.86092 14.139C2.50094 14.7797 3.34132 15.1 4.18129 15.1C5.02125 15.1 5.8616 14.7797 6.50162 14.1391L1.93167 9.56864L1.86098 9.49791ZM1.86098 9.49791L5.04158 6.31741C5.04159 6.3174 5.0416 6.31739 5.04161 6.31738C5.68164 5.67673 6.52264 5.35645 7.36258 5.35645C8.2019 5.35645 9.0429 5.67675 9.68293 6.3174C9.68294 6.3174 9.68294 6.31741 9.68295 6.31741M1.86098 9.49791L9.68295 6.31741" fill="white" stroke="white" stroke-width="0.2"/>
</svg>
