<svg width="18" height="18" viewBox="0 0 18 18" fill="none" xmlns="http://www.w3.org/2000/svg">
<path fill-rule="evenodd" clip-rule="evenodd" d="M15.5555 0.922071L17.0778 2.44457C17.7751 3.14187 17.775 4.27042 17.0778 4.96761L5.75136 16.2949C5.68134 16.365 5.58796 16.4131 5.49297 16.4309L1.38258 17.1921C1.2234 17.2216 1.05967 17.171 0.944924 17.0562C0.83031 16.9416 0.779516 16.7779 0.809014 16.6185L1.5702 12.5078C1.5872 12.4152 1.6349 12.3206 1.70611 12.2494L13.0326 0.922071C13.7282 0.226513 14.8599 0.226481 15.5555 0.922071ZM2.36905 13.607L1.90859 16.0937L4.39509 15.6332L2.36905 13.607ZM5.40397 15.2508L2.75078 12.5975L12.4374 2.91016L15.0905 5.56353L5.40397 15.2508ZM15.7864 4.86751L16.3822 4.2716C16.6948 3.95903 16.6948 3.45326 16.3822 3.14072L14.8599 1.61823C14.548 1.30641 14.0408 1.30644 13.729 1.61823L13.1332 2.21413L15.7864 4.86751Z" fill="#7665A7"/>
<path d="M17.0778 2.44457L17.0071 2.51528L17.0071 2.51528L17.0778 2.44457ZM15.5555 0.922071L15.6262 0.851364L15.6262 0.851361L15.5555 0.922071ZM17.0778 4.96761L17.0071 4.8969L17.0071 4.89691L17.0778 4.96761ZM5.75136 16.2949L5.68065 16.2242L5.68064 16.2242L5.75136 16.2949ZM5.49297 16.4309L5.51118 16.5292L5.5113 16.5292L5.49297 16.4309ZM1.38258 17.1921L1.36437 17.0938L1.36435 17.0938L1.38258 17.1921ZM0.944924 17.0562L0.874213 17.1269H0.874213L0.944924 17.0562ZM0.809014 16.6185L0.710686 16.6003L0.710685 16.6003L0.809014 16.6185ZM1.5702 12.5078L1.66853 12.526L1.66855 12.5258L1.5702 12.5078ZM1.70611 12.2494L1.77682 12.3201L1.77682 12.3201L1.70611 12.2494ZM13.0326 0.922071L12.9619 0.851359L12.9619 0.851363L13.0326 0.922071ZM1.90859 16.0937L1.81027 16.0755L1.78378 16.2185L1.9268 16.192L1.90859 16.0937ZM2.36905 13.607L2.43976 13.5363L2.30534 13.4019L2.27072 13.5888L2.36905 13.607ZM4.39509 15.6332L4.4133 15.7315L4.60022 15.6969L4.4658 15.5625L4.39509 15.6332ZM2.75078 12.5975L2.68007 12.5268L2.60936 12.5975L2.68007 12.6682L2.75078 12.5975ZM5.40397 15.2508L5.33325 15.3215L5.40397 15.3922L5.47468 15.3215L5.40397 15.2508ZM12.4374 2.91016L12.5081 2.83945L12.4374 2.76873L12.3666 2.83945L12.4374 2.91016ZM15.0905 5.56353L15.1613 5.63424L15.232 5.56353L15.1613 5.49283L15.0905 5.56353ZM16.3822 4.2716L16.3115 4.2009L16.3115 4.2009L16.3822 4.2716ZM15.7864 4.86751L15.7157 4.93822L15.7864 5.00894L15.8571 4.93822L15.7864 4.86751ZM16.3822 3.14072L16.3115 3.21143L16.3115 3.21143L16.3822 3.14072ZM14.8599 1.61823L14.9306 1.54752L14.9306 1.54751L14.8599 1.61823ZM13.729 1.61823L13.6583 1.54752L13.6583 1.54752L13.729 1.61823ZM13.1332 2.21413L13.0625 2.14342L12.9918 2.21413L13.0625 2.28484L13.1332 2.21413ZM17.1486 2.37386L15.6262 0.851364L15.4848 0.992779L17.0071 2.51528L17.1486 2.37386ZM17.1486 5.03833C17.8848 4.30208 17.8849 3.11021 17.1486 2.37386L17.0071 2.51528C17.6654 3.17352 17.6653 4.23875 17.0071 4.8969L17.1486 5.03833ZM5.82208 16.3656L17.1486 5.03832L17.0071 4.89691L5.68065 16.2242L5.82208 16.3656ZM5.5113 16.5292C5.62575 16.5078 5.73751 16.4502 5.82209 16.3656L5.68064 16.2242C5.62517 16.2797 5.55016 16.3185 5.47463 16.3326L5.5113 16.5292ZM1.40079 17.2905L5.51118 16.5292L5.47475 16.3325L1.36437 17.0938L1.40079 17.2905ZM0.874213 17.1269C1.01226 17.265 1.20927 17.326 1.4008 17.2905L1.36435 17.0938C1.23754 17.1173 1.10707 17.0769 1.01563 16.9855L0.874213 17.1269ZM0.710685 16.6003C0.675198 16.792 0.736299 16.989 0.874213 17.1269L1.01563 16.9855C0.924321 16.8942 0.883834 16.7637 0.907344 16.6367L0.710685 16.6003ZM1.47187 12.4896L0.710686 16.6003L0.907343 16.6367L1.66853 12.526L1.47187 12.4896ZM1.6354 12.1787C1.54947 12.2646 1.4924 12.3777 1.47184 12.4897L1.66855 12.5258C1.68199 12.4527 1.72034 12.3766 1.77682 12.3201L1.6354 12.1787ZM12.9619 0.851363L1.63539 12.1787L1.77682 12.3201L13.1033 0.992779L12.9619 0.851363ZM15.6262 0.851361C14.8915 0.116715 13.6965 0.116753 12.9619 0.851359L13.1033 0.992784C13.7598 0.336274 14.8282 0.336246 15.4848 0.992782L15.6262 0.851361ZM2.00692 16.1119L2.46738 13.6252L2.27072 13.5888L1.81027 16.0755L2.00692 16.1119ZM4.37688 15.5349L1.89038 15.9954L1.9268 16.192L4.4133 15.7315L4.37688 15.5349ZM2.29834 13.6777L4.32438 15.7039L4.4658 15.5625L2.43976 13.5363L2.29834 13.6777ZM2.68007 12.6682L5.33325 15.3215L5.47468 15.1801L2.82149 12.5268L2.68007 12.6682ZM12.3666 2.83945L2.68007 12.5268L2.82149 12.6682L12.5081 2.98086L12.3666 2.83945ZM15.1613 5.49283L12.5081 2.83945L12.3666 2.98086L15.0198 5.63424L15.1613 5.49283ZM5.47468 15.3215L15.1613 5.63424L15.0198 5.49283L5.33325 15.1801L5.47468 15.3215ZM16.3115 4.2009L15.7157 4.7968L15.8571 4.93822L16.4529 4.34231L16.3115 4.2009ZM16.3115 3.21143C16.585 3.48492 16.585 3.92737 16.3115 4.2009L16.4529 4.34231C16.8045 3.99069 16.8045 3.4216 16.4529 3.07001L16.3115 3.21143ZM14.7891 1.68893L16.3115 3.21143L16.4529 3.07001L14.9306 1.54752L14.7891 1.68893ZM13.7998 1.68893C14.0725 1.41621 14.5164 1.41617 14.7892 1.68894L14.9306 1.54751C14.5797 1.19664 14.0091 1.19668 13.6583 1.54752L13.7998 1.68893ZM13.2039 2.28484L13.7998 1.68893L13.6583 1.54752L13.0625 2.14342L13.2039 2.28484ZM15.8571 4.7968L13.2039 2.14342L13.0625 2.28484L15.7157 4.93822L15.8571 4.7968Z" fill="#7665A7"/>
</svg>
