<svg width="16" height="15" viewBox="0 0 16 15" fill="none" xmlns="http://www.w3.org/2000/svg">
<path fill-rule="evenodd" clip-rule="evenodd" d="M14.0557 8.73103L14.3711 8.92381C15.2131 9.43838 15.2132 10.4877 14.3711 11.0023L8.18823 14.8051C7.75861 15.0676 7.23185 15.0621 6.81239 14.8057L0.630341 11.0015C-0.209689 10.4882 -0.210919 9.43862 0.631484 8.92378L0.94689 8.73103L0.630341 8.53623C-0.211242 8.02193 -0.207667 7.14709 0.631484 6.63424L0.94689 6.44149L0.630341 6.24672C-0.208194 5.73429 -0.210685 4.51254 0.631484 3.99785L6.81125 0.195041L6.81239 0.194338C7.23639 -0.0647794 7.76315 -0.0647794 8.18718 0.194338L14.3722 3.9985C15.2106 4.51087 15.2135 5.73259 14.3711 6.24743L14.0557 6.44146L14.3711 6.63424C15.2132 7.14887 15.2113 8.02348 14.3711 8.537L14.0557 8.73103ZM7.27291 0.943045L1.09201 4.74653C0.809359 4.91927 0.811088 5.32613 1.09092 5.4971L7.27297 9.30132C7.41312 9.38697 7.58867 9.387 7.73005 9.30062L13.9129 5.49778C14.1954 5.32513 14.1937 4.91821 13.914 4.74726L7.72891 0.943103C7.58902 0.8576 7.41391 0.857395 7.27274 0.943162L7.27291 0.943045ZM0.880534 7.58394C0.880973 7.5692 0.919711 7.48701 1.09083 7.38243L1.78767 6.95656L6.81348 10.0493C7.23385 10.3061 7.76064 10.3106 8.1893 10.0486L13.2168 6.95638L13.9139 7.3824C14.0851 7.48698 14.1238 7.56917 14.1242 7.58388C14.1238 7.59871 14.085 7.6809 13.9129 7.78613L7.72999 11.589C7.58861 11.6754 7.41306 11.6753 7.27291 11.5897L1.09086 7.78545C0.919711 7.68084 0.880973 7.59868 0.880534 7.58394ZM7.72923 14.0564L13.9122 10.2535C14.0469 10.1712 14.1235 10.0657 14.1235 9.96346C14.1235 9.86122 14.0469 9.75576 13.9132 9.6741L13.2161 9.24805L8.18857 12.3403C7.76046 12.6019 7.2337 12.5981 6.81275 12.3409L1.78693 9.24825L1.09007 9.6741C0.810528 9.8449 0.81085 10.0822 1.09007 10.2528L7.27214 14.0571C7.41233 14.1427 7.5879 14.1427 7.72923 14.0564Z" fill="white"/>
<path fill-rule="evenodd" clip-rule="evenodd" d="M14.0557 8.73103L14.3711 8.92381C15.2131 9.43838 15.2132 10.4877 14.3711 11.0023L8.18823 14.8051C7.75861 15.0676 7.23185 15.0621 6.81239 14.8057L0.630341 11.0015C-0.209689 10.4882 -0.210919 9.43862 0.631484 8.92378L0.94689 8.73103L0.630341 8.53623C-0.211242 8.02193 -0.207667 7.14709 0.631484 6.63424L0.94689 6.44149L0.630341 6.24672C-0.208194 5.73429 -0.210685 4.51254 0.631484 3.99785L6.81125 0.195041L6.81239 0.194338C7.23639 -0.0647794 7.76315 -0.0647794 8.18718 0.194338L14.3722 3.9985C15.2106 4.51087 15.2135 5.73259 14.3711 6.24743L14.0557 6.44146L14.3711 6.63424C15.2132 7.14887 15.2113 8.02348 14.3711 8.537L14.0557 8.73103ZM7.27291 0.943045L1.09201 4.74653C0.809359 4.91927 0.811088 5.32613 1.09092 5.4971L7.27297 9.30132C7.41312 9.38697 7.58867 9.387 7.73005 9.30062L13.9129 5.49778C14.1954 5.32513 14.1937 4.91821 13.914 4.74726L7.72891 0.943103C7.58902 0.8576 7.41391 0.857395 7.27274 0.943162L7.27291 0.943045ZM0.880534 7.58394C0.880973 7.5692 0.919711 7.48701 1.09083 7.38243L1.78767 6.95656L6.81348 10.0493C7.23385 10.3061 7.76064 10.3106 8.1893 10.0486L13.2168 6.95638L13.9139 7.3824C14.0851 7.48698 14.1238 7.56917 14.1242 7.58388C14.1238 7.59871 14.085 7.6809 13.9129 7.78613L7.72999 11.589C7.58861 11.6754 7.41306 11.6753 7.27291 11.5897L1.09086 7.78545C0.919711 7.68084 0.880973 7.59868 0.880534 7.58394ZM7.72923 14.0564L13.9122 10.2535C14.0469 10.1712 14.1235 10.0657 14.1235 9.96346C14.1235 9.86122 14.0469 9.75576 13.9132 9.6741L13.2161 9.24805L8.18857 12.3403C7.76046 12.6019 7.2337 12.5981 6.81275 12.3409L1.78693 9.24825L1.09007 9.6741C0.810528 9.8449 0.81085 10.0822 1.09007 10.2528L7.27214 14.0571C7.41233 14.1427 7.5879 14.1427 7.72923 14.0564Z" fill="url(#paint0_linear_4380_6237)"/>
<defs>
<linearGradient id="paint0_linear_4380_6237" x1="-1.10675" y1="7.5" x2="16.4783" y2="7.5" gradientUnits="userSpaceOnUse">
<stop stop-color="#EB725D"/>
<stop offset="1" stop-color="#DB57AD"/>
</linearGradient>
</defs>
</svg>
