<svg width="30" height="26" viewBox="0 0 30 26" fill="none" xmlns="http://www.w3.org/2000/svg">
<path d="M26.1687 0.546875H3.82813C1.71603 0.546875 0 2.2826 0 4.41695V21.6768C0 23.8111 1.71603 25.5469 3.82813 25.5469H26.1695C28.2816 25.5469 30 23.8111 30 21.6768V4.41695C29.9992 2.2826 28.2808 0.546875 26.1687 0.546875ZM27.4444 21.6768C27.4444 22.388 26.8716 22.9668 26.1687 22.9668H3.82813C3.12356 22.9668 2.55235 22.388 2.55235 21.6768V4.41695C2.55235 3.70577 3.12356 3.12692 3.82813 3.12692H26.1695C26.8724 3.12692 27.4452 3.70577 27.4452 4.41695V21.6768H27.4444Z" fill="white"/>
<path d="M16.7138 15.8295L12.1079 7.76953L4.61719 20.8817H25.3734L19.5995 10.7774L16.7138 15.8295Z" fill="white"/>
<path d="M22.922 9.68906C24.1852 9.68906 25.2092 8.65424 25.2092 7.37773C25.2092 6.10122 24.1852 5.06641 22.922 5.06641C21.6588 5.06641 20.6348 6.10122 20.6348 7.37773C20.6348 8.65424 21.6588 9.68906 22.922 9.68906Z" fill="white"/>
</svg>
