<svg width="14" height="15" viewBox="0 0 14 15" fill="none" xmlns="http://www.w3.org/2000/svg">
<path d="M9.28049 14.0321C9.11545 14.0327 8.95344 13.9878 8.81217 13.9025C8.6709 13.8172 8.55582 13.6947 8.4795 13.5484L5.99854 8.86729C5.98682 8.84513 5.96869 8.827 5.94652 8.81528L1.26545 6.33431C1.10763 6.25163 0.977904 6.12396 0.892717 5.96748C0.80753 5.81099 0.770717 5.63274 0.786943 5.45531C0.800253 5.27616 0.867505 5.10524 0.979843 4.96504C1.09218 4.82485 1.24434 4.72197 1.41629 4.66993L12.8017 0.873065C12.9619 0.818182 13.1343 0.80935 13.2993 0.847574C13.4642 0.885797 13.6152 0.969543 13.7349 1.08929C13.8547 1.20904 13.9384 1.35998 13.9766 1.52495C14.0149 1.68993 14.006 1.86232 13.9512 2.02253L10.1439 13.3975C10.0901 13.5675 9.98646 13.7175 9.84641 13.8278C9.70636 13.9382 9.53637 14.0039 9.3585 14.0165L9.28049 14.0321ZM13.0774 1.60643H13.0357L1.65034 5.4085C1.62593 5.41668 1.6045 5.43192 1.58876 5.45229C1.57302 5.47266 1.56368 5.49724 1.56192 5.52293C1.56035 5.5486 1.56643 5.57417 1.57939 5.59639C1.59235 5.61861 1.61161 5.63649 1.63474 5.64776L6.31581 8.12352C6.47846 8.20795 6.61107 8.34055 6.69549 8.50321L9.17126 13.1843C9.18351 13.2066 9.2016 13.2252 9.22359 13.238C9.24558 13.2508 9.27064 13.2574 9.29609 13.2571C9.32177 13.2553 9.34636 13.246 9.36673 13.2303C9.3871 13.2145 9.40234 13.1931 9.41052 13.1687L13.2074 1.78327C13.2149 1.76002 13.2159 1.73516 13.2105 1.71135C13.205 1.68754 13.1931 1.66566 13.1762 1.64804C13.15 1.62165 13.1145 1.60669 13.0774 1.60643Z" fill="white"/>
<path d="M6.27061 8.93608C6.16762 8.93384 6.06924 8.893 5.99494 8.82166C5.92189 8.74852 5.88086 8.64937 5.88086 8.54599C5.88086 8.44262 5.92189 8.34347 5.99494 8.27033L9.11566 5.14962C9.1896 5.08071 9.28741 5.0432 9.38847 5.04498C9.48953 5.04677 9.58595 5.08771 9.65742 5.15918C9.72889 5.23065 9.76983 5.32707 9.77162 5.42813C9.7734 5.52919 9.73589 5.627 9.66698 5.70094L6.54627 8.82166C6.47318 8.89483 6.37403 8.93599 6.27061 8.93608Z" fill="white"/>
</svg>
