<?xml version="1.0" encoding="utf-8"?>
<!-- Generator: Adobe Illustrator 23.0.2, SVG Export Plug-In . SVG Version: 6.00 Build 0)  -->
<svg version="1.1" id="Calque_1" xmlns="http://www.w3.org/2000/svg" xmlns:xlink="http://www.w3.org/1999/xlink" x="0px" y="0px"
	 viewBox="0 0 34 34" style="enable-background:new 0 0 34 34;" xml:space="preserve">
<style type="text/css">
	.st0{fill:url(#SVGID_1_);}
</style>
<title>Oval</title>
<desc>Created with Sketch.</desc>
<g>
	<g transform="translate(-2873.000000, -43.000000)">
		<g>
			<g id="SEARCH-BAR-PROJET">
				<g id="FILTRES" transform="translate(1190.000000, 25.000000)">
					<g id="DROP-DOWN-STATUT" transform="translate(1660.000000, 0.000000)">
						<g id="Oval">
							
								<linearGradient id="SVGID_1_" gradientUnits="userSpaceOnUse" x1="-84.6287" y1="162.003" x2="-84.8443" y2="161.6329" gradientTransform="matrix(30 0 0 -30 2583 4888)">
								<stop  offset="0" style="stop-color:#4F00B5"/>
								<stop  offset="1" style="stop-color:#7D2A86"/>
							</linearGradient>
							<path class="st0" d="M40,51.5c-0.5,0-0.9,0-1.4-0.1c-0.8-0.1-1.4-0.8-1.4-1.6s0.8-1.4,1.6-1.4c0.4,0,0.8,0.1,1.2,0
								c6.9,0,12.7-5.2,13.4-12.1c0.1-0.8,0.8-1.4,1.6-1.3c0.8,0.1,1.4,0.8,1.3,1.6C55.5,45.1,48.5,51.5,40,51.5
								C40,51.5,40,51.5,40,51.5z M30.5,48.1c-0.3,0-0.7-0.1-0.9-0.3c-3.8-3.2-6.1-7.8-6.1-12.8c0-3.2,0.9-6.4,2.7-9.1
								c0.5-0.7,1.4-0.9,2.1-0.4c0.7,0.5,0.9,1.4,0.4,2.1c-1.4,2.2-2.2,4.8-2.2,7.4c0,4.1,1.8,7.9,5,10.5c0.6,0.5,0.7,1.5,0.2,2.1
								C31.4,47.9,30.9,48.1,30.5,48.1z M53.2,29.4c-0.5,0-1-0.3-1.3-0.8c-2.4-4.4-6.9-7.1-11.9-7.1c-1.8,0-3.5,0.3-5.1,1
								c-0.8,0.3-1.6,0-2-0.8c-0.3-0.8,0.1-1.6,0.8-2c2-0.8,4.1-1.2,6.3-1.2c6.1,0,11.6,3.3,14.5,8.7c0.4,0.7,0.1,1.6-0.6,2
								C53.7,29.3,53.4,29.4,53.2,29.4z"/>
						</g>
					</g>
				</g>
			</g>
		</g>
	</g>
</g>
</svg>
