<?xml version="1.0" encoding="utf-8"?>
<!-- Generator: Adobe Illustrator 23.0.2, SVG Export Plug-In . SVG Version: 6.00 Build 0)  -->
<svg version="1.1" id="Calque_1" xmlns="http://www.w3.org/2000/svg" xmlns:xlink="http://www.w3.org/1999/xlink" x="0px" y="0px"
	 viewBox="0 0 40 29" style="enable-background:new 0 0 40 29;" xml:space="preserve">
<style type="text/css">
	.st0{fill:#888888;}
</style>
<g>
	<g id="Dashboard_create_project_final_step" transform="translate(-2050.000000, -2113.000000)">
		<g id="Exports" transform="translate(2025.000000, 2088.000000)">
			<g id="Player" transform="translate(25.000000, 25.000000)">
				<path id="Shape" class="st0" d="M26.4,13.6L17.1,8c-0.4-0.2-0.8-0.2-1.2,0c-0.4,0.2-0.6,0.6-0.6,1v11.2c0,0.4,0.2,0.8,0.6,1
					c0.2,0.1,0.4,0.1,0.6,0.1c0.2,0,0.4-0.1,0.6-0.2l9.3-5.6c0.3-0.2,0.5-0.6,0.5-0.9S26.7,13.8,26.4,13.6z M17.6,18.1v-7.1l6,3.6
					L17.6,18.1z"/>
				<path class="st0" d="M34,0H5.8C2.6,0,0,2.5,0,5.6v17.8C0,26.5,2.6,29,5.8,29H34c3.2,0,5.8-2.5,5.8-5.6V5.6C39.9,2.5,37.3,0,34,0
					z M37.5,23.4c0,1.8-1.6,3.3-3.5,3.3H5.8c-1.9,0-3.5-1.5-3.5-3.3V5.6c0-1.8,1.6-3.3,3.5-3.3H34c1.9,0,3.5,1.5,3.5,3.3V23.4z"/>
			</g>
		</g>
	</g>
</g>
</svg>
