<svg width="44" height="38" viewBox="0 0 44 38" fill="none" xmlns="http://www.w3.org/2000/svg">
<path fill-rule="evenodd" clip-rule="evenodd" d="M35.1511 18.4841C39.5033 14.5714 39.8597 7.87149 35.9471 3.51925C32.3586 -0.472457 26.3521 -1.15058 21.964 1.94066C17.1804 -1.43531 10.5659 -0.294195 7.1899 4.4893C4.09217 8.87859 4.76754 14.8913 8.76183 18.484C3.79883 21.1001 0.701272 26.2579 0.723754 31.8681V36.418C0.723754 37.2556 1.40277 37.9347 2.24041 37.9347H41.6726C42.5102 37.9347 43.1892 37.2556 43.1892 36.418V31.8681C43.2116 26.2579 40.1141 21.1001 35.1511 18.4841ZM28.0228 3.05164C32.2049 3.04702 35.599 6.43357 35.6037 10.6157C35.607 13.5984 33.8592 16.3051 31.1394 17.5293C31.0431 17.573 30.9468 17.6137 30.8497 17.6548L30.8496 17.6548L30.7876 17.681C30.4133 17.832 30.0273 17.9521 29.6334 18.0404C29.5906 18.0499 29.5478 18.0569 29.5047 18.0639L29.5046 18.0639C29.4714 18.0694 29.438 18.0748 29.4044 18.0814C28.9644 18.1657 28.5178 18.2109 28.0698 18.2164C27.8681 18.2164 27.6648 18.2012 27.4631 18.1831C27.3873 18.1831 27.3114 18.1831 27.2356 18.1679C26.3736 18.0664 25.5351 17.8193 24.7559 17.4369C24.7408 17.4297 24.7244 17.4267 24.708 17.4237L24.708 17.4237C24.6932 17.421 24.6786 17.4183 24.6649 17.4126C24.6258 17.3938 24.5866 17.3756 24.5478 17.3576C24.4361 17.3057 24.3268 17.255 24.2267 17.1942C24.2328 17.1865 24.2378 17.1785 24.2427 17.1705C24.2476 17.1626 24.2525 17.1547 24.2585 17.1472C24.9539 16.2536 25.5022 15.2547 25.8827 14.1882L25.9297 14.0608C26.1028 13.5514 26.2371 13.0298 26.3317 12.5002C26.344 12.4308 26.3537 12.3637 26.3644 12.2904L26.3645 12.2899L26.3645 12.2897L26.3646 12.2895L26.3681 12.2651C26.4558 11.726 26.5019 11.181 26.5061 10.6347C26.5018 10.0895 26.4556 9.54552 26.3681 9.00735L26.357 8.93426C26.349 8.88167 26.3411 8.82945 26.3317 8.7723C26.2371 8.24276 26.1028 7.72104 25.9297 7.21166L25.8827 7.08423C25.5022 6.01777 24.9538 5.01893 24.2585 4.12531C24.2523 4.11765 24.2474 4.10963 24.2424 4.10161C24.2375 4.09372 24.2327 4.08583 24.2267 4.0783C25.3789 3.40613 26.6888 3.05173 28.0228 3.05164ZM15.8509 3.05315C11.6737 3.0639 8.29622 6.45889 8.30698 10.6361C8.31044 13.6131 10.0557 16.3128 12.769 17.5379L12.8689 17.5788C12.9591 17.6158 13.0502 17.6531 13.1421 17.6896C13.5076 17.8347 13.8839 17.9513 14.2674 18.0384C14.3309 18.0525 14.3957 18.0626 14.4605 18.0726C14.4933 18.0777 14.526 18.0828 14.5586 18.0884C14.9704 18.1651 15.388 18.2072 15.8068 18.2143H15.9736C16.3924 18.2071 16.81 18.1651 17.2218 18.0884C17.2544 18.0828 17.2871 18.0777 17.3199 18.0726C17.3847 18.0626 17.4495 18.0525 17.513 18.0384C17.8965 17.9513 18.2727 17.8347 18.6383 17.6896C18.7641 17.6456 18.8885 17.594 19.0113 17.5379C19.7838 17.1874 20.4917 16.7096 21.1058 16.1244C21.1937 16.0396 21.2801 15.9546 21.3651 15.8666C21.6256 15.5937 21.8659 15.3023 22.084 14.9946C22.1332 14.9253 22.1791 14.8526 22.2247 14.7803C22.241 14.7546 22.2572 14.7289 22.2736 14.7034C22.4853 14.3776 22.6714 14.0358 22.8301 13.6812C22.855 13.6245 22.876 13.567 22.8969 13.5098L22.8969 13.5098C22.9078 13.4799 22.9187 13.45 22.9302 13.4204C23.0901 13.0275 23.216 12.6216 23.3063 12.2071C23.3123 12.1814 23.3159 12.1557 23.3195 12.1297C23.3223 12.1097 23.3252 12.0895 23.3291 12.0691C23.5212 11.1274 23.5212 10.1565 23.3291 9.21485C23.3252 9.19453 23.3224 9.17449 23.3196 9.15461L23.3196 9.15453C23.316 9.12845 23.3124 9.10264 23.3063 9.07684C23.2159 8.66238 23.0901 8.25644 22.9302 7.86357C22.9187 7.83375 22.9077 7.80373 22.8967 7.77365C22.8759 7.71662 22.855 7.65936 22.8301 7.60275C22.6716 7.24756 22.4855 6.90525 22.2736 6.57903C22.2577 6.55433 22.242 6.52942 22.2263 6.50446C22.1801 6.43139 22.1338 6.3579 22.084 6.28782C21.8658 5.98017 21.6256 5.6887 21.3651 5.41579C21.2802 5.32782 21.1938 5.24295 21.1058 5.158C19.6927 3.80263 17.8089 3.04809 15.8509 3.05315ZM28.0229 34.9013H3.75709V31.8681C3.73487 26.7288 6.97292 22.1403 11.8224 20.4389C14.4258 21.5227 17.3542 21.5227 19.9576 20.4389C20.464 20.6239 20.9575 20.8422 21.4348 21.0925C21.7073 21.2327 21.9617 21.3898 22.2213 21.5502L22.2214 21.5502L22.3448 21.6264L22.4516 21.6925C22.6138 21.7928 22.7763 21.8934 22.9318 22.004C23.2245 22.2118 23.5005 22.4378 23.772 22.6698C23.9464 22.8215 24.1193 22.9731 24.283 23.1248C24.5333 23.3613 24.7683 23.6116 24.9943 23.868C25.1566 24.053 25.3143 24.241 25.4645 24.4352C25.6632 24.69 25.8527 24.9509 26.0287 25.2192C26.1804 25.4467 26.3154 25.6833 26.4488 25.9199C26.6005 26.1808 26.74 26.4417 26.8673 26.7131C26.9948 26.9846 27.107 27.2819 27.2161 27.5716C27.2362 27.6246 27.2566 27.6775 27.277 27.7305C27.3534 27.929 27.4299 28.1275 27.4921 28.3299C27.5983 28.6817 27.6726 29.0457 27.7469 29.4096C27.7627 29.4845 27.7802 29.5588 27.7977 29.6331L27.7977 29.6332L27.7977 29.6333C27.8304 29.7726 27.8632 29.9118 27.8849 30.0542C27.9747 30.6546 28.0209 31.2609 28.0229 31.8681V34.9013ZM31.0562 34.9014H40.1559H40.156V31.8682C40.1786 26.7262 36.9376 22.1356 32.0845 20.4359C31.6891 20.5983 31.2839 20.7362 30.8713 20.8484C30.807 20.8666 30.7428 20.8825 30.6791 20.8983C30.6525 20.9049 30.6261 20.9115 30.5998 20.9181C30.2854 20.997 29.9669 21.0612 29.6443 21.1107C29.6077 21.1165 29.5711 21.1226 29.5347 21.1287C29.4474 21.1432 29.3604 21.1577 29.2728 21.1684C28.8761 21.2164 28.4772 21.2422 28.0776 21.2457H27.9942C27.5625 21.2414 27.1315 21.211 26.7035 21.1547H26.6413C26.9871 21.5005 27.3162 21.8661 27.6195 22.2421L27.6301 22.2558C27.9264 22.6178 28.205 22.9923 28.4658 23.3796L28.525 23.4661C29.3124 24.6506 29.9278 25.941 30.3525 27.2985C30.3729 27.3645 30.3917 27.4317 30.4104 27.4989C30.4223 27.5413 30.4342 27.5838 30.4465 27.6261C30.5425 27.9577 30.627 28.2924 30.6998 28.6301C30.7301 28.7717 30.7589 28.9128 30.7862 29.0533C30.8499 29.3824 30.8969 29.7145 30.9379 30.0497C30.944 30.1045 30.9511 30.159 30.9581 30.2135C30.9686 30.2948 30.9791 30.376 30.9864 30.4577C31.0289 30.9232 31.0562 31.3934 31.0562 31.8681V34.9014Z" fill="#888888"/>
</svg>
