<?xml version="1.0" encoding="UTF-8"?>
<svg width="21px" height="23px" viewBox="0 0 21 23" version="1.1" xmlns="http://www.w3.org/2000/svg" xmlns:xlink="http://www.w3.org/1999/xlink">
    <!-- Generator: Sketch 52 (66869) - http://www.bohemiancoding.com/sketch -->
    <title>download</title>
    <desc>Created with Sketch.</desc>
    <g id="***********Symbols***********" stroke="none" stroke-width="1" fill="none" fill-rule="evenodd">
        <g id="click/droit/élément-partager" transform="translate(-30.000000, -104.000000)" fill="#000000" fill-rule="nonzero">
            <g id="télécharger-le-fichier" transform="translate(30.000000, 97.000000)">
                <g id="download" transform="translate(0.000000, 7.000000)">
                    <path d="M19.5703125,20.9899497 L1.4296875,20.9899497 C1.15354513,20.9899497 0.9296875,21.2138074 0.9296875,21.4899497 L0.9296875,22.5 C0.9296875,22.7761424 1.15354513,23 1.4296875,23 L19.5703125,23 C19.8464549,23 20.0703125,22.7761424 20.0703125,22.5 L20.0703125,21.4899497 C20.0703125,21.2138074 19.8464549,20.9899497 19.5703125,20.9899497 Z" id="Path"></path>
                    <path d="M15.1533521,13.7536003 L11.7194728,17.4737472 C11.682013,17.5143298 11.6187472,17.5168614 11.5781645,17.4794016 C11.5576556,17.4604709 11.5459914,17.4338306 11.5459914,17.4059203 L11.5459914,0.5 C11.5459914,0.223857625 11.3221338,4.39800865e-16 11.0459914,0 L9.95400856,0 C9.67786619,-4.39800865e-16 9.45400856,0.223857625 9.45400856,0.5 L9.45400856,17.4059203 C9.45400856,17.4611488 9.40923704,17.5059203 9.35400856,17.5059203 C9.32609824,17.5059203 9.29945792,17.4942561 9.28052721,17.4737472 L5.84664785,13.7536003 C5.65934899,13.5506872 5.34301965,13.5380293 5.1401065,13.7253282 C5.13030926,13.7343715 5.12087767,13.7438031 5.11183433,13.7536003 L4.31303799,14.6189888 C4.136247,14.8105181 4.136247,15.1057288 4.31303799,15.297258 L10.5,22 L16.686962,15.297258 C16.863753,15.1057288 16.863753,14.8105181 16.686962,14.6189888 L15.8881657,13.7536003 C15.7008668,13.5506872 15.3845375,13.5380293 15.1816243,13.7253282 C15.1718271,13.7343715 15.1623955,13.7438031 15.1533521,13.7536003 Z" id="Path"></path>
                </g>
            </g>
        </g>
    </g>
</svg>