<?xml version="1.0" encoding="utf-8"?>
<!-- Generator: Adobe Illustrator 23.0.2, SVG Export Plug-In . SVG Version: 6.00 Build 0)  -->
<svg version="1.1" id="Calque_1" xmlns="http://www.w3.org/2000/svg" xmlns:xlink="http://www.w3.org/1999/xlink" x="0px" y="0px"
	 viewBox="0 0 32 32" style="enable-background:new 0 0 32 32;" xml:space="preserve">
<style type="text/css">
	.st0{clip-path:url(#SVGID_2_);fill:#5A0AAA;}
	.st1{clip-path:url(#SVGID_2_);fill:#5B0BA9;}
	.st2{clip-path:url(#SVGID_2_);fill:#5C0CA8;}
	.st3{clip-path:url(#SVGID_2_);fill:#5D0DA7;}
	.st4{clip-path:url(#SVGID_2_);fill:#5E0EA6;}
	.st5{clip-path:url(#SVGID_2_);fill:#5F0FA5;}
	.st6{clip-path:url(#SVGID_2_);fill:#6010A4;}
	.st7{clip-path:url(#SVGID_2_);fill:#6110A3;}
	.st8{clip-path:url(#SVGID_2_);fill:#6211A2;}
	.st9{clip-path:url(#SVGID_2_);fill:#6312A1;}
	.st10{clip-path:url(#SVGID_2_);fill:#6413A0;}
	.st11{clip-path:url(#SVGID_2_);fill:#65149F;}
	.st12{clip-path:url(#SVGID_2_);fill:#66159E;}
	.st13{clip-path:url(#SVGID_2_);fill:#67169C;}
	.st14{clip-path:url(#SVGID_2_);fill:#68179B;}
	.st15{clip-path:url(#SVGID_2_);fill:#69189A;}
	.st16{clip-path:url(#SVGID_2_);fill:#6A1999;}
	.st17{clip-path:url(#SVGID_2_);fill:#6B1A98;}
	.st18{clip-path:url(#SVGID_2_);fill:#6C1A97;}
	.st19{clip-path:url(#SVGID_2_);fill:#6D1B96;}
	.st20{clip-path:url(#SVGID_2_);fill:#6E1C95;}
	.st21{clip-path:url(#SVGID_2_);fill:#6F1D94;}
	.st22{clip-path:url(#SVGID_2_);fill:#701E93;}
	.st23{clip-path:url(#SVGID_2_);fill:#711F92;}
	.st24{clip-path:url(#SVGID_2_);fill:#722091;}
	.st25{clip-path:url(#SVGID_2_);fill:#732190;}
	.st26{clip-path:url(#SVGID_2_);fill:#74228F;}
	.st27{clip-path:url(#SVGID_2_);fill:#75238E;}
	.st28{clip-path:url(#SVGID_2_);fill:#76248D;}
	.st29{clip-path:url(#SVGID_2_);fill:#77258C;}
	.st30{clip-path:url(#SVGID_2_);fill:#78258B;}
	.st31{clip-path:url(#SVGID_2_);fill:#79268A;}
	.st32{clip-path:url(#SVGID_2_);fill:#7A2789;}
	.st33{clip-path:url(#SVGID_2_);fill:#7B2888;}
	.st34{clip-path:url(#SVGID_2_);fill:#7C2987;}
	.st35{clip-path:url(#SVGID_2_);fill:#7D2A86;}
	.st36{clip-path:url(#SVGID_2_);fill:#5808AC;}
	.st37{clip-path:url(#SVGID_2_);fill:#5909AB;}
	.st38{fill:url(#SVGID_3_);}
	.st39{clip-path:url(#SVGID_5_);fill:#5707AD;}
	.st40{clip-path:url(#SVGID_5_);fill:#5808AC;}
	.st41{clip-path:url(#SVGID_5_);fill:#5909AB;}
	.st42{clip-path:url(#SVGID_5_);fill:#5A0AAA;}
	.st43{clip-path:url(#SVGID_5_);fill:#5B0BA9;}
	.st44{clip-path:url(#SVGID_5_);fill:#5C0CA8;}
	.st45{clip-path:url(#SVGID_5_);fill:#5D0DA7;}
	.st46{clip-path:url(#SVGID_5_);fill:#5E0EA6;}
	.st47{clip-path:url(#SVGID_5_);fill:#5F0FA5;}
	.st48{clip-path:url(#SVGID_5_);fill:#6010A4;}
	.st49{clip-path:url(#SVGID_5_);fill:#6110A3;}
	.st50{clip-path:url(#SVGID_5_);fill:#6211A2;}
	.st51{clip-path:url(#SVGID_5_);fill:#6312A1;}
	.st52{clip-path:url(#SVGID_5_);fill:#6413A0;}
	.st53{clip-path:url(#SVGID_5_);fill:#65149F;}
	.st54{clip-path:url(#SVGID_5_);fill:#66159E;}
	.st55{clip-path:url(#SVGID_5_);fill:#67169C;}
	.st56{clip-path:url(#SVGID_5_);fill:#68179B;}
	.st57{clip-path:url(#SVGID_5_);fill:#69189A;}
	.st58{clip-path:url(#SVGID_5_);fill:#6A1999;}
	.st59{clip-path:url(#SVGID_5_);fill:#6B1A98;}
	.st60{clip-path:url(#SVGID_5_);fill:#6C1A97;}
	.st61{clip-path:url(#SVGID_5_);fill:#6D1B96;}
	.st62{clip-path:url(#SVGID_5_);fill:#6E1C95;}
	.st63{clip-path:url(#SVGID_5_);fill:#6F1D94;}
	.st64{clip-path:url(#SVGID_5_);fill:#701E93;}
	.st65{clip-path:url(#SVGID_5_);fill:#711F92;}
	.st66{clip-path:url(#SVGID_5_);fill:#722091;}
	.st67{clip-path:url(#SVGID_5_);fill:#732190;}
	.st68{clip-path:url(#SVGID_5_);fill:#74228F;}
	.st69{clip-path:url(#SVGID_5_);fill:#75238E;}
	.st70{clip-path:url(#SVGID_5_);fill:#76248D;}
	.st71{clip-path:url(#SVGID_5_);fill:#77258C;}
	.st72{clip-path:url(#SVGID_5_);fill:#78258B;}
	.st73{clip-path:url(#SVGID_5_);fill:#79268A;}
	.st74{clip-path:url(#SVGID_5_);fill:#7A2789;}
	.st75{clip-path:url(#SVGID_5_);fill:#7B2888;}
	.st76{clip-path:url(#SVGID_5_);fill:#7C2987;}
	.st77{clip-path:url(#SVGID_5_);fill:#7D2A86;}
	.st78{fill:url(#SVGID_6_);}
	.st79{clip-path:url(#SVGID_8_);fill:#5707AD;}
	.st80{clip-path:url(#SVGID_8_);fill:#5808AC;}
	.st81{clip-path:url(#SVGID_8_);fill:#5909AB;}
	.st82{clip-path:url(#SVGID_8_);fill:#5A0AAA;}
	.st83{clip-path:url(#SVGID_8_);fill:#5B0BA9;}
	.st84{clip-path:url(#SVGID_8_);fill:#5C0CA8;}
	.st85{clip-path:url(#SVGID_8_);fill:#5D0DA7;}
	.st86{clip-path:url(#SVGID_8_);fill:#5E0EA6;}
	.st87{clip-path:url(#SVGID_8_);fill:#5F0FA5;}
	.st88{clip-path:url(#SVGID_8_);fill:#6010A4;}
	.st89{clip-path:url(#SVGID_8_);fill:#6110A3;}
	.st90{clip-path:url(#SVGID_8_);fill:#6211A2;}
	.st91{clip-path:url(#SVGID_8_);fill:#6312A1;}
	.st92{clip-path:url(#SVGID_8_);fill:#6413A0;}
	.st93{clip-path:url(#SVGID_8_);fill:#65149F;}
	.st94{clip-path:url(#SVGID_8_);fill:#66159E;}
	.st95{clip-path:url(#SVGID_8_);fill:#67169C;}
	.st96{clip-path:url(#SVGID_8_);fill:#68179B;}
	.st97{clip-path:url(#SVGID_8_);fill:#69189A;}
	.st98{clip-path:url(#SVGID_8_);fill:#6A1999;}
	.st99{clip-path:url(#SVGID_8_);fill:#6B1A98;}
	.st100{clip-path:url(#SVGID_8_);fill:#6C1A97;}
	.st101{clip-path:url(#SVGID_8_);fill:#6D1B96;}
	.st102{clip-path:url(#SVGID_8_);fill:#6E1C95;}
	.st103{clip-path:url(#SVGID_8_);fill:#6F1D94;}
	.st104{clip-path:url(#SVGID_8_);fill:#701E93;}
	.st105{clip-path:url(#SVGID_8_);fill:#711F92;}
	.st106{clip-path:url(#SVGID_8_);fill:#722091;}
	.st107{clip-path:url(#SVGID_8_);fill:#732190;}
	.st108{clip-path:url(#SVGID_8_);fill:#74228F;}
	.st109{clip-path:url(#SVGID_8_);fill:#75238E;}
	.st110{clip-path:url(#SVGID_8_);fill:#76248D;}
	.st111{clip-path:url(#SVGID_8_);fill:#77258C;}
	.st112{clip-path:url(#SVGID_8_);fill:#78258B;}
	.st113{clip-path:url(#SVGID_8_);fill:#79268A;}
	.st114{clip-path:url(#SVGID_8_);fill:#7A2789;}
	.st115{clip-path:url(#SVGID_8_);fill:#7B2888;}
	.st116{clip-path:url(#SVGID_8_);fill:#7C2987;}
	.st117{clip-path:url(#SVGID_8_);fill:#7D2A86;}
	.st118{fill:url(#SVGID_9_);}
</style>
<g>
	<g transform="translate(-2154.000000, -47.000000)">
		<g id="FILTRES">
			<g transform="translate(1190.000000, 25.000000)">
				<g id="DROP-DOWN-METIERS" transform="translate(940.000000, 0.000000)">
					<g id="work" transform="translate(25.000000, 23.000000)">
						<g id="Shape">
							<g>
								<defs>
									<path id="SVGID_1_" d="M26.9,27.5H3.2c-1.7,0-3.1-1.4-3.1-3.1v-15c0-1.7,1.4-3.1,3.1-3.1h23.7c1.7,0,3.1,1.4,3.1,3.1v15
										C30.1,26.1,28.7,27.5,26.9,27.5z M3.2,7.5c-1,0-1.9,0.9-1.9,1.9v15c0,1,0.9,1.9,1.9,1.9h23.7c1,0,1.9-0.9,1.9-1.9v-15
										c0-1-0.9-1.9-1.9-1.9C26.9,7.5,3.2,7.5,3.2,7.5z"/>
								</defs>
								<clipPath id="SVGID_2_">
									<use xlink:href="#SVGID_1_"  style="overflow:visible;"/>
								</clipPath>
								<polygon class="st0" points="28.8,8.1 27.5,7.5 28.8,7.5 								"/>
								<polygon class="st1" points="28.8,8.9 25.5,7.5 27.5,7.5 28.8,8.1 								"/>
								<polygon class="st2" points="28.8,9.7 23.5,7.5 25.5,7.5 28.8,8.9 								"/>
								<polygon class="st3" points="28.8,10.5 21.5,7.5 23.5,7.5 28.8,9.7 								"/>
								<polygon class="st4" points="28.8,11.3 19.5,7.5 21.5,7.5 28.8,10.5 								"/>
								<polygon class="st5" points="28.8,12.1 17.5,7.5 19.5,7.5 28.8,11.3 								"/>
								<polygon class="st6" points="28.8,13 15.5,7.5 17.5,7.5 28.8,12.1 								"/>
								<polygon class="st7" points="28.8,13.8 13.6,7.5 15.5,7.5 28.8,13 								"/>
								<polygon class="st8" points="28.8,14.6 11.6,7.5 13.6,7.5 28.8,13.8 								"/>
								<polygon class="st9" points="28.8,15.4 9.6,7.5 11.6,7.5 28.8,14.6 								"/>
								<polygon class="st10" points="28.8,16.2 7.6,7.5 9.6,7.5 28.8,15.4 								"/>
								<polygon class="st11" points="28.8,17.1 5.6,7.5 7.6,7.5 28.8,16.2 								"/>
								<polygon class="st12" points="28.8,17.9 3.6,7.5 5.6,7.5 28.8,17.1 								"/>
								<polygon class="st13" points="28.8,18.7 1.6,7.5 3.6,7.5 28.8,17.9 								"/>
								<polygon class="st14" points="28.8,19.5 1.3,8.2 1.3,7.5 1.6,7.5 28.8,18.7 								"/>
								<polygon class="st15" points="28.8,20.3 1.3,9 1.3,8.2 28.8,19.5 								"/>
								<polygon class="st16" points="28.8,21.2 1.3,9.8 1.3,9 28.8,20.3 								"/>
								<polygon class="st17" points="28.8,22 1.3,10.6 1.3,9.8 28.8,21.2 								"/>
								<polygon class="st18" points="28.8,22.8 1.3,11.5 1.3,10.6 28.8,22 								"/>
								<polygon class="st19" points="28.8,23.6 1.3,12.3 1.3,11.5 28.8,22.8 								"/>
								<polygon class="st20" points="28.8,24.4 1.3,13.1 1.3,12.3 28.8,23.6 								"/>
								<polygon class="st21" points="28.8,25.3 1.3,13.9 1.3,13.1 28.8,24.4 								"/>
								<polygon class="st22" points="28.8,26.1 1.3,14.7 1.3,13.9 28.8,25.3 								"/>
								<polygon class="st23" points="27.4,26.3 1.3,15.5 1.3,14.7 28.8,26.1 28.8,26.3 								"/>
								<polygon class="st24" points="25.4,26.3 1.3,16.4 1.3,15.5 27.4,26.3 								"/>
								<polygon class="st25" points="23.4,26.3 1.3,17.2 1.3,16.4 25.4,26.3 								"/>
								<polygon class="st26" points="21.4,26.3 1.3,18 1.3,17.2 23.4,26.3 								"/>
								<polygon class="st27" points="19.4,26.3 1.3,18.8 1.3,18 21.4,26.3 								"/>
								<polygon class="st28" points="17.4,26.3 1.3,19.6 1.3,18.8 19.4,26.3 								"/>
								<polygon class="st29" points="15.5,26.3 1.3,20.5 1.3,19.6 17.4,26.3 								"/>
								<polygon class="st30" points="13.5,26.3 1.3,21.3 1.3,20.5 15.5,26.3 								"/>
								<polygon class="st31" points="11.5,26.3 1.3,22.1 1.3,21.3 13.5,26.3 								"/>
								<polygon class="st32" points="9.5,26.3 1.3,22.9 1.3,22.1 11.5,26.3 								"/>
								<polygon class="st33" points="7.5,26.3 1.3,23.7 1.3,22.9 9.5,26.3 								"/>
								<polygon class="st34" points="5.5,26.3 1.3,24.6 1.3,23.7 7.5,26.3 								"/>
								<polygon class="st35" points="3.5,26.3 1.3,25.4 1.3,24.6 5.5,26.3 								"/>
								<polygon class="st35" points="1.3,25.4 3.5,26.3 1.3,26.3 								"/>
								<polygon class="st36" points="30.1,7 28.5,6.3 30.1,6.3 								"/>
								<polygon class="st37" points="30.1,7.8 26.5,6.3 28.5,6.3 30.1,7 								"/>
								<polygon class="st0" points="30.1,8.6 24.5,6.3 26.5,6.3 30.1,7.8 								"/>
								<polygon class="st1" points="30.1,9.4 22.6,6.3 24.5,6.3 30.1,8.6 								"/>
								<polygon class="st2" points="30.1,10.2 20.6,6.3 22.6,6.3 30.1,9.4 								"/>
								<polygon class="st3" points="30.1,11 18.6,6.3 20.6,6.3 30.1,10.2 								"/>
								<polygon class="st4" points="30.1,11.9 16.6,6.3 18.6,6.3 30.1,11 								"/>
								<polygon class="st5" points="30.1,12.7 14.6,6.3 16.6,6.3 30.1,11.9 								"/>
								<polygon class="st6" points="30.1,13.5 12.6,6.3 14.6,6.3 30.1,12.7 								"/>
								<polygon class="st7" points="30.1,14.3 10.6,6.3 12.6,6.3 30.1,13.5 								"/>
								<polygon class="st8" points="30.1,15.1 8.7,6.3 10.6,6.3 30.1,14.3 								"/>
								<polygon class="st9" points="30.1,16 6.7,6.3 8.7,6.3 30.1,15.1 								"/>
								<polygon class="st10" points="30.1,16.8 4.7,6.3 6.7,6.3 30.1,16 								"/>
								<polygon class="st11" points="30.1,17.6 2.7,6.3 4.7,6.3 30.1,16.8 								"/>
								<polygon class="st12" points="30.1,18.4 0.7,6.3 2.7,6.3 30.1,17.6 								"/>
								<polygon class="st13" points="30.1,19.2 0.1,6.9 0.1,6.3 0.7,6.3 30.1,18.4 								"/>
								<polygon class="st14" points="30.1,20.1 0.1,7.7 0.1,6.9 30.1,19.2 								"/>
								<polygon class="st15" points="30.1,20.9 0.1,8.5 0.1,7.7 30.1,20.1 								"/>
								<polygon class="st16" points="30.1,21.7 0.1,9.3 0.1,8.5 30.1,20.9 								"/>
								<polygon class="st17" points="30.1,22.5 0.1,10.1 0.1,9.3 30.1,21.7 								"/>
								<polygon class="st18" points="30.1,23.3 0.1,11 0.1,10.1 30.1,22.5 								"/>
								<polygon class="st19" points="30.1,24.2 0.1,11.8 0.1,11 30.1,23.3 								"/>
								<polygon class="st20" points="30.1,25 0.1,12.6 0.1,11.8 30.1,24.2 								"/>
								<polygon class="st21" points="30.1,25.8 0.1,13.4 0.1,12.6 30.1,25 								"/>
								<polygon class="st22" points="30.1,26.6 0.1,14.2 0.1,13.4 30.1,25.8 								"/>
								<polygon class="st23" points="30.1,27.4 0.1,15.1 0.1,14.2 30.1,26.6 								"/>
								<polygon class="st24" points="28.3,27.5 0.1,15.9 0.1,15.1 30.1,27.4 30.1,27.5 								"/>
								<polygon class="st25" points="26.3,27.5 0.1,16.7 0.1,15.9 28.3,27.5 								"/>
								<polygon class="st26" points="24.3,27.5 0.1,17.5 0.1,16.7 26.3,27.5 								"/>
								<polygon class="st27" points="22.3,27.5 0.1,18.3 0.1,17.5 24.3,27.5 								"/>
								<polygon class="st28" points="20.4,27.5 0.1,19.1 0.1,18.3 22.3,27.5 								"/>
								<polygon class="st29" points="18.4,27.5 0.1,20 0.1,19.1 20.4,27.5 								"/>
								<polygon class="st30" points="16.4,27.5 0.1,20.8 0.1,20 18.4,27.5 								"/>
								<polygon class="st31" points="14.4,27.5 0.1,21.6 0.1,20.8 16.4,27.5 								"/>
								<polygon class="st32" points="12.4,27.5 0.1,22.4 0.1,21.6 14.4,27.5 								"/>
								<polygon class="st33" points="10.4,27.5 0.1,23.2 0.1,22.4 12.4,27.5 								"/>
								<polygon class="st34" points="8.4,27.5 0.1,24.1 0.1,23.2 10.4,27.5 								"/>
								<polygon class="st35" points="6.5,27.5 0.1,24.9 0.1,24.1 8.4,27.5 								"/>
								<polygon class="st35" points="0.1,24.9 6.5,27.5 0.1,27.5 								"/>
							</g>
							
								<linearGradient id="SVGID_3_" gradientUnits="userSpaceOnUse" x1="-382.0663" y1="-265.8958" x2="-382.5243" y2="-265.1093" gradientTransform="matrix(29.9766 0 0 21.2334 11476.8066 5652.2192)">
								<stop  offset="0" style="stop-color:#4F00B5"/>
								<stop  offset="1" style="stop-color:#7D2A86"/>
							</linearGradient>
							<path class="st38" d="M26.9,28H3.2c-2,0-3.6-1.6-3.6-3.6v-15c0-2,1.6-3.6,3.6-3.6h23.7c2,0,3.6,1.6,3.6,3.6v15
								c0.1,0.9-0.3,1.8-0.9,2.5C28.9,27.6,27.9,28,26.9,28z M3.2,6.8C1.8,6.8,0.6,8,0.6,9.4v15c0,1.4,1.2,2.6,2.6,2.6h23.7
								c0.8,0,1.5-0.3,2-0.8c0.5-0.5,0.7-1.1,0.6-1.8l0-15c0-1.4-1.2-2.6-2.6-2.6H3.2z M26.9,26.8H3.2c-1.3,0-2.4-1.1-2.4-2.4v-15
								C0.8,8.1,1.9,7,3.2,7h23.7c1.3,0,2.4,1.1,2.4,2.4v15C29.3,25.7,28.2,26.8,26.9,26.8z M3.2,8C2.5,8,1.8,8.7,1.8,9.4v15
								c0,0.7,0.7,1.4,1.4,1.4h23.7c0.7,0,1.4-0.7,1.4-1.4v-15c0-0.7-0.7-1.4-1.4-1.4H3.2z"/>
						</g>
						<g id="Path">
							<g>
								<defs>
									<path id="SVGID_4_" d="M19.4,7.5c-0.4,0-0.6-0.2-0.6-0.6V4.4c0-0.4-0.2-0.6-0.6-0.6H12c-0.4,0-0.6,0.2-0.6,0.6v2.5
										c0,0.4-0.2,0.6-0.6,0.6s-0.6-0.2-0.6-0.6V4.4c0-1,0.9-1.9,1.9-1.9h6.2c1,0,1.9,0.9,1.9,1.9v2.5C20.1,7.2,19.8,7.5,19.4,7.5
										z"/>
								</defs>
								<clipPath id="SVGID_5_">
									<use xlink:href="#SVGID_4_"  style="overflow:visible;"/>
								</clipPath>
								<polygon class="st39" points="20.2,2.5 20.2,2.5 20.2,2.5 								"/>
								<polygon class="st40" points="20.2,2.7 19.5,2.5 20.2,2.5 20.2,2.5 								"/>
								<polygon class="st41" points="20.2,2.9 18.9,2.5 19.5,2.5 20.2,2.7 								"/>
								<polygon class="st42" points="20.2,3.1 18.2,2.5 18.9,2.5 20.2,2.9 								"/>
								<polygon class="st43" points="20.2,3.3 17.5,2.5 18.2,2.5 20.2,3.1 								"/>
								<polygon class="st44" points="20.2,3.5 16.9,2.5 17.5,2.5 20.2,3.3 								"/>
								<polygon class="st45" points="20.2,3.7 16.2,2.5 16.9,2.5 20.2,3.5 								"/>
								<polygon class="st46" points="20.2,3.9 15.5,2.5 16.2,2.5 20.2,3.7 								"/>
								<polygon class="st47" points="20.2,4 14.9,2.5 15.5,2.5 20.2,3.9 								"/>
								<polygon class="st48" points="20.2,4.2 14.2,2.5 14.9,2.5 20.2,4 								"/>
								<polygon class="st49" points="20.2,4.4 13.6,2.5 14.2,2.5 20.2,4.2 								"/>
								<polygon class="st50" points="20.2,4.6 12.9,2.5 13.6,2.5 20.2,4.4 								"/>
								<polygon class="st51" points="20.2,4.8 12.2,2.5 12.9,2.5 20.2,4.6 								"/>
								<polygon class="st52" points="20.2,5 11.6,2.5 12.2,2.5 20.2,4.8 								"/>
								<polygon class="st53" points="20.2,5.2 10.9,2.5 11.6,2.5 20.2,5 								"/>
								<polygon class="st54" points="20.2,5.4 10.2,2.5 10.9,2.5 20.2,5.2 								"/>
								<polygon class="st55" points="20.2,5.6 10.2,2.7 10.2,2.5 10.2,2.5 20.2,5.4 								"/>
								<polygon class="st56" points="20.2,5.8 10.2,2.9 10.2,2.7 20.2,5.6 								"/>
								<polygon class="st57" points="20.2,6 10.2,3.1 10.2,2.9 20.2,5.8 								"/>
								<polygon class="st58" points="20.2,6.2 10.2,3.3 10.2,3.1 20.2,6 								"/>
								<polygon class="st59" points="20.2,6.4 10.2,3.4 10.2,3.3 20.2,6.2 								"/>
								<polygon class="st60" points="20.2,6.6 10.2,3.6 10.2,3.4 20.2,6.4 								"/>
								<polygon class="st61" points="20.2,6.7 10.2,3.8 10.2,3.6 20.2,6.6 								"/>
								<polygon class="st62" points="20.2,6.9 10.2,4 10.2,3.8 20.2,6.7 								"/>
								<polygon class="st63" points="20.2,7.1 10.2,4.2 10.2,4 20.2,6.9 								"/>
								<polygon class="st64" points="20.2,7.3 10.2,4.4 10.2,4.2 20.2,7.1 								"/>
								<polygon class="st65" points="20.1,7.5 10.2,4.6 10.2,4.4 20.2,7.3 20.2,7.5 								"/>
								<polygon class="st66" points="19.5,7.5 10.2,4.8 10.2,4.6 20.1,7.5 								"/>
								<polygon class="st67" points="18.8,7.5 10.2,5 10.2,4.8 19.5,7.5 								"/>
								<polygon class="st68" points="18.2,7.5 10.2,5.2 10.2,5 18.8,7.5 								"/>
								<polygon class="st69" points="17.5,7.5 10.2,5.4 10.2,5.2 18.2,7.5 								"/>
								<polygon class="st70" points="16.8,7.5 10.2,5.6 10.2,5.4 17.5,7.5 								"/>
								<polygon class="st71" points="16.2,7.5 10.2,5.8 10.2,5.6 16.8,7.5 								"/>
								<polygon class="st72" points="15.5,7.5 10.2,6 10.2,5.8 16.2,7.5 								"/>
								<polygon class="st73" points="14.8,7.5 10.2,6.1 10.2,6 15.5,7.5 								"/>
								<polygon class="st74" points="14.2,7.5 10.2,6.3 10.2,6.1 14.8,7.5 								"/>
								<polygon class="st75" points="13.5,7.5 10.2,6.5 10.2,6.3 14.2,7.5 								"/>
								<polygon class="st76" points="12.9,7.5 10.2,6.7 10.2,6.5 13.5,7.5 								"/>
								<polygon class="st77" points="12.2,7.5 10.2,6.9 10.2,6.7 12.9,7.5 								"/>
								<polygon class="st77" points="10.2,6.9 12.2,7.5 10.2,7.5 								"/>
							</g>
							
								<linearGradient id="SVGID_6_" gradientUnits="userSpaceOnUse" x1="-355.7186" y1="-186.3245" x2="-356.2212" y2="-185.4615" gradientTransform="matrix(9.9922 0 0 4.9961 3572.9795 933.316)">
								<stop  offset="0" style="stop-color:#4F00B5"/>
								<stop  offset="1" style="stop-color:#7D2A86"/>
							</linearGradient>
							<path class="st78" d="M19.4,8c-0.7,0-1.1-0.4-1.1-1.1V4.4c0-0.1,0-0.1,0-0.1c0,0,0,0-0.1,0H12c-0.1,0-0.1,0-0.1,0
								c0,0,0,0,0,0.1v2.5c0,0.7-0.4,1.1-1.1,1.1c-0.7,0-1.1-0.4-1.1-1.1V4.4c0-1.3,1.1-2.4,2.4-2.4h6.2c1.3,0,2.4,1.1,2.4,2.4
								l0,2.7C20.5,7.5,20.1,8,19.4,8z M19.3,7C19.3,7,19.4,7,19.3,7c0.2,0,0.3-0.1,0.4-0.2V4.4C19.7,3.7,19,3,18.3,3h-6.2
								c-0.7,0-1.4,0.7-1.4,1.4v2.5c0,0.1,0,0.1,0,0.1c0,0,0,0,0.1,0c0.1,0,0.1,0,0.1,0c0,0,0,0,0-0.1V4.4c0-0.7,0.4-1.1,1.1-1.1
								h6.2c0.7,0,1.1,0.4,1.1,1.1L19.3,7C19.3,7,19.3,7,19.3,7C19.3,7,19.3,7,19.3,7z"/>
						</g>
						<g>
							<g>
								<defs>
									<path id="SVGID_7_" d="M15.1,17.5c-0.1,0-0.1,0-0.2,0l-14.4-5C0.2,12.4,0,12,0.1,11.6c0.1-0.2,0.5-0.5,0.9-0.4l14.1,5
										l14.1-5c0.4-0.1,0.6,0,0.7,0.4s0,0.6-0.4,0.7l-14.4,5C15.2,17.5,15.2,17.5,15.1,17.5z"/>
								</defs>
								<clipPath id="SVGID_8_">
									<use xlink:href="#SVGID_7_"  style="overflow:visible;"/>
								</clipPath>
								<polygon class="st79" points="30,11.1 29.7,11.1 30,11.1 								"/>
								<polygon class="st80" points="30,11.4 27.7,11.1 29.7,11.1 30,11.1 								"/>
								<polygon class="st81" points="30,11.6 25.7,11.1 27.7,11.1 30,11.4 								"/>
								<polygon class="st82" points="30,11.9 23.7,11.1 25.7,11.1 30,11.6 								"/>
								<polygon class="st83" points="30,12.1 21.7,11.1 23.7,11.1 30,11.9 								"/>
								<polygon class="st84" points="30,12.4 19.7,11.1 21.7,11.1 30,12.1 								"/>
								<polygon class="st85" points="30,12.6 17.8,11.1 19.7,11.1 30,12.4 								"/>
								<polygon class="st86" points="30,12.8 15.8,11.1 17.8,11.1 30,12.6 								"/>
								<polygon class="st87" points="30,13.1 13.8,11.1 15.8,11.1 30,12.8 								"/>
								<polygon class="st88" points="30,13.3 11.8,11.1 13.8,11.1 30,13.1 								"/>
								<polygon class="st89" points="30,13.6 9.8,11.1 11.8,11.1 30,13.3 								"/>
								<polygon class="st90" points="30,13.8 7.9,11.1 9.8,11.1 30,13.6 								"/>
								<polygon class="st91" points="30,14.1 5.9,11.1 7.9,11.1 30,13.8 								"/>
								<polygon class="st92" points="30,14.3 3.9,11.1 5.9,11.1 30,14.1 								"/>
								<polygon class="st93" points="30,14.5 1.9,11.1 3.9,11.1 30,14.3 								"/>
								<polygon class="st94" points="30,14.8 0,11.1 0,11.1 1.9,11.1 30,14.5 								"/>
								<polygon class="st95" points="30,15 0,11.4 0,11.1 30,14.8 								"/>
								<polygon class="st96" points="30,15.3 0,11.6 0,11.4 30,15 								"/>
								<polygon class="st97" points="30,15.5 0,11.8 0,11.6 30,15.3 								"/>
								<polygon class="st98" points="30,15.8 0,12.1 0,11.8 30,15.5 								"/>
								<polygon class="st99" points="30,16 0,12.3 0,12.1 30,15.8 								"/>
								<polygon class="st100" points="30,16.2 0,12.6 0,12.3 30,16 								"/>
								<polygon class="st101" points="30,16.5 0,12.8 0,12.6 30,16.2 								"/>
								<polygon class="st102" points="30,16.7 0,13.1 0,12.8 30,16.5 								"/>
								<polygon class="st103" points="30,17 0,13.3 0,13.1 30,16.7 								"/>
								<polygon class="st104" points="30,17.2 0,13.5 0,13.3 30,17 								"/>
								<polygon class="st105" points="30,17.5 0,13.8 0,13.5 30,17.2 								"/>
								<polygon class="st106" points="28.4,17.5 0,14 0,13.8 30,17.5 30,17.5 								"/>
								<polygon class="st107" points="26.4,17.5 0,14.3 0,14 28.4,17.5 								"/>
								<polygon class="st108" points="24.4,17.5 0,14.5 0,14.3 26.4,17.5 								"/>
								<polygon class="st109" points="22.5,17.5 0,14.7 0,14.5 24.4,17.5 								"/>
								<polygon class="st110" points="20.5,17.5 0,15 0,14.7 22.5,17.5 								"/>
								<polygon class="st111" points="18.5,17.5 0,15.2 0,15 20.5,17.5 								"/>
								<polygon class="st112" points="16.5,17.5 0,15.5 0,15.2 18.5,17.5 								"/>
								<polygon class="st113" points="14.5,17.5 0,15.7 0,15.5 16.5,17.5 								"/>
								<polygon class="st114" points="12.6,17.5 0,16 0,15.7 14.5,17.5 								"/>
								<polygon class="st115" points="10.6,17.5 0,16.2 0,16 12.6,17.5 								"/>
								<polygon class="st116" points="8.6,17.5 0,16.4 0,16.2 10.6,17.5 								"/>
								<polygon class="st117" points="6.6,17.5 0,16.7 0,16.4 8.6,17.5 								"/>
								<polygon class="st117" points="0,16.7 6.6,17.5 0,17.5 								"/>
							</g>
							
								<linearGradient id="SVGID_9_" gradientUnits="userSpaceOnUse" x1="-382.1875" y1="-207.9012" x2="-382.6198" y2="-207.1588" gradientTransform="matrix(29.9317 0 0 6.292 11459.0088 1318.3126)">
								<stop  offset="0" style="stop-color:#4F00B5"/>
								<stop  offset="1" style="stop-color:#7D2A86"/>
							</linearGradient>
							<path class="st118" d="M15.1,18l-0.4,0L0.3,13c-0.6-0.2-0.9-0.9-0.7-1.5l0-0.1c0.2-0.4,0.8-0.8,1.5-0.7l14,5L29,10.7
								c0.7-0.2,1.2,0.1,1.4,0.7c0,0.1,0.1,0.5-0.1,0.8c-0.1,0.2-0.4,0.4-0.7,0.5l-14,4.9c0,0,0,0.1-0.1,0.1L15.5,18L15.1,18z
								 M0.6,11.8c0,0.1,0.1,0.2,0.1,0.2l14.1,4.9l14.6-5.1c0,0,0.1,0,0.1,0c0,0,0,0,0-0.1c0,0,0,0,0-0.1c0,0,0,0-0.1,0l-14.2,5
								l-0.2-0.1l-14.1-5C0.8,11.7,0.6,11.7,0.6,11.8z"/>
						</g>
					</g>
				</g>
			</g>
		</g>
	</g>
</g>
</svg>
