<?xml version="1.0" encoding="UTF-8"?>
<svg width="23px" height="23px" viewBox="0 0 23 23" version="1.1" xmlns="http://www.w3.org/2000/svg" xmlns:xlink="http://www.w3.org/1999/xlink">
    <!-- Generator: Sketch 52 (66869) - http://www.bohemiancoding.com/sketch -->
    <title>Path</title>
    <desc>Created with Sketch.</desc>
    <g id="***********Symbols***********" stroke="none" stroke-width="1" fill="none" fill-rule="evenodd">
        <g id="click/droit/planning-tâche" transform="translate(-30.000000, -104.000000)" fill="#000000" fill-rule="nonzero">
            <g id="click/droit/tâche-en-attente">
                <g>
                    <g id="Clôturer-tâche" transform="translate(30.000000, 97.000000)">
                        <path d="M13.6071441,18.5001705 L22.5628819,9.54397406 C23.145706,8.96141061 23.145706,8.01948604 22.5628819,7.43692259 C21.9803305,6.85435914 21.0384255,6.85435914 20.4558741,7.43692259 L11.4998635,16.3931191 L2.54412588,7.43692259 C1.96130168,6.85435914 1.0196695,6.85435914 0.437118146,7.43692259 C-0.145706049,8.01948604 -0.145706049,8.96141061 0.437118146,9.54397406 L9.39285589,18.5001705 L0.437118146,27.456367 C-0.145706049,28.0389305 -0.145706049,28.9808551 0.437118146,29.5634185 C0.727438813,29.854018 1.10916685,30 1.49062205,30 C1.87207717,30 2.25353237,29.854018 2.54412588,29.5634185 L11.4998635,20.607222 L20.4558741,29.5634185 C20.7464676,29.854018 21.1279228,30 21.509378,30 C21.8908332,30 22.2722883,29.854018 22.5628819,29.5634185 C23.145706,28.9808551 23.145706,28.0389305 22.5628819,27.456367 L13.6071441,18.5001705 Z" id="Path"></path>
                    </g>
                </g>
            </g>
        </g>
    </g>
</svg>