<?xml version="1.0" encoding="utf-8"?>
<!-- Generator: Adobe Illustrator 23.0.2, SVG Export Plug-In . SVG Version: 6.00 Build 0)  -->
<svg version="1.1" id="Calque_1" xmlns="http://www.w3.org/2000/svg" xmlns:xlink="http://www.w3.org/1999/xlink" x="0px" y="0px"
	 viewBox="0 0 25 27" style="enable-background:new 0 0 25 27;" xml:space="preserve">
<title>refresh</title>
<desc>Created with Sketch.</desc>
<g>
	<g transform="translate(-3471.000000, -47.000000)">
		<g>
			<g id="SEARCH-BAR-PROJET">
				<g id="FILTRES" transform="translate(1190.000000, 25.000000)">
					<g id="DROP-DOWN-STATUT" transform="translate(1660.000000, 0.000000)">
						<g id="RÉINITIALISER-LES-FILTRES-ACTIF" transform="translate(600.000000, 4.000000)">
							<g id="refresh" transform="translate(22.000000, 19.000000)">
								<g id="Path">
									<path d="M1.4,15.8c-0.7,0-1.2-0.4-1.4-1.1C-1,10.5,0.4,6.1,3.7,3.2c2.4-2.1,5.5-3.2,8.7-3c2.1,0.1,4,0.7,5.8,1.7l0-1.2
										c0-0.4,0.1-0.7,0.4-1c0.3-0.3,0.6-0.4,1-0.5c0.8,0,1.5,0.6,1.5,1.4l0.2,4.5c0,0.8-0.6,1.4-1.4,1.4l-4.6,0.2c0,0,0,0,0,0
										c-0.8,0-1.5-0.6-1.5-1.4c0-0.4,0.1-0.7,0.4-1c0.3-0.3,0.6-0.4,1-0.5l0.4,0C12.2,2.4,8.3,3,5.6,5.3l0,0
										C3.1,7.5,2,10.8,2.8,14c0.1,0.4,0,0.7-0.2,1.1c-0.2,0.3-0.5,0.6-0.9,0.7C1.6,15.7,1.5,15.8,1.4,15.8z"/>
								</g>
								<g>
									<path d="M4,25.8c-0.7,0-1.4-0.6-1.4-1.3l-0.4-4.4c0-0.4,0.1-0.7,0.3-1c0.2-0.3,0.6-0.5,1-0.5L8,18.1
										c0.8-0.1,1.5,0.5,1.6,1.3c0,0.4-0.1,0.7-0.3,1c-0.2,0.3-0.6,0.5-1,0.5L7.5,21c1.3,0.6,2.7,0.9,4.1,0.9
										c2.3,0,4.5-0.8,6.2-2.3c2.5-2.2,3.6-5.5,2.8-8.6c-0.1-0.4,0-0.7,0.2-1.1c0.2-0.3,0.5-0.6,0.9-0.7c0.8-0.2,1.5,0.3,1.7,1
										l0,0c1,4.2-0.3,8.6-3.6,11.4c-2.2,1.9-5.1,3-8.1,3c-0.2,0-0.4,0-0.6,0c-2-0.1-3.9-0.7-5.6-1.7l0.1,1.1c0,0.4-0.1,0.7-0.3,1
										c-0.2,0.3-0.6,0.5-0.9,0.5L4,25.8z"/>
								</g>
							</g>
						</g>
					</g>
				</g>
			</g>
		</g>
	</g>
</g>
</svg>
