<?xml version="1.0" encoding="utf-8"?>
<!-- Generator: Adobe Illustrator 23.0.2, SVG Export Plug-In . SVG Version: 6.00 Build 0)  -->
<svg version="1.1" id="Calque_1" xmlns="http://www.w3.org/2000/svg" xmlns:xlink="http://www.w3.org/1999/xlink" x="0px" y="0px"
	 viewBox="0 0 29 29" style="enable-background:new 0 0 29 29;" xml:space="preserve">
<style type="text/css">
	.st0{fill:url(#SVGID_1_);}
	.st1{fill:url(#SVGID_2_);}
	.st2{fill:url(#SVGID_3_);}
	.st3{fill:url(#SVGID_4_);}
</style>
<title>Notes</title>
<desc>Created with Sketch.</desc>
<g id="Projet-modify_task-step1" transform="translate(-3832.000000, -1643.000000)">
	<g id="Group-13" transform="translate(3750.000000, 882.000000)">
		<g id="Group-10" transform="translate(49.000000, 684.000000)">
			<g transform="translate(5.000000, 57.000000)">
				<g id="Notes" transform="translate(29.000000, 21.000000)">
					<g id="Group-14">
						<g id="Line">
							
								<linearGradient id="SVGID_1_" gradientUnits="userSpaceOnUse" x1="-107.0356" y1="29.4297" x2="-107.7388" y2="28.2222" gradientTransform="matrix(14 0 0 -1 1515.2999 36.6667)">
								<stop  offset="0" style="stop-color:#4F00B5"/>
								<stop  offset="1" style="stop-color:#7D2A86"/>
							</linearGradient>
							<path class="st0" d="M20.3,8.7h-14c-0.6,0-1-0.4-1-1s0.4-1,1-1h14c0.6,0,1,0.4,1,1S20.9,8.7,20.3,8.7z"/>
						</g>
						<g id="Line-Copy">
							
								<linearGradient id="SVGID_2_" gradientUnits="userSpaceOnUse" x1="-102.4719" y1="29.4303" x2="-103.1757" y2="28.2218" gradientTransform="matrix(9 0 0 -1 935.3 42.6667)">
								<stop  offset="0" style="stop-color:#4F00B5"/>
								<stop  offset="1" style="stop-color:#7D2A86"/>
							</linearGradient>
							<path class="st1" d="M15.3,14.7h-9c-0.6,0-1-0.4-1-1s0.4-1,1-1h9c0.6,0,1,0.4,1,1S15.9,14.7,15.3,14.7z"/>
						</g>
						<g id="Line-Copy-2">
							
								<linearGradient id="SVGID_3_" gradientUnits="userSpaceOnUse" x1="-107.0356" y1="29.4292" x2="-107.7388" y2="28.2217" gradientTransform="matrix(14 0 0 -1 1515.2999 48.6667)">
								<stop  offset="0" style="stop-color:#4F00B5"/>
								<stop  offset="1" style="stop-color:#7D2A86"/>
							</linearGradient>
							<path class="st2" d="M20.3,20.7h-14c-0.6,0-1-0.4-1-1s0.4-1,1-1h14c0.6,0,1,0.4,1,1S20.9,20.7,20.3,20.7z"/>
						</g>
						<g id="Rectangle">
							
								<linearGradient id="SVGID_4_" gradientUnits="userSpaceOnUse" x1="-110.8695" y1="139.4331" x2="-111.1979" y2="138.8691" gradientTransform="matrix(26 0 0 -26 2901.3 3629.6667)">
								<stop  offset="0" style="stop-color:#4F00B5"/>
								<stop  offset="1" style="stop-color:#7D2A86"/>
							</linearGradient>
							<path class="st3" d="M23.8,27.7h-21c-1.9,0-3.5-1.6-3.5-3.5v-21c0-1.9,1.6-3.5,3.5-3.5h21c1.9,0,3.5,1.6,3.5,3.5v21
								C27.3,26.1,25.7,27.7,23.8,27.7z M2.8,1.7C2,1.7,1.3,2.3,1.3,3.2v21c0,0.8,0.7,1.5,1.5,1.5h21c0.8,0,1.5-0.7,1.5-1.5v-21
								c0-0.8-0.7-1.5-1.5-1.5H2.8z"/>
						</g>
					</g>
				</g>
			</g>
		</g>
	</g>
</g>
</svg>
