<svg width="7" height="10" viewBox="0 0 7 10" fill="none" xmlns="http://www.w3.org/2000/svg">
<path d="M6.51379 1.71245C5.89598 0.665107 4.79861 0.0252441 3.57832 0.000791015C3.52622 -0.000263672 3.47379 -0.000263672 3.42168 0.000791015C2.2014 0.0252441 1.10403 0.665107 0.486199 1.71245C-0.145314 2.783 -0.162592 4.06893 0.439972 5.15235L2.96434 9.69115C2.96547 9.69316 2.9666 9.69518 2.96778 9.69717C3.07884 9.8868 3.27781 10 3.50004 10C3.72225 10 3.92121 9.88678 4.03226 9.69717C4.03343 9.69518 4.03456 9.69316 4.0357 9.69115L6.56006 5.15235C7.16259 4.06893 7.14531 2.783 6.51379 1.71245ZM3.5 4.53126C2.71063 4.53126 2.06844 3.90042 2.06844 3.12501C2.06844 2.3496 2.71063 1.71876 3.5 1.71876C4.28936 1.71876 4.93155 2.3496 4.93155 3.12501C4.93155 3.90042 4.28938 4.53126 3.5 4.53126Z" fill="#7665A7"/>
</svg>
