<?xml version="1.0" encoding="utf-8"?>
<!-- Generator: Adobe Illustrator 23.0.2, SVG Export Plug-In . SVG Version: 6.00 Build 0)  -->
<svg version="1.1" id="Calque_1" xmlns="http://www.w3.org/2000/svg" xmlns:xlink="http://www.w3.org/1999/xlink" x="0px" y="0px"
	 viewBox="0 0 29 29" style="enable-background:new 0 0 29 29;" xml:space="preserve">
<style type="text/css">
	.st0{fill:#999999;}
</style>
<g id="Projet-modify_task-step1" transform="translate(-3832.000000, -1643.000000)">
	<g id="Group-13" transform="translate(3750.000000, 882.000000)">
		<g id="Group-10" transform="translate(49.000000, 684.000000)">
			<g transform="translate(5.000000, 57.000000)">
				<g id="Notes" transform="translate(29.000000, 21.000000)">
					<g id="Group-14">
						<g id="Line">
							<path class="st0" d="M20.3,9.2h-14c-0.6,0-1-0.4-1-1s0.4-1,1-1h14c0.6,0,1,0.4,1,1C21.3,8.8,20.9,9.2,20.3,9.2z"/>
						</g>
						<g id="Line-Copy">
							<path class="st0" d="M15.3,15h-9c-0.6,0-1-0.4-1-1s0.4-1,1-1h9c0.6,0,1,0.4,1,1S15.9,15,15.3,15z"/>
						</g>
						<g id="Line-Copy-2">
							<path class="st0" d="M20.3,20.9h-14c-0.6,0-1-0.4-1-1c0-0.6,0.4-1,1-1h14c0.6,0,1,0.4,1,1C21.3,20.5,20.9,20.9,20.3,20.9z"/>
						</g>
						<g id="Rectangle">
							<path class="st0" d="M23.8,27.7h-21c-1.9,0-3.5-1.6-3.5-3.4V3.8c0-1.9,1.6-3.4,3.5-3.4h21c1.9,0,3.5,1.6,3.5,3.4v20.5
								C27.3,26.1,25.7,27.7,23.8,27.7z M2.8,2.3C2,2.3,1.3,2.9,1.3,3.8v20.5c0,0.8,0.7,1.5,1.5,1.5h21c0.8,0,1.5-0.7,1.5-1.5V3.8
								c0-0.8-0.7-1.5-1.5-1.5C23.8,2.3,2.8,2.3,2.8,2.3z"/>
						</g>
					</g>
				</g>
			</g>
		</g>
	</g>
</g>
</svg>
