<?xml version="1.0" encoding="UTF-8"?>
<svg width="17px" height="17px" viewBox="0 0 17 17" version="1.1" xmlns="http://www.w3.org/2000/svg" xmlns:xlink="http://www.w3.org/1999/xlink">
    <!-- Generator: Sketch 52 (66869) - http://www.bohemiancoding.com/sketch -->
    <title>quit</title>
    <desc>Created with Sketch.</desc>
    <g id="***********Symbols***********" stroke="none" stroke-width="1" fill="none" fill-rule="evenodd">
        <g id="field/export/valid" transform="translate(-2499.000000, -11.000000)" fill="#FFFFFF">
            <g id="Quit" transform="translate(2488.000000, 0.000000)">
                <path d="M21.7412037,17.2412037 L27.7412037,17.2412037 C29.0298681,17.2412037 30.074537,18.2858726 30.074537,19.574537 C30.074537,20.8632014 29.0298681,21.9078704 27.7412037,21.9078704 L21.7412037,21.9078704 L21.7412037,27.824537 C21.7412037,29.0671777 20.7338444,30.074537 19.4912037,30.074537 C18.248563,30.074537 17.2412037,29.0671777 17.2412037,27.824537 L17.2412037,21.9078704 L11.4078704,21.9078704 C10.1192059,21.9078704 9.07453703,20.8632014 9.07453703,19.574537 C9.07453703,18.2858726 10.1192059,17.2412037 11.4078704,17.2412037 L17.2412037,17.2412037 L17.2412037,11.324537 C17.2412037,10.0818963 18.248563,9.07453703 19.4912037,9.07453703 C20.7338444,9.07453703 21.7412037,10.0818963 21.7412037,11.324537 L21.7412037,17.2412037 Z" id="quit" transform="translate(19.574537, 19.574537) rotate(45.000000) translate(-19.574537, -19.574537) "></path>
            </g>
        </g>
    </g>
</svg>