<?xml version="1.0" encoding="UTF-8"?>
<svg width="40px" height="40px" viewBox="0 0 40 40" version="1.1" xmlns="http://www.w3.org/2000/svg" xmlns:xlink="http://www.w3.org/1999/xlink">
    <!-- Generator: Sketch 52 (66869) - http://www.bohemiancoding.com/sketch -->
    <title>layers</title>
    <desc>Created with Sketch.</desc>
    <defs>
        <linearGradient x1="100%" y1="-35.3618862%" x2="21.1707826%" y2="100%" id="linearGradient-1">
            <stop stop-color="#4F00B5" offset="0%"></stop>
            <stop stop-color="#7D2A86" offset="100%"></stop>
        </linearGradient>
    </defs>
    <g id="***********Symbols***********" stroke="none" stroke-width="1" fill="none" fill-rule="evenodd">
        <g id="buttons/create-task/create-disable" transform="translate(-25.000000, -25.000000)" fill="url(#linearGradient-1)" fill-rule="nonzero">
            <g id="Creer-un-projet">
                <g id="layers" transform="translate(25.000000, 25.000000)">
                    <path d="M38.3163281,23.7960938 L37.4752344,23.2821094 L38.3163281,22.7647656 C40.5564844,21.395625 40.5614063,19.06375 38.3163281,17.6916406 L37.4752344,17.1776563 L38.3163281,16.6603125 C40.5623438,15.2876563 40.5545313,12.0303125 38.3191406,10.6642187 L21.8286719,0.5215625 C20.698125,-0.169296875 19.2936719,-0.169296875 18.1632031,0.5215625 C18.1621875,0.5221875 18.16125,0.5228125 18.1601563,0.5234375 L1.68367188,10.6625 C-0.56171875,12.0347656 -0.555078125,15.2921875 1.680625,16.6584375 L2.52460938,17.1777344 L1.68367188,17.6916406 C-0.553671875,19.0589844 -0.563203125,21.3914844 1.680625,22.7627344 L2.52460938,23.2821094 L1.68367188,23.7960156 C-0.56234375,25.1686719 -0.5590625,27.9669531 1.680625,29.3357031 L18.1632031,39.4785156 C19.2815625,40.161875 20.6860156,40.1767969 21.8314844,39.4767969 L38.3163281,29.3376563 C40.5613281,27.9657031 40.5610938,25.1680469 38.3163281,23.7960938 Z M2.90859375,12.6599219 L19.388125,2.5190625 L19.3876563,2.519375 C19.7640625,2.29070313 20.2309375,2.29125 20.6039063,2.51921875 L37.0945313,12.661875 C37.8404688,13.1176563 37.8449219,14.2025781 37.0917188,14.6628906 C35.8813281,15.4073438 21.1392969,24.4745313 20.6069531,24.8020313 C20.23,25.0323438 19.7619531,25.0322656 19.3882813,24.8039063 C18.6521875,24.3509375 3.56421875,15.0664063 2.90570313,14.6610938 C2.15960938,14.2052344 2.155,13.1204688 2.90859375,12.6599219 Z M2.34484375,20.228125 C2.34601563,20.1888281 2.44929688,19.9696875 2.90554688,19.6908594 L4.7634375,18.5553906 L18.1632813,26.8011719 C19.2840625,27.4860156 20.6885938,27.4978125 21.8314844,26.799375 L35.2358594,18.5549219 L37.0945313,19.6907812 C37.5507813,19.9696094 37.6540625,20.18875 37.6552344,20.2279687 C37.6540625,20.2675 37.5507031,20.4866406 37.0916406,20.7671875 C35.8810938,21.5117187 21.1392969,30.5788281 20.606875,30.9063281 C20.2299219,31.1366406 19.761875,31.1365625 19.3882031,30.9082031 C18.8554688,30.5803906 4.128125,21.5177344 2.905625,20.7653906 C2.44929688,20.4864844 2.34601563,20.2674219 2.34484375,20.228125 Z M37.0917188,27.3400781 L20.6067969,37.4792969 C20.23,37.7096094 19.761875,37.7095313 19.388125,37.4811719 L2.90546875,27.3383594 C2.16101563,26.8835156 2.16015625,26.2507031 2.90546875,25.7953125 L4.7634375,24.6599219 L18.1632813,32.905625 C19.285625,33.5914063 20.6900781,33.6014062 21.8314844,32.9038281 L35.2358594,24.659375 L37.0945313,25.7953125 C37.4509375,26.0130469 37.6552344,26.2942188 37.6552344,26.5667969 C37.6552344,26.839375 37.4508594,27.120625 37.0917188,27.3400781 Z" id="Shape"></path>
                </g>
            </g>
        </g>
    </g>
</svg>