<?xml version="1.0" encoding="utf-8"?>
<!-- Generator: Adobe Illustrator 23.0.2, SVG Export Plug-In . SVG Version: 6.00 Build 0)  -->
<svg version="1.1" id="Calque_1" xmlns="http://www.w3.org/2000/svg" xmlns:xlink="http://www.w3.org/1999/xlink" x="0px" y="0px"
	 viewBox="0 0 32 32" style="enable-background:new 0 0 32 32;" xml:space="preserve">
<style type="text/css">
	.st0{fill:url(#Shape_1_);}
	.st1{fill:none;stroke:url(#Combined-Shape_1_);stroke-width:2;}
</style>
<g>
	<g transform="translate(-2875.000000, -45.000000)">
		<g id="FILTRES">
			<g transform="translate(1190.000000, 25.000000)">
				<g id="DROP-DOWN-COMPETENCES" transform="translate(1660.000000, 0.000000)">
					<g id="competence" transform="translate(25.000000, 20.000000)">
						
							<linearGradient id="Shape_1_" gradientUnits="userSpaceOnUse" x1="-271.0351" y1="423.6779" x2="-271.8234" y2="422.3243" gradientTransform="matrix(31.3745 0 0 -29.9395 8535.2344 12675.2803)">
							<stop  offset="0" style="stop-color:#4F00B5"/>
							<stop  offset="1" style="stop-color:#7D2A86"/>
						</linearGradient>
						<path id="Shape" class="st0" d="M31,11.9L16.3,1.2c-0.4-0.3-0.8-0.3-1.2,0L0.4,11.9c-0.4,0.3-0.5,0.7-0.4,1.1l5.6,17.2
							c0.1,0.4,0.5,0.7,1,0.7h18.1c0.4,0,0.8-0.3,1-0.7L31.3,13C31.5,12.6,31.3,12.1,31,11.9z M24,28.9H7.4L2.2,13.1l13.4-9.8
							l13.4,9.8L24,28.9z"/>
						
							<linearGradient id="Combined-Shape_1_" gradientUnits="userSpaceOnUse" x1="-270.1449" y1="416.5615" x2="-270.9332" y2="415.2079" gradientTransform="matrix(28.099 0 0 -19.5506 7616.3296 8145.4443)">
							<stop  offset="0" style="stop-color:#4F00B5"/>
							<stop  offset="1" style="stop-color:#7D2A86"/>
						</linearGradient>
						<path id="Combined-Shape" class="st1" d="M16.3,22.7L7,29.6L16.3,22.7c-0.2-0.3-0.3-0.7-0.3-1.2c0-0.3,0.1-0.6,0.2-0.9
							l-5.4-2.9c0.7-0.4,1.2-1.2,1.2-2.1c0-0.4-0.1-0.7-0.2-1l6.5-0.9c0.3,0.7,1,1.3,1.8,1.4L18.9,19c1.2,0.2,2.1,1.2,2.1,2.5
							c0,0.8-0.4,1.5-1,2l4.5,6.1L20,23.5c-0.4,0.3-0.9,0.5-1.5,0.5C17.5,24,16.7,23.5,16.3,22.7z M23,12.5l6.6,0.5L23,12.5
							c0,1.4-1.1,2.5-2.5,2.5c-0.2,0-0.3,0-0.5,0L18.9,19c-0.1,0-0.2,0-0.4,0c-1.1,0-2,0.7-2.3,1.6l-5.4-2.9C10.4,17.9,10,18,9.5,18
							C8.1,18,7,16.9,7,15.5c0-0.3,0.1-0.6,0.2-0.9L1.5,13l5.7,1.6C7.6,13.6,8.5,13,9.5,13c1,0,1.9,0.6,2.3,1.5l6.5-0.9
							c-0.1-0.3-0.2-0.7-0.2-1c0-1.4,1.1-2.5,2.5-2.5S23,11.1,23,12.5C23,12.5,23,12.5,23,12.5z"/>
					</g>
				</g>
			</g>
		</g>
	</g>
</g>
</svg>
