<?xml version="1.0" encoding="UTF-8"?>
<svg width="21px" height="20px" viewBox="0 0 21 20" version="1.1" xmlns="http://www.w3.org/2000/svg" xmlns:xlink="http://www.w3.org/1999/xlink">
    <!-- Generator: Sketch 52 (66869) - http://www.bohemiancoding.com/sketch -->
    <title>alert</title>
    <desc>Created with Sketch.</desc>
    <g id="↪️-Login-/-Dashboard" stroke="none" stroke-width="1" fill="none" fill-rule="evenodd">
        <g id="Projet-" transform="translate(-2476.000000, -1266.000000)" fill="#000000" fill-rule="nonzero">
            <g id="Attention" transform="translate(2077.000000, 1203.000000)">
                <g id="Group-2" transform="translate(399.000000, 55.000000)">
                    <g id="alert" transform="translate(0.000000, 8.000000)">
                        <path d="M20.56368,15.3038261 L13.1453857,1.521927 C11.9535122,-0.505961577 9.04808707,-0.508655978 7.85461389,1.521927 L0.436688756,15.3038261 C-0.781721936,17.3759857 0.693405666,20 3.08145945,20 L17.9182941,20 C20.3043381,20 21.7820907,17.3780998 20.56368,15.3038261 Z M10.4999998,17.5128612 C9.82168312,17.5128612 9.26953053,16.9548302 9.26953053,16.2692919 C9.26953053,15.5837535 9.82168312,15.0257225 10.4999998,15.0257225 C11.1783165,15.0257225 11.7304691,15.5837535 11.7304691,16.2692919 C11.7304691,16.9548302 11.1783165,17.5128612 10.4999998,17.5128612 Z M11.7304691,12.5385837 C11.7304691,13.2241221 11.1783165,13.7821531 10.4999998,13.7821531 C9.82168312,13.7821531 9.26953053,13.2241221 9.26953053,12.5385837 L9.26953053,6.32073687 C9.26953053,5.63519852 9.82168312,5.07716749 10.4999998,5.07716749 C11.1783165,5.07716749 11.7304691,5.63519852 11.7304691,6.32073687 L11.7304691,12.5385837 Z" id="Shape"></path>
                    </g>
                </g>
            </g>
        </g>
    </g>
</svg>