<?xml version="1.0" encoding="utf-8"?>
<!-- Generator: Adobe Illustrator 23.0.2, SVG Export Plug-In . SVG Version: 6.00 Build 0)  -->
<svg version="1.1" id="Calque_1" xmlns="http://www.w3.org/2000/svg" xmlns:xlink="http://www.w3.org/1999/xlink" x="0px" y="0px"
	 viewBox="0 0 32 32" style="enable-background:new 0 0 32 32;" xml:space="preserve">
<style type="text/css">
	.st0{fill:#888888;stroke:#888888;stroke-width:2;}
</style>
<g>
	<g transform="translate(-34.000000, -44.000000)">
		<g id="SEARCH-BAR">
			<g transform="translate(35.000000, 35.000000)">
				<g id="search" transform="translate(0.000000, 10.000000)">
					<path id="Shape" class="st0" d="M29.6,27.9l-8.5-8.5c1.7-2,2.6-4.6,2.6-7.5C23.7,5.3,18.4,0,11.9,0S0,5.3,0,11.9
						s5.3,11.9,11.9,11.9c2.8,0,5.4-1,7.5-2.6l8.5,8.5c0.2,0.2,0.6,0.4,0.9,0.4c0.3,0,0.6-0.1,0.9-0.4
						C30.1,29.1,30.1,28.4,29.6,27.9z M11.9,21.3c-5.2,0-9.4-4.2-9.4-9.4s4.2-9.4,9.4-9.4s9.4,4.2,9.4,9.4S17.1,21.3,11.9,21.3z"/>
				</g>
			</g>
		</g>
	</g>
</g>
</svg>
