<?xml version="1.0" encoding="utf-8"?>
<!-- Generator: Adobe Illustrator 23.0.2, SVG Export Plug-In . SVG Version: 6.00 Build 0)  -->
<svg version="1.1" id="Calque_1" xmlns="http://www.w3.org/2000/svg" xmlns:xlink="http://www.w3.org/1999/xlink" x="0px" y="0px"
	 viewBox="0 0 32 32" style="enable-background:new 0 0 32 32;" xml:space="preserve">
<style type="text/css">
	.st0{fill:#888888;stroke:#888888;}
</style>
<g>
	<g transform="translate(-1434.000000, -44.000000)">
		<g id="FILTRES">
			<g transform="translate(1190.000000, 25.000000)">
				<g id="DROP-DOWN-DISPO" transform="translate(220.000000, 0.000000)">
					<g id="calendar-copy" transform="translate(25.000000, 20.000000)">
						<path id="Shape" class="st0" d="M26.1,2.3h-2.7V0.9C23.4,0.4,23,0,22.5,0s-0.9,0.4-0.9,0.9v1.4H8.4V0.9C8.4,0.4,8,0,7.5,0
							S6.6,0.4,6.6,0.9v1.4H3.9C1.7,2.3,0,4,0,6.2v19.7c0,2.1,1.7,3.8,3.9,3.8h22.3c2.1,0,3.9-1.7,3.9-3.8V6.2
							C30,4,28.3,2.3,26.1,2.3z M3.9,4.2h2.7v0.9C6.6,5.6,7,6,7.5,6s0.9-0.4,0.9-0.9V4.2h13.1v0.9C21.6,5.6,22,6,22.5,6
							s0.9-0.4,0.9-0.9V4.2h2.7c1.1,0,2,0.9,2,2v2.2H1.9V6.2C1.9,5.1,2.8,4.2,3.9,4.2z M26.1,27.9H3.9c-1.1,0-2-0.9-2-2V10.2h26.2
							v15.7C28.1,27,27.2,27.9,26.1,27.9z"/>
					</g>
				</g>
			</g>
		</g>
	</g>
</g>
</svg>
