<?xml version="1.0" encoding="utf-8"?>
<!-- Generator: Adobe Illustrator 23.0.2, SVG Export Plug-In . SVG Version: 6.00 Build 0)  -->
<svg version="1.1" id="Calque_1" xmlns="http://www.w3.org/2000/svg" xmlns:xlink="http://www.w3.org/1999/xlink" x="0px" y="0px"
	 viewBox="0 0 222 71" style="enable-background:new 0 0 222 71;" xml:space="preserve">
<style type="text/css">
	.st0{fill-rule:evenodd;clip-rule:evenodd;fill:url(#Rectangle-Copy_1_);}
	.st1{fill-rule:evenodd;clip-rule:evenodd;}
	.st2{fill-rule:evenodd;clip-rule:evenodd;fill:url(#SVGID_1_);}
	.st3{fill-rule:evenodd;clip-rule:evenodd;fill:url(#SVGID_2_);}
	.st4{fill-rule:evenodd;clip-rule:evenodd;fill:#FFFFFF;}
</style>
<g>
	<g id="Login-Copy" transform="translate(-2446.000000, -212.000000)">
		<g id="KOLAB-LOGO" transform="translate(2451.000000, 212.000000)">
			<g id="Logo" transform="translate(0.448000, 9.080221)">
				
					<linearGradient id="Rectangle-Copy_1_" gradientUnits="userSpaceOnUse" x1="-17.4835" y1="155.8276" x2="-18.0846" y2="153.6452" gradientTransform="matrix(11.1781 9.3796 19.7464 -23.5329 -2833.9216 3819.6106)">
					<stop  offset="0" style="stop-color:#FF00CC"/>
					<stop  offset="1" style="stop-color:#333399"/>
				</linearGradient>
				<path id="Rectangle-Copy" class="st0" d="M26.2,5.6L26.2,5.6c3.1,2.6,3.5,7.2,0.9,10.3L16.7,28.2c-2.6,3.1-7.2,3.5-10.3,0.9l0,0
					c-3.1-2.6-3.5-7.2-0.9-10.3L15.9,6.5C18.5,3.4,23.1,3,26.2,5.6z"/>
				<g id="Rectangle-Copy-2" transform="translate(16.296000, 28.112000) rotate(40.000000) translate(-16.296000, -28.112000) ">
					<g>
						<path id="path-2" class="st1" d="M16.3,12.8L16.3,12.8c4,0,7.3,3.3,7.3,7.3l0,16.1c0,4-3.3,7.3-7.3,7.3l0,0
							c-4,0-7.3-3.3-7.3-7.3L9,20C9,16,12.3,12.8,16.3,12.8z"/>
					</g>
					<g>
						
							<linearGradient id="SVGID_1_" gradientUnits="userSpaceOnUse" x1="72.5135" y1="147.6609" x2="71.9124" y2="145.4785" gradientTransform="matrix(11.1781 -19.7465 -9.3796 -23.5329 596.2559 4892.6333)">
							<stop  offset="0" style="stop-color:#FF00CC"/>
							<stop  offset="1" style="stop-color:#333399"/>
						</linearGradient>
						<path class="st2" d="M16.3,12.8L16.3,12.8c4,0,7.3,3.3,7.3,7.3l0,16.1c0,4-3.3,7.3-7.3,7.3l0,0c-4,0-7.3-3.3-7.3-7.3L9,20
							C9,16,12.3,12.8,16.3,12.8z"/>
					</g>
				</g>
				<g id="Rectangle-Copy-3" transform="translate(17.064000, 38.096000) rotate(40.000000) translate(-17.064000, -38.096000) ">
					<g>
						<path id="path-4" class="st1" d="M17.1,22.7L17.1,22.7c4,0,7.3,3.3,7.3,7.3l0,16.1c0,4-3.3,7.3-7.3,7.3h0
							c-4,0-7.3-3.3-7.3-7.3l0-16.1C9.8,26,13,22.7,17.1,22.7z"/>
					</g>
					<g>
						
							<linearGradient id="SVGID_2_" gradientUnits="userSpaceOnUse" x1="66.2756" y1="150.4904" x2="65.6745" y2="148.308" gradientTransform="matrix(11.1781 -19.7465 -9.3796 -23.5329 693.2912 4846.0264)">
							<stop  offset="0" style="stop-color:#FF00CC"/>
							<stop  offset="1" style="stop-color:#333399"/>
						</linearGradient>
						<path class="st3" d="M17.1,22.7L17.1,22.7c4,0,7.3,3.3,7.3,7.3l0,16.1c0,4-3.3,7.3-7.3,7.3h0c-4,0-7.3-3.3-7.3-7.3l0-16.1
							C9.8,26,13,22.7,17.1,22.7z"/>
					</g>
				</g>
			</g>
			<path id="Kolab" class="st4" d="M126.8,0.5c2.1,0,3.8,1.7,3.8,3.8l0,0v50c0,2.2-1.7,3.8-3.8,3.8c-2.2,0-3.8-1.7-3.8-3.8l0,0v-50
				C123,2.2,124.7,0.5,126.8,0.5z M99.4,19.4c10.7,0,19.3,8.6,19.3,19.3c0,10.6-8.6,19.3-19.3,19.3c-10.6,0-19.3-8.7-19.3-19.3
				C80.1,28,88.8,19.4,99.4,19.4z M154.3,19.6c10.8,0,18.9,8.6,18.9,19.4l0,0v15.1c0,2.2-1.6,3.8-3.8,3.8c-1.5,0-3.7-1.6-3.7-3.8
				c-3.3,2.8-7,3.8-11.4,3.8c-10.8,0-19.4-8.1-19.4-18.9S143.5,19.6,154.3,19.6z M181.5,0.3c2.1,0,3.8,1.7,3.8,3.8l0,0v19.1
				c3.2-2.5,7.3-3.9,11.7-3.9c10.7,0,19.3,8.6,19.3,19.3c0,10.6-8.6,19.3-19.3,19.3c-10.6,0-19.3-8.7-19.3-19.3l0,0V4.1
				C177.7,2,179.4,0.3,181.5,0.3z M71.6,0.5c2.1,0,3.8,1.7,3.8,3.8V54c0,2.2-1.7,3.8-3.8,3.8s-3.8-1.7-3.8-3.8V40.6L65.4,39
				L50.8,56.5c-0.7,0.9-1.8,1.4-2.9,1.4c-0.8,0-1.7-0.3-2.4-0.9c-1.6-1.3-1.8-3.7-0.5-5.3l14-16.8L45.5,26c-1.6-1.3-1.8-3.8-0.5-5.4
				c1.4-1.6,3.8-1.8,5.4-0.5l17.4,11.4V4.2C67.8,2.2,69.6,0.5,71.6,0.5z M99.4,27c-6.5,0-11.7,5.2-11.7,11.7
				c0,6.4,5.2,11.7,11.7,11.7c6.5,0,11.7-5.3,11.7-11.7C111,32.3,105.8,27,99.4,27z M154.3,27.1c-6.5,0-11.9,5.5-11.9,11.9
				s5.5,11.4,11.9,11.4c6.5,0,11.4-4.9,11.4-11.4S160.8,27.1,154.3,27.1z M197,26.9c-6.5,0-11.7,5.2-11.7,11.6l0,0v0.1
				c0,6.5,5.2,11.7,11.7,11.7s11.7-5.3,11.7-11.7C208.6,32.1,203.4,26.9,197,26.9z"/>
		</g>
	</g>
</g>
</svg>
