<?xml version="1.0" encoding="utf-8"?>
<!-- Generator: Adobe Illustrator 22.1.0, SVG Export Plug-In . SVG Version: 6.00 Build 0)  -->
<svg version="1.1" id="Calque_1" xmlns="http://www.w3.org/2000/svg" xmlns:xlink="http://www.w3.org/1999/xlink" x="0px" y="0px"
	 viewBox="0 0 60 60" style="enable-background:new 0 0 60 60;" xml:space="preserve">
<style type="text/css">
	.st0{fill:#051033;fill-opacity:0;}
	.st1{filter:url(#Adobe_OpacityMaskFilter);}
	.st2{fill:#FFFFFF;}
	.st3{mask:url(#mask-2_1_);}
	.st4{fill:#787B7F;}
</style>
<g id="Symbols">
	<g id="field_x2F_mdp-filled" transform="translate(-818.000000, -38.000000)">
		<g id="Mot-de-passe">
			<g id="_xD83D__xDC9A_-Icon" transform="translate(818.000000, 38.000000)">
				<g id="Mask">
					<path id="path-1_1_" class="st0" d="M2.5,30C7.3,18.6,16.2,10,30,10s22.7,8.6,27.5,20C52.7,41.4,43.8,50,30,50S7.3,41.4,2.5,30
						z M22.5,30c0-4.2,3.3-7.5,7.5-7.5s7.5,3.3,7.5,7.5s-3.3,7.5-7.5,7.5S22.5,34.2,22.5,30z M17.5,30c0,6.9,5.6,12.5,12.5,12.5
						S42.5,36.9,42.5,30S36.9,17.5,30,17.5S17.5,23.1,17.5,30z"/>
				</g>
				<defs>
					<filter id="Adobe_OpacityMaskFilter" filterUnits="userSpaceOnUse" x="0" y="0" width="60" height="60">
						<feColorMatrix  type="matrix" values="1 0 0 0 0  0 1 0 0 0  0 0 1 0 0  0 0 0 1 0"/>
					</filter>
				</defs>
				<mask maskUnits="userSpaceOnUse" x="0" y="0" width="60" height="60" id="mask-2_1_">
					<g class="st1">
						<path id="path-1_2_" class="st2" d="M2.5,30C7.3,18.6,16.2,10,30,10s22.7,8.6,27.5,20C52.7,41.4,43.8,50,30,50
							S7.3,41.4,2.5,30z M22.5,30c0-4.2,3.3-7.5,7.5-7.5s7.5,3.3,7.5,7.5s-3.3,7.5-7.5,7.5S22.5,34.2,22.5,30z M17.5,30
							c0,6.9,5.6,12.5,12.5,12.5S42.5,36.9,42.5,30S36.9,17.5,30,17.5S17.5,23.1,17.5,30z"/>
					</g>
				</mask>
				<g id="_x21B3__xD83C__xDFA8_-Icon-Color" class="st3">
					<g id="Grey-_x2F_-Grey-Base-500" transform="translate(-2.000000, -10.000000)">
						<polygon class="st4" points="2,10 62,10 62,70 2,70 						"/>
					</g>
				</g>
			</g>
		</g>
	</g>
</g>
</svg>
