<?xml version="1.0" encoding="utf-8"?>
<!-- Generator: Adobe Illustrator 22.1.0, SVG Export Plug-In . SVG Version: 6.00 Build 0)  -->
<svg version="1.1" id="Calque_1" xmlns="http://www.w3.org/2000/svg" xmlns:xlink="http://www.w3.org/1999/xlink" x="0px" y="0px"
	 viewBox="0 0 50 50" style="enable-background:new 0 0 50 50;" xml:space="preserve">
<style type="text/css">
	.st0{fill:#C9CED6;}
</style>
<g id="Symbols">
	<g id="field_x2F_add-mail" transform="translate(-824.000000, -39.000000)">
		<g id="field_x2F_add-mail-copy">
			<g id="Adresse-mail">
				<g id="_xD83D__xDC9A_-Icon" transform="translate(824.000000, 39.000000)">
					<path id="Shape" class="st0" d="M45.3,6.5H4.7C2.1,6.5,0,8.6,0,11.1v27.7c0,2.6,2.1,4.6,4.7,4.6h40.6c2.6,0,4.7-2.1,4.7-4.6
						V11.1C50,8.6,47.9,6.5,45.3,6.5z M44.8,9.5c0.2,0,0.4,0,0.6,0.1l-20.8,18L3.8,9.6C4,9.6,4.2,9.5,4.4,9.5H44.8z M45.4,40.5H4.6
						c-0.9,0-1.6-0.7-1.6-1.5V13.3L24,30.9c0.3,0.2,0.7,0.4,1,0.4s0.7-0.1,1-0.4l20.9-17.7V39C46.9,39.8,46.2,40.5,45.4,40.5z"/>
				</g>
			</g>
		</g>
	</g>
</g>
</svg>
