<?xml version="1.0" standalone="no"?>
<!DOCTYPE svg PUBLIC "-//W3C//DTD SVG 20010904//EN"
 "http://www.w3.org/TR/2001/REC-SVG-20010904/DTD/svg10.dtd">
<svg version="1.0" xmlns="http://www.w3.org/2000/svg"
 width="700.000000pt" height="700.000000pt" viewBox="0 0 700.000000 700.000000"
 preserveAspectRatio="xMidYMid meet">
<metadata>
Created by potrace 1.11, written by Peter Selinger 2001-2013
</metadata>
<g transform="translate(0.000000,700.000000) scale(0.100000,-0.100000)"
fill="#000000" stroke="none">
<path d="M4049 6726 c-2 -2 -24 -6 -49 -9 -205 -22 -440 -152 -595 -329 -77
-89 -64 -74 -184 -218 -58 -69 -118 -141 -135 -160 -17 -20 -51 -60 -76 -90
-25 -29 -61 -72 -80 -95 -19 -23 -53 -64 -75 -91 -22 -26 -54 -64 -71 -84 -17
-19 -78 -91 -135 -160 -58 -69 -199 -237 -314 -375 -115 -137 -212 -252 -215
-255 -17 -15 -152 -183 -182 -225 -94 -134 -147 -270 -173 -450 -7 -45 -8
-189 -1 -220 2 -11 7 -42 11 -70 24 -168 123 -365 253 -504 44 -47 44 -48 -2
-99 -46 -50 -103 -129 -140 -192 -216 -368 -158 -852 139 -1168 52 -55 53 -58
37 -77 -90 -106 -169 -293 -193 -456 -14 -100 -6 -289 16 -374 75 -284 250
-508 505 -644 369 -197 839 -131 1140 161 31 29 114 123 185 208 72 85 140
166 151 180 12 14 178 212 369 440 191 228 367 438 390 465 23 28 91 109 151
180 60 72 146 175 192 230 98 116 144 184 185 275 167 366 97 792 -177 1087
l-53 57 45 66 c123 179 182 391 169 604 -4 56 -9 117 -13 136 -10 63 -64 214
-100 280 -38 70 -126 190 -168 229 -14 14 -26 28 -26 32 0 4 28 40 61 80 122
147 185 272 225 449 26 118 23 326 -6 435 -108 395 -382 654 -785 741 -35 7
-270 16 -276 10z"/>
</g>
</svg>
