<svg width="18" height="15" viewBox="0 0 18 15" fill="none" xmlns="http://www.w3.org/2000/svg">
<path fill-rule="evenodd" clip-rule="evenodd" d="M2.68435 14.0018H15.337C16.2693 14.0018 17.0018 13.2869 17.0018 12.377V4.57793C17.0018 3.66804 16.2693 2.95312 15.337 2.95312H2.68435C1.75205 2.95312 1.01953 3.66804 1.01953 4.57793V12.377C1.01953 13.2869 1.75205 14.0018 2.68435 14.0018ZM1.68359 4.57845C1.68359 4.05851 2.14974 3.60357 2.68249 3.60357H15.3351C15.8679 3.60357 16.334 4.05851 16.334 4.57845V12.3775C16.334 12.8975 15.8679 13.3524 15.3351 13.3524H2.68249C2.14974 13.3524 1.68359 12.8975 1.68359 12.3775V4.57845Z" fill="#AF9DE2"/>
<path d="M15.337 13.5851H2.68435V14.4185H15.337V13.5851ZM16.5852 12.377C16.5852 13.0473 16.0488 13.5851 15.337 13.5851V14.4185C16.4898 14.4185 17.4185 13.5265 17.4185 12.377H16.5852ZM16.5852 4.57793V12.377H17.4185V4.57793H16.5852ZM15.337 3.36979C16.0488 3.36979 16.5852 3.90766 16.5852 4.57793H17.4185C17.4185 3.42842 16.4898 2.53646 15.337 2.53646V3.36979ZM2.68435 3.36979H15.337V2.53646H2.68435V3.36979ZM1.4362 4.57793C1.4362 3.90766 1.97256 3.36979 2.68435 3.36979V2.53646C1.53155 2.53646 0.602865 3.42842 0.602865 4.57793H1.4362ZM1.4362 12.377V4.57793H0.602865V12.377H1.4362ZM2.68435 13.5851C1.97256 13.5851 1.4362 13.0473 1.4362 12.377H0.602865C0.602865 13.5265 1.53155 14.4185 2.68435 14.4185V13.5851ZM2.68249 3.1869C1.92924 3.1869 1.26693 3.8189 1.26693 4.57845H2.10026C2.10026 4.29813 2.37025 4.02023 2.68249 4.02023V3.1869ZM15.3351 3.1869H2.68249V4.02023H15.3351V3.1869ZM16.7507 4.57845C16.7507 3.81889 16.0884 3.1869 15.3351 3.1869V4.02023C15.6474 4.02023 15.9174 4.29813 15.9174 4.57845H16.7507ZM16.7507 12.3775V4.57845H15.9174V12.3775H16.7507ZM15.3351 13.7691C16.0884 13.7691 16.7507 13.1371 16.7507 12.3775H15.9174C15.9174 12.6578 15.6474 12.9357 15.3351 12.9357V13.7691ZM2.68249 13.7691H15.3351V12.9357H2.68249V13.7691ZM1.26693 12.3775C1.26693 13.1371 1.92924 13.7691 2.68249 13.7691V12.9357C2.37025 12.9357 2.10026 12.6578 2.10026 12.3775H1.26693ZM1.26693 4.57845V12.3775H2.10026V4.57845H1.26693Z" fill="#AF9DE2"/>
<path d="M11.3413 3.59969C11.1415 3.59969 11.0083 3.4697 11.0083 3.27473V1.97488C11.0083 1.77991 10.8751 1.64992 10.6753 1.64992H7.3457C7.14592 1.64992 7.01273 1.77991 7.01273 1.97488V3.27473C7.01273 3.4697 6.87954 3.59969 6.67977 3.59969C6.47999 3.59969 6.3468 3.4697 6.3468 3.27473V1.97488C6.3468 1.45495 6.81295 1 7.3457 1H10.6753C11.2081 1 11.6742 1.45495 11.6742 1.97488V3.27473C11.6742 3.4697 11.541 3.59969 11.3413 3.59969Z" fill="#AF9DE2" stroke="#AF9DE2" stroke-width="0.833333"/>
<path d="M9.00886 8.79742C8.94227 8.79742 8.94227 8.79742 8.87567 8.79742L1.21749 6.19773C1.08431 6.13274 0.95112 5.93776 1.01771 5.74279C1.08431 5.6128 1.28408 5.48282 1.48386 5.54781L9.00886 8.1475L16.5339 5.54781C16.7336 5.48282 16.8668 5.54781 16.9334 5.74279C17 5.93776 16.9334 6.06775 16.7336 6.13274L9.07545 8.73243C9.07545 8.79742 9.07545 8.79742 9.00886 8.79742Z" fill="#AF9DE2" stroke="#AF9DE2" stroke-width="0.833333"/>
</svg>
