<svg width="16" height="15" viewBox="0 0 16 15" fill="none" xmlns="http://www.w3.org/2000/svg">
<path fill-rule="evenodd" clip-rule="evenodd" d="M14.0557 8.73104L14.3711 8.92381C15.2131 9.43839 15.2132 10.4877 14.3711 11.0023L8.18823 14.8051C7.75861 15.0677 7.23184 15.0621 6.81239 14.8057L0.630341 11.0015C-0.209689 10.4882 -0.210919 9.43862 0.631484 8.92378L0.94689 8.73104L0.630341 8.53624C-0.211242 8.02193 -0.207667 7.14709 0.631484 6.63424L0.94689 6.44149L0.630341 6.24672C-0.208194 5.73429 -0.210685 4.51254 0.631484 3.99785L6.81124 0.195041L6.81239 0.194338C7.23639 -0.0647794 7.76315 -0.0647794 8.18718 0.194338L14.3722 3.9985C15.2106 4.51087 15.2135 5.73259 14.3711 6.24743L14.0557 6.44146L14.3711 6.63424C15.2132 7.14887 15.2113 8.02348 14.3711 8.537L14.0557 8.73104ZM7.27181 0.943528L1.09091 4.74701C0.80826 4.91975 0.809989 5.32661 1.08982 5.49759L7.27187 9.30181C7.41202 9.38745 7.58757 9.38748 7.72895 9.3011L13.9118 5.49826C14.1943 5.32561 14.1926 4.91869 13.9129 4.74775L7.72781 0.943586C7.58792 0.858083 7.41281 0.857878 7.27164 0.943645L7.27181 0.943528ZM0.879467 7.58559C0.879906 7.57086 0.918643 7.48866 1.08977 7.38408L1.7866 6.95821L6.81242 10.0509C7.23278 10.3078 7.75958 10.3122 8.18823 10.0502L13.2158 6.95803L13.9129 7.38405C14.084 7.48863 14.1227 7.57083 14.1232 7.58554C14.1227 7.60036 14.084 7.68255 13.9118 7.78778L7.72893 11.5906C7.58754 11.677 7.41199 11.677 7.27184 11.5913L1.0898 7.7871C0.918643 7.6825 0.879906 7.60033 0.879467 7.58559ZM7.7289 14.0559L13.9118 10.253C14.0465 10.1707 14.1232 10.0652 14.1232 9.96301C14.1232 9.86077 14.0466 9.75531 13.9129 9.67365L13.2158 9.2476L8.18823 12.3398C7.76013 12.6014 7.23337 12.5977 6.81242 12.3405L1.7866 9.2478L1.08974 9.67365C0.810198 9.84445 0.81052 10.0818 1.08974 10.2524L7.27181 14.0566C7.41199 14.1423 7.58757 14.1423 7.7289 14.0559Z" fill="white"/>
</svg>
