<svg width="5" height="8" viewBox="0 0 5 8" fill="none" xmlns="http://www.w3.org/2000/svg">
<path d="M0.135757 4.31216L3.92315 7.8722C4.01075 7.9546 4.12769 8 4.25237 8C4.37706 8 4.49399 7.9546 4.58159 7.8722L4.86051 7.61008C5.042 7.43929 5.042 7.1617 4.86051 6.99116L1.68014 4.00166L4.86404 1.00884C4.95163 0.926432 5 0.816579 5 0.699441C5 0.582174 4.95163 0.472322 4.86404 0.389851L4.58512 0.127804C4.49745 0.0453982 4.38059 4.22686e-07 4.2559 4.11786e-07C4.13122 4.00886e-07 4.01428 0.0453981 3.92668 0.127804L0.135757 3.69109C0.0479516 3.77376 -0.000275729 3.88413 1.30324e-06 4.00146C-0.000275749 4.11925 0.0479516 4.22956 0.135757 4.31216Z" fill="white"/>
</svg>
