<svg width="14" height="15" viewBox="0 0 14 15" fill="none" xmlns="http://www.w3.org/2000/svg">
<path d="M8.3 14.24C10.66 14.24 12.26 13.12 13.38 11.6L11.96 10.82C11.2 11.96 9.82 12.76 8.3 12.76C6.02 12.76 4.16 11.38 3.46 9.26H9.52V8.22H3.22C3.18 7.94 3.16 7.64 3.16 7.34C3.16 7.02 3.18 6.72 3.22 6.42H9.52V5.38H3.46C4.18 3.28 6.02 1.92 8.3 1.92C9.82 1.92 11.2 2.74 11.96 3.86L13.36 3.08C12.3 1.58 10.66 0.439999 8.3 0.439999C5.1 0.439999 2.48 2.38 1.68 5.38H0.62V6.42H1.48C1.46 6.72 1.44 7.04 1.44 7.34C1.44 7.64 1.46 7.94 1.48 8.22H0.62V9.26H1.68C2.46 12.3 5.08 14.24 8.3 14.24Z" fill="white"/>
</svg>
