<svg width="11" height="11" viewBox="0 0 11 11" fill="none" xmlns="http://www.w3.org/2000/svg">
<path fill-rule="evenodd" clip-rule="evenodd" d="M10.3057 6.40164L10.537 6.54299C11.1543 6.92028 11.1544 7.68963 10.537 8.06692L6.00366 10.8552C5.68865 11.0477 5.30243 11.0436 4.99488 10.8557L0.462169 8.06638C-0.153745 7.68998 -0.154647 6.92045 0.463007 6.54297L0.694265 6.40164L0.462169 6.25882C-0.154884 5.88172 -0.152263 5.24028 0.463007 4.86426L0.694265 4.72294L0.462169 4.58013C-0.152649 4.20441 -0.154475 3.30862 0.463007 2.93125L4.99404 0.143005L4.99488 0.14249C5.30576 -0.0474966 5.69198 -0.0474966 6.00289 0.14249L10.5378 2.93172C11.1525 3.3074 11.1546 4.20317 10.537 4.58065L10.3057 4.72292L10.537 4.86426C11.1544 5.24159 11.153 5.88286 10.537 6.25937L10.3057 6.40164ZM5.3324 0.691644L0.800658 3.4803C0.59342 3.60695 0.594688 3.90526 0.799863 4.03062L5.33258 6.81989C5.43534 6.88269 5.56405 6.88271 5.66771 6.81938L10.201 4.03111C10.4082 3.90453 10.4069 3.60617 10.2018 3.48083L5.66687 0.691601C5.56431 0.628909 5.43591 0.628759 5.3324 0.691644ZM0.645605 5.56052C0.645928 5.54972 0.67433 5.48945 0.799799 5.41277L1.31072 5.10052L4.99568 7.36811C5.30389 7.55644 5.69014 7.55969 6.00443 7.36762L9.69064 5.10039L10.2018 5.41275C10.3272 5.48943 10.3556 5.54969 10.356 5.56048C10.3556 5.57135 10.3272 5.63161 10.201 5.70876L5.66767 8.49703C5.564 8.56037 5.43529 8.56034 5.33253 8.49755L0.79982 5.70827C0.67433 5.63157 0.645928 5.57133 0.645605 5.56052ZM5.66711 10.3059L10.2005 7.51766C10.2992 7.45731 10.3554 7.37997 10.3554 7.30501C10.3554 7.23005 10.2992 7.15273 10.2012 7.09285L9.6901 6.78047L6.00389 9.0477C5.69001 9.23953 5.30378 9.23678 4.99514 9.04819L1.31018 6.78062L0.799238 7.09285C0.594277 7.21808 0.594513 7.39211 0.799238 7.51719L5.33197 10.3065C5.43475 10.3693 5.56349 10.3693 5.66711 10.3059Z" fill="#7665A7"/>
</svg>
