<svg width="30" height="25" viewBox="0 0 30 25" fill="none" xmlns="http://www.w3.org/2000/svg">
<path d="M4.79407 14.8457H11.8195V16.0916H4.79407V14.8457Z" fill="#AE9DE2"/>
<path d="M2.78198 14.875H3.83136V16.0619H2.78198V14.875Z" fill="#AE9DE2"/>
<path d="M2.78198 17.8438H3.83136V19.0307H2.78198V17.8438Z" fill="#AE9DE2"/>
<path d="M4.79407 11.877H11.8195V13.1228H4.79407V11.877Z" fill="#AE9DE2"/>
<path d="M20.5935 10.3363C20.6373 10.2896 20.6928 10.2524 20.7464 10.2136C21.0076 10.0248 21.3751 9.92495 21.8623 9.92495C22.2244 9.92495 22.584 9.95173 22.9409 10.0057C23.2978 10.06 23.6037 10.1106 23.8583 10.1593L23.8875 9.08835C23.5644 9.02958 23.2298 8.97581 22.8824 8.92703C22.535 8.87825 22.1951 8.85352 21.862 8.85352C21.4357 8.85352 21.0724 8.90479 20.7462 8.98579C20.2708 9.10401 19.8882 9.29755 19.6242 9.5875C19.5992 9.6145 19.5824 9.65081 19.5593 9.6794C19.162 10.1681 18.9564 10.8754 18.9564 11.8181V12.0382H18.0461L17.826 13.0656H18.9564V13.9759H17.9583L17.7382 15.0034H18.9564V15.0621C18.9564 15.5516 19.007 15.982 19.11 16.3532C19.2042 16.694 19.3582 16.9772 19.5593 17.215C19.5776 17.237 19.5899 17.2647 19.6089 17.2853C19.8388 17.5349 20.1399 17.7205 20.5118 17.843C20.5821 17.8662 20.6697 17.8764 20.7457 17.895C21.0709 17.9751 21.4334 18.0261 21.8616 18.0261C22.1945 18.0261 22.5346 18.0018 22.8819 17.9533C23.2293 17.9038 23.564 17.8503 23.8871 17.7915L23.8578 16.6906C23.6033 16.7401 23.2974 16.7909 22.9405 16.8449C22.5836 16.8989 22.2239 16.9257 21.8618 16.9257C21.3747 16.9257 21.0071 16.8258 20.7459 16.6371C20.6924 16.5983 20.6368 16.5613 20.593 16.5143C20.3332 16.2407 20.2041 15.7907 20.2041 15.1638V15.0027H22.6548L22.8749 13.9753H20.2041V13.065H23.051L23.2711 12.0376H20.2041V11.7002C20.2046 11.065 20.3337 10.6099 20.5935 10.3363L20.5935 10.3363Z" fill="#AE9DE2"/>
<path d="M2.78198 11.9082H3.83136V13.0951H2.78198V11.9082Z" fill="#AE9DE2"/>
<path d="M21.4066 5.79707C21.1838 5.79707 20.9649 5.81159 20.7466 5.83065V0H5.30916L2.40057 2.49269L0 4.8059V25H20.7465L20.7467 21.0502C20.9645 21.069 21.1842 21.0837 21.4067 21.0837C25.6212 21.0837 29.0503 17.6553 29.0503 13.4402C29.0503 9.22513 25.6209 5.79673 21.4067 5.79673L21.4066 5.79707ZM3.18571 3.38308L4.93508 1.88418V5.30828L1.18971 5.30805L3.18571 3.38308ZM19.5595 23.8136H1.18698V6.49416H6.12224L6.12201 1.1868H19.5596V6.03197C16.2357 6.86126 13.763 9.86313 13.763 13.4402C13.763 17.0173 16.2357 20.019 19.5593 20.8485L19.5595 23.8136ZM21.4065 19.8966C21.1837 19.8966 20.9636 19.8853 20.7464 19.8631C20.338 19.8213 19.9421 19.7385 19.5595 19.6241C16.8969 18.8275 14.9497 16.3584 14.9497 13.4403C14.9497 10.5222 16.8969 8.05286 19.5595 7.25651C19.9421 7.14215 20.3377 7.05933 20.7464 7.01758C20.9634 6.99535 21.1839 6.984 21.4065 6.984C24.967 6.984 27.8633 9.88033 27.8633 13.4402C27.8633 17.0007 24.9667 19.897 21.4065 19.897V19.8966Z" fill="#AE9DE2"/>
<path d="M4.79407 17.8125H13.5999V19.0584H4.79407V17.8125Z" fill="#AE9DE2"/>
</svg>
