<svg width="10" height="11" viewBox="0 0 10 11" fill="none" xmlns="http://www.w3.org/2000/svg">
<path d="M5.81 10.168C7.462 10.168 8.582 9.384 9.366 8.32L8.372 7.774C7.84 8.572 6.874 9.132 5.81 9.132C4.214 9.132 2.912 8.166 2.422 6.682H6.664V5.954H2.254C2.226 5.758 2.212 5.548 2.212 5.338C2.212 5.114 2.226 4.904 2.254 4.694H6.664V3.966H2.422C2.926 2.496 4.214 1.544 5.81 1.544C6.874 1.544 7.84 2.118 8.372 2.902L9.352 2.356C8.61 1.306 7.462 0.508 5.81 0.508C3.57 0.508 1.736 1.866 1.176 3.966H0.434V4.694H1.036C1.022 4.904 1.008 5.128 1.008 5.338C1.008 5.548 1.022 5.758 1.036 5.954H0.434V6.682H1.176C1.722 8.81 3.556 10.168 5.81 10.168Z" fill="#7665A7"/>
</svg>
