<svg width="12" height="17" viewBox="0 0 12 17" fill="none" xmlns="http://www.w3.org/2000/svg">
<path d="M10.5 6.53519V4.67614C10.5 3.51883 10.0259 2.40892 9.18198 1.59058C8.33807 0.772239 7.19347 0.3125 6 0.3125C4.80653 0.3125 3.66193 0.772239 2.81802 1.59058C1.97411 2.40892 1.5 3.51883 1.5 4.67614V6.53519C1.04549 6.78851 0.667655 7.15325 0.404381 7.59285C0.141108 8.03244 0.00165266 8.53143 0 9.03977V11.9489C0 13.1484 0 15.3821 2.7627 16.2748C2.83919 16.2997 2.91932 16.3124 3 16.3125H9C9.08068 16.3124 9.16081 16.2997 9.2373 16.2748C12 15.3821 12 13.1484 12 11.9489V9.03977C11.9983 8.53143 11.8589 8.03244 11.5956 7.59285C11.3323 7.15325 10.9545 6.78851 10.5 6.53519V6.53519ZM7.3989 10.1314L6.74932 11.2183L6.75 11.2216V11.9489C6.75 12.1417 6.67098 12.3267 6.53033 12.4631C6.38968 12.5995 6.19891 12.6761 6 12.6761C5.80109 12.6761 5.61032 12.5995 5.46967 12.4631C5.32902 12.3267 5.25 12.1417 5.25 11.9489V11.2216L5.25068 11.2183L4.6011 10.1314C4.53511 10.0209 4.50031 9.89544 4.50019 9.76772C4.50006 9.64 4.53463 9.5145 4.6004 9.40385C4.66618 9.2932 4.76084 9.20129 4.87488 9.13738C4.98891 9.07347 5.11829 9.0398 5.25 9.03977H6.75C6.88171 9.0398 7.01109 9.07347 7.12512 9.13738C7.23916 9.20129 7.33382 9.2932 7.3996 9.40385C7.46537 9.5145 7.49994 9.64 7.49981 9.76772C7.49969 9.89544 7.46489 10.0209 7.3989 10.1314ZM9 6.13068H3V4.67614C3 3.9046 3.31607 3.16466 3.87868 2.6191C4.44129 2.07354 5.20435 1.76705 6 1.76705C6.79565 1.76705 7.55871 2.07354 8.12132 2.6191C8.68393 3.16466 9 3.9046 9 4.67614V6.13068Z" fill="white"/>
</svg>
