<svg width="10" height="12" viewBox="0 0 10 12" fill="none" xmlns="http://www.w3.org/2000/svg">
<path d="M9.71456 1.91912L5.17752 0.0353906C5.06387 -0.0117853 4.93611 -0.0118084 4.82248 0.0353906L0.28544 1.91912C0.112639 1.99088 0 2.15958 0 2.34669V4.63662C0 7.7897 1.90576 10.626 4.82505 11.8175C4.93718 11.8633 5.0628 11.8633 5.17495 11.8175C8.09419 10.626 10 7.78972 10 4.63662V2.34669C10 2.15958 9.88738 1.99088 9.71456 1.91912ZM9.07407 4.63662C9.07407 7.31706 7.5 9.78458 5 10.886C2.56681 9.814 0.925926 7.3897 0.925926 4.63662V2.65576L5 0.964233L9.07407 2.65576V4.63662ZM4.48829 6.19713L6.47819 4.20724C6.65898 4.02646 6.95211 4.02643 7.13292 4.20724C7.31373 4.38805 7.3137 4.68118 7.13289 4.86196L4.81565 7.17921C4.63481 7.36004 4.34169 7.35997 4.16093 7.17921L2.86708 5.88537C2.68627 5.70456 2.68627 5.41143 2.86708 5.23065C3.04789 5.04986 3.34102 5.04984 3.52181 5.23065L4.48829 6.19713Z" fill="#7665A7"/>
</svg>
