<svg width="16" height="22" viewBox="0 0 16 22" fill="none" xmlns="http://www.w3.org/2000/svg">
<path d="M16 13.3871C15.6946 9.88441 14.0734 8.68484 14.0734 8.68484C14.2379 13.3871 10.4082 15.7383 9.09251 14.8506C7.23642 13.6031 9.09251 11.6358 9.09251 11.6358C10.8076 9.50055 11.254 8.61287 11.348 6.50164C11.489 2.66303 7.54185 0 7.54185 0C7.54185 3.71865 5.70925 4.9422 4.37004 6.23773C4.15859 6.42966 2.93686 7.50927 2.86637 7.55725L2.84288 7.58124C1.10426 9.0687 0 11.3239 0 13.819C0 15.5943 0.540382 17.2257 1.48018 18.5453C1.48018 18.5453 1.59765 18.7132 1.8091 18.9771C2.41997 19.7448 3.17181 20.3926 4.01762 20.8724C5.00441 21.5202 6.29662 22 7.89427 22C7.91777 22 7.96476 22 7.98825 22C8.03524 22 8.08223 22 8.12922 22C8.15272 22 8.17621 22 8.19971 22C8.45815 22 8.71659 21.976 8.95154 21.952L8.97504 21.928C9.116 21.904 9.28047 21.88 9.42144 21.8561C9.44493 21.8561 9.46843 21.88 9.49192 21.8561C9.93833 21.7601 10.3377 21.6401 10.7606 21.4962C10.7841 21.4962 10.8076 21.4722 10.8311 21.4722C13.1336 20.5605 14.9192 18.6172 15.6476 16.1941C15.859 15.4504 15.9765 14.6587 15.9765 13.843C16 13.675 16 13.5311 16 13.3871Z" fill="white"/>
</svg>
