<svg width="12" height="12" viewBox="0 0 12 12" fill="none" xmlns="http://www.w3.org/2000/svg">
<path fill-rule="evenodd" clip-rule="evenodd" d="M9.78256 1.31052L10.6887 2.21677C11.1038 2.63183 11.1037 3.30359 10.6887 3.71859L3.94678 10.461C3.9051 10.5027 3.84951 10.5314 3.79297 10.542L1.34631 10.9951C1.25156 11.0127 1.1541 10.9825 1.0858 10.9142C1.01758 10.846 0.987342 10.7485 1.0049 10.6537L1.45799 8.20678C1.4681 8.15168 1.4965 8.09535 1.53889 8.05297L8.28084 1.31052C8.69488 0.896502 9.36851 0.896482 9.78256 1.31052ZM1.93229 8.86033L1.6582 10.3405L3.13826 10.0664L1.93229 8.86033ZM3.74139 9.84037L2.16211 8.261L7.92793 2.49474L9.50721 4.07413L3.74139 9.84037ZM9.91912 3.65923L10.2738 3.30453C10.4598 3.11847 10.4598 2.81742 10.2738 2.63138L9.36762 1.72513C9.18201 1.53953 8.88008 1.53955 8.69451 1.72513L8.33984 2.07984L9.91912 3.65923Z" fill="#DD5AA5"/>
<path d="M10.6887 2.21677L10.6475 2.25802L10.6475 2.25802L10.6887 2.21677ZM9.78256 1.31052L9.82381 1.26928L9.8238 1.26928L9.78256 1.31052ZM10.6887 3.71859L10.6475 3.67734L10.6475 3.67734L10.6887 3.71859ZM3.94678 10.461L3.90553 10.4198L3.90552 10.4198L3.94678 10.461ZM3.79297 10.542L3.80359 10.5993L3.80366 10.5993L3.79297 10.542ZM1.34631 10.9951L1.33568 10.9377L1.33568 10.9377L1.34631 10.9951ZM1.0858 10.9142L1.12705 10.8729L1.12705 10.8729L1.0858 10.9142ZM1.0049 10.6537L0.947542 10.643L0.947542 10.643L1.0049 10.6537ZM1.45799 8.20678L1.51534 8.2174L1.51536 8.21731L1.45799 8.20678ZM1.53889 8.05297L1.58013 8.09422L1.58013 8.09422L1.53889 8.05297ZM8.28084 1.31052L8.23959 1.26928L8.23959 1.26928L8.28084 1.31052ZM1.6582 10.3405L1.60084 10.3299L1.5854 10.4133L1.66883 10.3978L1.6582 10.3405ZM1.93229 8.86033L1.97353 8.81909L1.89512 8.74066L1.87493 8.84971L1.93229 8.86033ZM3.13826 10.0664L3.14888 10.1237L3.25792 10.1035L3.17951 10.0251L3.13826 10.0664ZM2.16211 8.261L2.12086 8.21975L2.07962 8.261L2.12086 8.30224L2.16211 8.261ZM3.74139 9.84037L3.70014 9.88162L3.74139 9.92287L3.78264 9.88162L3.74139 9.84037ZM7.92793 2.49474L7.96918 2.45349L7.92793 2.41224L7.88668 2.45349L7.92793 2.49474ZM9.50721 4.07413L9.54846 4.11538L9.5897 4.07413L9.54846 4.03288L9.50721 4.07413ZM10.2738 3.30453L10.2325 3.26328L10.2738 3.30453ZM9.91912 3.65923L9.87787 3.70048L9.91912 3.74173L9.96037 3.70048L9.91912 3.65923ZM10.2738 2.63138L10.2325 2.67263L10.2325 2.67263L10.2738 2.63138ZM9.36762 1.72513L9.40887 1.68389L9.40886 1.68389L9.36762 1.72513ZM8.69451 1.72513L8.65326 1.68389L8.69451 1.72513ZM8.33984 2.07984L8.29859 2.03859L8.25735 2.07984L8.29859 2.12109L8.33984 2.07984ZM10.73 2.17553L9.82381 1.26928L9.74131 1.35177L10.6475 2.25802L10.73 2.17553ZM10.73 3.75983C11.1678 3.32206 11.1678 2.61336 10.73 2.17552L10.6475 2.25802C11.0398 2.6503 11.0397 3.28512 10.6475 3.67734L10.73 3.75983ZM3.98802 10.5023L10.73 3.75983L10.6475 3.67734L3.90553 10.4198L3.98802 10.5023ZM3.80366 10.5993C3.87156 10.5866 3.93786 10.5525 3.98803 10.5023L3.90552 10.4198C3.87233 10.453 3.82746 10.4762 3.78227 10.4846L3.80366 10.5993ZM1.35693 11.0525L3.80359 10.5993L3.78234 10.4846L1.33568 10.9377L1.35693 11.0525ZM1.04455 10.9554C1.12645 11.0373 1.24331 11.0735 1.35694 11.0525L1.33568 10.9377C1.25981 10.9518 1.18175 10.9276 1.12705 10.8729L1.04455 10.9554ZM0.947542 10.643C0.92649 10.7568 0.962737 10.8736 1.04455 10.9554L1.12705 10.8729C1.07242 10.8183 1.04819 10.7403 1.06226 10.6643L0.947542 10.643ZM1.40063 8.19616L0.947542 10.643L1.06226 10.6643L1.51534 8.2174L1.40063 8.19616ZM1.49764 8.01172C1.44667 8.06269 1.41281 8.12982 1.40061 8.19624L1.51536 8.21731C1.5234 8.17354 1.54634 8.12802 1.58013 8.09422L1.49764 8.01172ZM8.23959 1.26928L1.49764 8.01173L1.58013 8.09422L8.32209 1.35177L8.23959 1.26928ZM9.8238 1.26928C9.38698 0.832452 8.67641 0.832475 8.23959 1.26928L8.32208 1.35177C8.71335 0.960529 9.35005 0.960512 9.74131 1.35177L9.8238 1.26928ZM1.71556 10.3511L1.98964 8.87095L1.87493 8.84971L1.60084 10.3299L1.71556 10.3511ZM3.12764 10.009L1.64758 10.2831L1.66883 10.3978L3.14888 10.1237L3.12764 10.009ZM1.89104 8.90158L3.09701 10.1076L3.17951 10.0251L1.97353 8.81909L1.89104 8.90158ZM2.12086 8.30224L3.70014 9.88162L3.78264 9.79912L2.20336 8.21975L2.12086 8.30224ZM7.88668 2.45349L2.12086 8.21975L2.20336 8.30224L7.96918 2.53598L7.88668 2.45349ZM9.54846 4.03288L7.96918 2.45349L7.88668 2.53598L9.46596 4.11538L9.54846 4.03288ZM3.78264 9.88162L9.54846 4.11538L9.46596 4.03288L3.70014 9.79912L3.78264 9.88162ZM10.2325 3.26328L9.87787 3.61799L9.96037 3.70048L10.315 3.34577L10.2325 3.26328ZM10.2325 2.67263C10.3958 2.83588 10.3958 3.1 10.2325 3.26328L10.315 3.34577C10.5239 3.13694 10.5239 2.79895 10.315 2.59013L10.2325 2.67263ZM9.32637 1.76638L10.2325 2.67263L10.315 2.59014L9.40887 1.68389L9.32637 1.76638ZM8.73576 1.76638C8.89855 1.60358 9.16354 1.60356 9.32637 1.76638L9.40886 1.68389C9.20048 1.4755 8.86161 1.47552 8.65326 1.68389L8.73576 1.76638ZM8.38109 2.12109L8.73576 1.76638L8.65326 1.68389L8.29859 2.03859L8.38109 2.12109ZM9.96037 3.61799L8.38109 2.03859L8.29859 2.12109L9.87787 3.70048L9.96037 3.61799Z" fill="#7665A7"/>
</svg>
